<?xml version="1.0" encoding="UTF-8"?>
<svg width="960px" height="960px" viewBox="0 0 960 960" version="1.1" xmlns="http://www.w3.org/2000/svg" xmlns:xlink="http://www.w3.org/1999/xlink">
    <title>devices / fibaro / motion-sensor</title>
    <g id="devices-/-fibaro-/-motion-sensor" stroke="none" stroke-width="1" fill="none" fill-rule="evenodd" stroke-linejoin="round">
        <path d="M498,34 C617.845791,34 726.345791,82.5771046 804.884343,161.115657 C883.422895,239.654209 932,348.154209 932,468 C932,587.845791 883.422895,696.345791 804.884343,774.884343 C775.039693,804.728993 740.86861,830.24721 703.392573,850.417515 L701.251,851.559 L702.568322,865.786431 C702.847966,868.80709 712.560194,878.111787 683.129724,890.434044 L682.22586,890.808366 C673.989736,894.182492 660.358396,898.933789 642.769276,903.843925 C622.084993,909.618099 595.804813,915.657031 566.417579,919.965446 C527.037423,925.738908 482.12491,928.379275 437.577579,923.280863 C294.585569,906.915523 140.81797,824.124541 79.8265465,716.528851 C18.7868732,608.848043 23.8280953,439.051538 39.3532768,377.698286 C46.7819417,348.341287 53.9023461,331.548963 60.2336661,322.133177 C66.5072232,312.803293 73.002983,308.456584 78.878352,306.17495 C84.4984126,303.992463 90.0964448,303.525805 95.7587921,304.399668 L95.889,304.42 L96.0069293,304.131201 C127.085126,227.968172 179.175861,162.609868 245.084801,115.271628 L247.26262,113.717564 C318.074438,63.5150009 404.589722,34 498,34 L498,34 Z" id="Combined-Shape" stroke="#000000" stroke-width="40"></path>
        <path d="M785.120797,592.993028 C885.266183,522.869686 896.105224,365.559522 809.330473,241.630942 C722.555721,117.702362 571.027011,74.0845982 470.881625,144.20794 C370.736239,214.331282 359.897198,371.641447 446.671949,495.570027 C533.4467,619.498607 684.975411,663.11637 785.120797,592.993028 Z" id="Oval" stroke="#000000" stroke-width="20" stroke-linecap="round"></path>
        <path d="M621.715466,341.217803 C630.111193,404.356614 691.781171,535.699758 701.402309,535.699758 C707.369716,535.699758 767.866024,395.619853 758.539355,328.787895 C754.794818,301.955726 732.377638,251.714079 659.750054,162.481413 C657.434733,159.636732 648.6267,152.701442 633.325957,141.675545 C619.988479,232.611177 616.118315,299.125263 621.715466,341.217803 Z" id="Path-15" stroke="#000000" stroke-width="42" fill="#000000"></path>
        <path d="M98.6245057,319.445081 C110.835531,323.873499 146.488048,339.877232 136.01945,531.041299 C125.550852,722.205366 294.039684,856.96994 431.590562,877.755707 C569.141441,898.541474 642.838809,878.90538 683.788241,868.423777 C724.737672,857.942174 583.125928,919.166482 445.09134,903.38414 C307.056753,887.601798 157.668696,808.688537 98.6245057,704.631001 C39.5803156,600.573465 44.7003523,436.51712 59.7097106,377.26099 C74.7190689,318.00486 86.4134805,315.016663 98.6245057,319.445081 Z" id="Path-16" stroke="#000000" stroke-width="20" stroke-linecap="round"></path>
    </g>
</svg>