<?xml version="1.0" encoding="UTF-8"?>
<svg width="960px" height="960px" viewBox="0 0 960 960" version="1.1" xmlns="http://www.w3.org/2000/svg" xmlns:xlink="http://www.w3.org/1999/xlink">
    <title>devices / Philips hue / lights</title>
    <g id="devices-/-Philips-hue-/-lights" stroke="none" stroke-width="1" fill="none" fill-rule="evenodd" stroke-linejoin="round">
        <path d="M479.774849,47 C541.021932,47 592.777659,59.2099666 635.152887,83.072818 C689.10805,113.456703 714.581402,139.023435 742.953161,189.534375 L743.485,190.485 L744.957911,191.198051 C795.915664,215.952746 837.904496,247.702763 867.621084,284.049536 L868.575423,285.223604 C900.369996,324.567387 918,369.267433 918,416.701342 C918,495.684681 868.826827,567.592725 786.624085,619.175664 C708.111361,668.443086 599.621992,699 480,699 C360.378008,699 251.888639,668.443086 173.375915,619.175664 C91.173173,567.592725 42,495.684681 42,416.701342 C42,369.145046 59.721143,324.336078 91.6716468,284.918332 C121.583564,248.015617 164.124307,215.812594 215.854758,190.804315 L215.896,190.784 L216.813352,189.148 C244.731414,139.537445 269.970654,113.979754 322.572078,84.104745 L324.396811,83.072818 C366.772039,59.2099666 418.527767,47 479.774849,47 Z" id="Path" stroke="#000000" stroke-width="40"></path>
        <path d="M480,268 C629.48373,268 751,339.090197 751,427.5 C751,515.909803 629.48373,587 480,587 C330.51627,587 209,515.909803 209,427.5 C209,340.2755 327.279796,269.909313 474.00296,268.038205 C475.996574,268.012787 477.995733,268 480,268 Z" id="Path" stroke="#000000" stroke-width="20"></path>
        <path d="M480,700 C732.053174,700 936,575.370647 936,422.5 C936,269.629353 732.053174,145 480,145 C227.946826,145 24,269.629353 24,422.5 C24,575.370647 227.946826,700 480,700 Z" id="Path" stroke="#000000" stroke-width="20"></path>
        <path d="M480,627 C651.948364,627 791,543.368763 791,441 C791,338.631237 651.948364,255 480,255 C308.051636,255 169,338.631237 169,441 C169,543.368763 308.051636,627 480,627 Z" id="Path" stroke="#000000" stroke-width="20"></path>
        <path d="M325.920811,160.051492 C336.590257,143.361313 349.36319,128.694647 364.23961,116.051492" id="Path-15" stroke="#000000" stroke-width="20"></path>
        <path d="M325.920811,160.051492 C336.590257,143.361313 349.36319,128.694647 364.23961,116.051492" id="Path-15" stroke="#000000" stroke-width="20"></path>
        <path d="M401.96965,146.051492 C409.96965,129.085729 417.96965,115.752396 425.96965,106.051492" id="Path-16" stroke="#000000" stroke-width="20"></path>
        <line x1="480" y1="146.051492" x2="480" y2="105.051492" id="Path-17" stroke="#000000" stroke-width="20"></line>
        <path d="M596.602013,160.051492 C607.271459,143.361313 620.044391,128.694647 634.920811,116.051492" id="Path-15" stroke="#000000" stroke-width="20" transform="translate(615.761412, 138.051492) scale(-1, 1) translate(-615.761412, -138.051492) "></path>
        <path d="M534.871972,146.051492 C542.871972,129.085729 550.871972,115.752396 558.871972,106.051492" id="Path-16" stroke="#000000" stroke-width="20" transform="translate(546.871972, 126.051492) scale(-1, 1) translate(-546.871972, -126.051492) "></path>
    </g>
</svg>