<?xml version="1.0" encoding="UTF-8"?>
<svg width="960px" height="960px" viewBox="0 0 960 960" version="1.1" xmlns="http://www.w3.org/2000/svg" xmlns:xlink="http://www.w3.org/1999/xlink">
    <title>devices / Philips hue / lights</title>
    <g id="devices-/-Philips-hue-/-lights" stroke="none" stroke-width="1" fill="none" fill-rule="evenodd" stroke-linejoin="round">
        <path d="M213.826791,114.187029 C253.394685,104.991644 300.594782,105.303263 352.038392,114.94359 C400.788185,124.079651 453.702694,141.701102 507.423214,167.027586 C559.040877,191.360655 611.440444,222.814609 661.612082,260.60164 C711.437099,298.128222 754.77959,338.444023 790.88577,379.455223 C829.085118,422.842848 859.222892,467.059482 880.494587,509.646149 C902.302345,553.304127 914.830803,595.600751 917.129495,633.816835 C919.505705,673.338972 911.061937,708.695096 891.28054,737.631771 C888.542647,741.645485 885.615587,745.492352 882.500028,749.180814 C879.707474,752.484359 876.762982,755.658185 873.67084,758.702685 L873.67084,758.702685 L872.402701,759.938384 C871.856914,760.436365 871.356312,760.895965 870.887026,761.326788 C870.652025,761.542528 870.424535,761.751369 870.194038,761.962603 L870.194038,761.962603 L869.782,762.339 L870.015895,762.601138 C726.512086,892.737165 566.522342,926.292659 429.714733,898.363996 L425.576185,897.49889 C417.248514,895.717566 408.991324,893.706891 400.807614,891.477187 C379.990843,903.271043 350.693417,911 318,911 C286.650052,911 258.365658,903.938425 237.854683,892.965053 C225.848516,886.541754 216.341411,878.705665 209.75861,870.203291 C201.958532,860.128677 198,849.009516 198,837.5 C198,819.849223 203.310119,803.701697 212.172916,789.708474 C132.019886,719.85585 73.771617,624.223935 51.4989192,519.118187 C29.9890418,417.61222 41.9042551,307.255962 100.008152,202.589376 C101.8591,198.315773 103.905128,194.151529 106.147214,190.099902 C109.447544,184.135456 113.202436,178.373648 117.425632,172.830021 C139.878411,143.297871 172.910515,123.695971 213.826791,114.187029 Z" id="Combined-Shape" stroke="#000000" stroke-width="40"></path>
        <path d="M428.21206,889.640092 C564.716341,918.856995 724.817786,885.557958 868.307416,755.374407 C865.627063,757.704604 862.817965,759.928215 859.891156,762.051366 C861.854214,760.528529 863.768227,758.957912 865.631968,757.337065 L865.67243,757.296636 L868.051152,755.118355 C868.778256,754.453109 869.574024,753.720481 870.428647,752.931497 L870.46911,752.900869 C873.572483,749.909101 876.512779,746.773993 879.283867,743.49432 C882.041467,740.228123 884.63599,736.816136 887.062532,733.255908 C905.009617,706.990343 912.305181,674.831902 910.154522,639.044626 C907.930295,602.049372 895.603858,561.16923 874.516615,518.934095 C853.298174,476.434331 823.191407,432.340673 785.0914,389.045799 C748.722711,347.71726 705.054779,307.101746 654.86866,269.285655 C604.311019,231.190234 551.513211,199.47039 499.497683,174.938384 C445.829312,149.624746 392.981232,131.958369 344.275071,122.82625 C294.402845,113.476057 248.618587,112.938224 210.231662,121.863297 C173.162843,130.482088 142.959211,147.921815 122.565966,174.768091 C118.828675,179.675963 115.502144,184.78108 112.579014,190.066291 C110.41732,193.974456 108.461619,198.000234 106.709457,202.139948 C-34.4026779,455.253056 98.3177202,742.351274 320.64235,852.086178 C354.611474,868.852084 390.685889,881.609364 428.21206,889.640092 Z" id="Path" stroke="#000000" stroke-width="40"></path>
        <path d="M548.911694,715.69022 C602.280717,737.968762 653.799036,752.33705 700.548874,758.49471 C746.34322,764.527008 787.730762,762.770691 822.011753,752.89932 C854.852453,743.442514 881.152203,726.527256 898.506241,701.864343 C915.743569,677.428572 922.743668,647.391204 920.664672,613.882162 C918.485638,578.793055 906.356664,539.902111 885.594919,499.624732 C864.593339,458.881897 834.767888,416.58134 797.004803,375.016822 C760.88465,335.260752 717.51302,296.189832 667.66585,259.808622 C617.431353,223.146898 564.990888,192.62918 513.344315,169.034952 C460.121502,144.72082 407.751577,127.758396 359.524253,119.001634 C310.410696,110.083515 265.405111,109.552275 227.763867,118.028523 C191.906634,126.102617 162.76093,142.353826 143.180403,167.319595 C123.395953,192.488923 115.218483,224.149798 117.34878,259.798692 C119.579116,297.123225 133.095797,338.796969 156.421339,381.989959 C179.634016,424.975667 212.475999,469.277061 253.355655,512.169677 C292.856581,553.617521 339.827016,593.714924 392.834363,630.004284 L392.844623,630.004284 C444.807983,665.658143 497.690924,694.309076 548.911694,715.69022 L548.911694,715.69022 Z" id="Path" stroke="#000000" stroke-width="30" stroke-linecap="round"></path>
    </g>
</svg>