<?xml version="1.0" encoding="UTF-8"?>
<svg width="48px" height="48px" viewBox="0 0 48 48" version="1.1" xmlns="http://www.w3.org/2000/svg" xmlns:xlink="http://www.w3.org/1999/xlink">
    <title>logo / paypal</title>
    <g id="logo-/-paypal" stroke="none" stroke-width="1" fill="none" fill-rule="evenodd">
        <g id="PayPal" transform="translate(7.000000, 4.000000)" fill-rule="nonzero">
            <path d="M9.65906369,38.6440004 L10.3543153,34.2406469 L8.8056191,34.204858 L1.41042862,34.204858 L6.54970714,1.71256255 C6.56565937,1.6144746 6.61750414,1.52301422 6.69327726,1.45806409 C6.76905037,1.39311396 6.86609314,1.35732512 6.96712396,1.35732512 L19.4364547,1.35732512 C23.5760597,1.35732512 26.4328392,2.21625741 27.9243732,3.9115883 C28.6236129,4.70689598 29.0689461,5.53799251 29.2843013,6.45259635 C29.5102913,7.41226762 29.5142794,8.5588362 29.2936068,9.95725221 L29.2776546,10.0593167 L29.2776546,10.9553634 L29.9768942,11.3503662 C30.5657976,11.6618617 31.0337298,12.0184246 31.3926551,12.4266826 C31.9908639,13.1066706 32.3777056,13.970905 32.541216,14.9955264 C32.7100439,16.0493091 32.6542111,17.3032442 32.3777056,18.7228684 C32.0586609,20.3559002 31.542872,21.7781754 30.846291,22.9419757 C30.2055429,24.0143155 29.3893202,24.9037346 28.4202219,25.5930013 C27.4949922,26.2478046 26.3956174,26.7448719 25.1526723,27.062995 C23.9482786,27.375816 22.575057,27.533552 21.0689001,27.533552 L20.0984724,27.533552 C19.4045502,27.533552 18.7305682,27.7827485 18.2014858,28.2294463 C17.6710739,28.6854227 17.3201248,29.3084137 17.2124472,29.9897273 L17.1393328,30.3860556 L15.9110106,38.1469331 L15.8551778,38.4319183 C15.8405549,38.5220532 15.8152972,38.5671207 15.7780753,38.5976074 C15.7448415,38.6254432 15.6969848,38.6440004 15.6504574,38.6440004 L9.65906369,38.6440004 Z" id="Path" fill="#253B80"></path>
            <path d="M30.638912,10.1627067 L30.638912,10.1627067 L30.638912,10.1627067 C30.6016901,10.3999735 30.5591508,10.6425423 30.5112941,10.8917387 C28.8668845,19.3100706 23.2410628,22.2182457 16.0559101,22.2182457 L12.3975308,22.2182457 C11.5188285,22.2182457 10.7783789,22.8544918 10.6414555,23.7187262 L10.6414555,23.7187262 L10.6414555,23.7187262 L8.76839721,35.5635086 L8.23798539,38.9210326 C8.14891874,39.4883521 8.58760521,40 9.16188569,40 L15.6504574,40 C16.4188235,40 17.0715357,39.4432846 17.1925069,38.6877423 L17.2563158,38.3590151 L18.4779912,30.6286244 L18.556423,30.2044604 C18.6760648,29.446267 19.3301064,28.8895516 20.0984724,28.8895516 L21.0689001,28.8895516 C27.3554102,28.8895516 32.2766748,26.3445671 33.7150347,18.9800179 C34.3159022,15.9035027 34.0048336,13.3346588 32.4149275,11.5279849 C31.9337018,10.9831991 31.3368223,10.5311993 30.638912,10.1627067 Z" id="Path" fill="#179BD7"></path>
            <path d="M28.9187293,9.47874209 C28.6674815,9.40583888 28.4082577,9.33956324 28.1423871,9.27991517 C27.8751872,9.2215926 27.6013405,9.1698976 27.3195177,9.12483017 C26.3331378,8.96576863 25.2523738,8.8902144 24.0945074,8.8902144 L14.3211045,8.8902144 C14.0804916,8.8902144 13.8518429,8.94456043 13.6471225,9.04264837 C13.1964719,9.25870696 12.861475,9.68419657 12.7803844,10.2051231 L10.7012764,23.335653 L10.6414555,23.7187262 C10.7783789,22.8544918 11.5188285,22.2182457 12.3975308,22.2182457 L16.0559101,22.2182457 C23.2410628,22.2182457 28.8668845,19.3087451 30.5112941,10.8917387 C30.5604802,10.6425423 30.6016901,10.3999735 30.638912,10.1627067 C30.2228245,9.94267157 29.7721739,9.75444875 29.28696,9.5940617 C29.1673183,9.55429632 29.0436884,9.51585645 28.9187293,9.47874209 Z" id="Path" fill="#222D65"></path>
            <path d="M12.7803844,10.2051231 C12.861475,9.68419657 13.1964719,9.25870696 13.6471225,9.04397389 C13.8531723,8.94588594 14.0804916,8.89153991 14.3211045,8.89153991 L24.0945074,8.89153991 C25.2523738,8.89153991 26.3331378,8.96709414 27.3195177,9.12615568 C27.6013405,9.17122312 27.8751872,9.22291812 28.1423871,9.28124068 C28.4082577,9.34088876 28.6674815,9.4071644 28.9187293,9.4800676 C29.0436884,9.51718196 29.1673183,9.55562183 29.2882894,9.5940617 C29.7735032,9.75444875 30.2241539,9.94399708 30.6402413,10.1627067 C31.1294432,7.05172814 30.6362533,4.93355867 28.9493044,3.01554164 C27.0895396,0.903999735 23.7329234,0 19.437784,0 L6.96845332,0 C6.09108037,0 5.34265466,0.636246148 5.20706066,1.50180601 L0.0132786724,34.3281307 C-0.0890815049,34.977632 0.413413911,35.5635086 1.07011427,35.5635086 L8.76839721,35.5635086 L10.7012764,23.335653 L12.7803844,10.2051231 Z" id="Path" fill="#253B80"></path>
        </g>
    </g>
</svg>