<?xml version="1.0" encoding="UTF-8"?>
<svg width="40px" height="40px" viewBox="0 0 40 40" version="1.1" xmlns="http://www.w3.org/2000/svg" xmlns:xlink="http://www.w3.org/1999/xlink">
    <title>pro-apps / better-logic</title>
    <g id="pro-apps-/-better-logic" stroke="none" stroke-width="1" fill="none" fill-rule="evenodd">
        <circle id="Oval-Copy-8" fill="#75D600" cx="20" cy="20" r="20"></circle>
        <g id="icon-(5)" transform="translate(7.500000, 7.500000)" fill="#FFFFFF" fill-rule="nonzero">
            <path d="M21.8959732,0 L3.10402685,0 C1.39244966,0 0,1.37793871 0,3.07167927 L0,22.5533207 C0,24.2470613 1.39244966,25.625 3.10402685,25.625 L21.8959732,25.625 C23.6075503,25.625 25,24.2470613 25,22.5533207 L25,3.07167927 C25,1.37793871 23.6075503,0 21.8959732,0 Z M24.1610738,22.5533207 C24.1610738,23.7892981 23.1449664,24.7948164 21.8959732,24.7948164 L3.10402685,24.7948164 C1.85503356,24.7948164 0.838926174,23.7892981 0.838926174,22.5533207 L0.838926174,3.07167927 C0.838926174,1.83570194 1.85503356,0.830183585 3.10402685,0.830183585 L21.8959732,0.830183585 C23.1449664,0.830183585 24.1610738,1.83570194 24.1610738,3.07167927 L24.1610738,22.5533207 Z" id="Shape"></path>
            <path d="M7.13087248,17.2678186 L3.55145414,17.2678186 C2.82673378,17.2678186 2.23713647,17.8512716 2.23713647,18.5684395 L2.23713647,22.1105562 C2.23713647,22.8277241 2.82673378,23.4111771 3.55145414,23.4111771 L7.13087248,23.4111771 C7.85559284,23.4111771 8.44519016,22.8277241 8.44519016,22.1105562 L8.44519016,18.5684395 C8.44519016,17.8512716 7.85559284,17.2678186 7.13087248,17.2678186 Z M7.60626398,22.1105562 C7.60626398,22.3699609 7.39300895,22.5809935 7.13087248,22.5809935 L3.55145414,22.5809935 C3.28931767,22.5809935 3.07606264,22.3699609 3.07606264,22.1105562 L3.07606264,18.5684395 C3.07606264,18.3090348 3.28931767,18.0980022 3.55145414,18.0980022 L7.13087248,18.0980022 C7.39300895,18.0980022 7.60626398,18.3090348 7.60626398,18.5684395 L7.60626398,22.1105562 Z" id="Shape"></path>
            <path d="M7.13087248,10.1835853 L3.55145414,10.1835853 C2.82673378,10.1835853 2.23713647,10.7670383 2.23713647,11.4842063 L2.23713647,15.0263229 C2.23713647,15.7434908 2.82673378,16.3269438 3.55145414,16.3269438 L7.13087248,16.3269438 C7.85559284,16.3269438 8.44519016,15.7434908 8.44519016,15.0263229 L8.44519016,11.4842063 C8.44519016,10.7670383 7.85559284,10.1835853 7.13087248,10.1835853 Z M7.60626398,15.0263229 C7.60626398,15.2857276 7.39300895,15.4967603 7.13087248,15.4967603 L3.55145414,15.4967603 C3.28931767,15.4967603 3.07606264,15.2857276 3.07606264,15.0263229 L3.07606264,11.4842063 C3.07606264,11.2248016 3.28931767,11.0137689 3.55145414,11.0137689 L7.13087248,11.0137689 C7.39300895,11.0137689 7.60626398,11.2248016 7.60626398,11.4842063 L7.60626398,15.0263229 Z" id="Shape"></path>
            <path d="M14.2897092,17.2678186 L10.7102908,17.2678186 C9.98557047,17.2678186 9.39597315,17.8512716 9.39597315,18.5684395 L9.39597315,22.1105562 C9.39597315,22.8277241 9.98557047,23.4111771 10.7102908,23.4111771 L14.2897092,23.4111771 C15.0144295,23.4111771 15.6040268,22.8277241 15.6040268,22.1105562 L15.6040268,18.5684395 C15.6040268,17.8512716 15.0144295,17.2678186 14.2897092,17.2678186 Z M14.7651007,22.1105562 C14.7651007,22.3699609 14.5518456,22.5809935 14.2897092,22.5809935 L10.7102908,22.5809935 C10.4481544,22.5809935 10.2348993,22.3699609 10.2348993,22.1105562 L10.2348993,18.5684395 C10.2348993,18.3090348 10.4481544,18.0980022 10.7102908,18.0980022 L14.2897092,18.0980022 C14.5518456,18.0980022 14.7651007,18.3090348 14.7651007,18.5684395 L14.7651007,22.1105562 Z" id="Shape"></path>
            <path d="M14.2897092,10.1835853 L10.7102908,10.1835853 C9.98557047,10.1835853 9.39597315,10.7670383 9.39597315,11.4842063 L9.39597315,15.0263229 C9.39597315,15.7434908 9.98557047,16.3269438 10.7102908,16.3269438 L14.2897092,16.3269438 C15.0144295,16.3269438 15.6040268,15.7434908 15.6040268,15.0263229 L15.6040268,11.4842063 C15.6040268,10.7670383 15.0144295,10.1835853 14.2897092,10.1835853 Z M14.7651007,15.0263229 C14.7651007,15.2857276 14.5518456,15.4967603 14.2897092,15.4967603 L10.7102908,15.4967603 C10.4481544,15.4967603 10.2348993,15.2857276 10.2348993,15.0263229 L10.2348993,11.4842063 C10.2348993,11.2248016 10.4481544,11.0137689 10.7102908,11.0137689 L14.2897092,11.0137689 C14.5518456,11.0137689 14.7651007,11.2248016 14.7651007,11.4842063 L14.7651007,15.0263229 Z" id="Shape"></path>
            <path d="M21.4485459,10.1835853 L17.8691275,10.1835853 C17.1444072,10.1835853 16.5548098,10.7670383 16.5548098,11.4842063 L16.5548098,22.1105562 C16.5548098,22.8277241 17.1444072,23.4111771 17.8691275,23.4111771 L21.4485459,23.4111771 C22.1732662,23.4111771 22.7628635,22.8277241 22.7628635,22.1105562 L22.7628635,11.4842063 C22.7628635,10.7670383 22.1732662,10.1835853 21.4485459,10.1835853 Z M21.9239374,22.1105562 C21.9239374,22.3699609 21.7106823,22.5809935 21.4485459,22.5809935 L17.8691275,22.5809935 C17.6069911,22.5809935 17.393736,22.3699609 17.393736,22.1105562 L17.393736,11.4842063 C17.393736,11.2248016 17.6069911,11.0137689 17.8691275,11.0137689 L21.4485459,11.0137689 C21.7106823,11.0137689 21.9239374,11.2248016 21.9239374,11.4842063 L21.9239374,22.1105562 Z" id="Shape"></path>
            <path d="M21.4485459,2.21382289 L3.55145414,2.21382289 C2.82673378,2.21382289 2.23713647,2.79727592 2.23713647,3.51444384 L2.23713647,7.94208963 C2.23713647,8.65925756 2.82673378,9.24271058 3.55145414,9.24271058 L21.4485459,9.24271058 C22.1732662,9.24271058 22.7628635,8.65925756 22.7628635,7.94208963 L22.7628635,3.51444384 C22.7628635,2.79727592 22.1732662,2.21382289 21.4485459,2.21382289 Z M21.9239374,7.94208963 C21.9239374,8.20149433 21.7106823,8.412527 21.4485459,8.412527 L3.55145414,8.412527 C3.28931767,8.412527 3.07606264,8.20149433 3.07606264,7.94208963 L3.07606264,3.51444384 C3.07606264,3.25503915 3.28931767,3.04400648 3.55145414,3.04400648 L21.4485459,3.04400648 C21.7106823,3.04400648 21.9239374,3.25503915 21.9239374,3.51444384 L21.9239374,7.94208963 Z" id="Shape"></path>
            <path d="M6.2360179,12.8401728 L5.7606264,12.8401728 L5.7606264,12.3697354 C5.7606264,12.1404941 5.57281879,11.9546436 5.34116331,11.9546436 C5.10950783,11.9546436 4.92170022,12.1404941 4.92170022,12.3697354 L4.92170022,12.8401728 L4.44630872,12.8401728 C4.21465324,12.8401728 4.02684564,13.0260232 4.02684564,13.2552646 C4.02684564,13.4845059 4.21465324,13.6703564 4.44630872,13.6703564 L4.92170022,13.6703564 L4.92170022,14.1407937 C4.92170022,14.3700351 5.10950783,14.5558855 5.34116331,14.5558855 C5.57281879,14.5558855 5.7606264,14.3700351 5.7606264,14.1407937 L5.7606264,13.6703564 L6.2360179,13.6703564 C6.46767338,13.6703564 6.65548098,13.4845059 6.65548098,13.2552646 C6.65548098,13.0260232 6.46767338,12.8401728 6.2360179,12.8401728 Z" id="Path"></path>
            <path d="M13.3948546,12.8401728 L11.6051454,12.8401728 C11.3734899,12.8401728 11.1856823,13.0260232 11.1856823,13.2552646 C11.1856823,13.4845059 11.3734899,13.6703564 11.6051454,13.6703564 L13.3948546,13.6703564 C13.6265101,13.6703564 13.8143177,13.4845059 13.8143177,13.2552646 C13.8143177,13.0260232 13.6265101,12.8401728 13.3948546,12.8401728 Z" id="Path"></path>
            <path d="M13.3948546,19.924406 L11.6051454,19.924406 C11.3734899,19.924406 11.1856823,20.1102565 11.1856823,20.3394978 C11.1856823,20.5687392 11.3734899,20.7545896 11.6051454,20.7545896 L13.3948546,20.7545896 C13.6265101,20.7545896 13.8143177,20.5687392 13.8143177,20.3394978 C13.8143177,20.1102565 13.6265101,19.924406 13.3948546,19.924406 Z" id="Path"></path>
            <path d="M12.5,19.4262959 C12.610179,19.4262959 12.7186801,19.3820194 12.7964206,19.3045356 C12.8747204,19.2276053 12.9194631,19.1202349 12.9194631,19.0112041 C12.9194631,18.9021733 12.8747204,18.7948029 12.7964206,18.7178726 C12.7186801,18.6403888 12.610179,18.5961123 12.5,18.5961123 C12.389821,18.5961123 12.2813199,18.6403888 12.2035794,18.7178726 C12.1252796,18.7948029 12.0805369,18.9016199 12.0805369,19.0112041 C12.0805369,19.1207883 12.1252796,19.2276053 12.2035794,19.3045356 C12.2813199,19.3820194 12.389821,19.4262959 12.5,19.4262959 Z" id="Path"></path>
            <path d="M12.5,21.2526998 C12.389821,21.2526998 12.2813199,21.2969762 12.2035794,21.37446 C12.1252796,21.4513904 12.0805369,21.5587608 12.0805369,21.6677916 C12.0805369,21.7768224 12.1252796,21.8841928 12.2035794,21.9611231 C12.2813199,22.0386069 12.389821,22.0828834 12.5,22.0828834 C12.6107383,22.0828834 12.7186801,22.0386069 12.7964206,21.9611231 C12.8747204,21.8836393 12.9194631,21.7768224 12.9194631,21.6677916 C12.9194631,21.5587608 12.8747204,21.4513904 12.7964206,21.37446 C12.7186801,21.2969762 12.6107383,21.2526998 12.5,21.2526998 Z" id="Path"></path>
            <path d="M20.5536913,17.2678186 L18.7639821,17.2678186 C18.5323266,17.2678186 18.344519,17.453669 18.344519,17.6829104 C18.344519,17.9121517 18.5323266,18.0980022 18.7639821,18.0980022 L20.5536913,18.0980022 C20.7853468,18.0980022 20.9731544,17.9121517 20.9731544,17.6829104 C20.9731544,17.453669 20.7853468,17.2678186 20.5536913,17.2678186 Z" id="Path"></path>
            <path d="M20.5536913,15.4967603 L18.7639821,15.4967603 C18.5323266,15.4967603 18.344519,15.6826107 18.344519,15.9118521 C18.344519,16.1410934 18.5323266,16.3269438 18.7639821,16.3269438 L20.5536913,16.3269438 C20.7853468,16.3269438 20.9731544,16.1410934 20.9731544,15.9118521 C20.9731544,15.6826107 20.7853468,15.4967603 20.5536913,15.4967603 Z" id="Path"></path>
            <path d="M6.53260626,19.1604711 C6.36879195,18.9983639 6.10318792,18.9983639 5.93942953,19.1604711 L5.34116331,19.7525027 L4.74289709,19.1604711 C4.57908277,18.9983639 4.31347875,18.9983639 4.14972036,19.1604711 C3.98590604,19.3225783 3.98590604,19.5854144 4.14972036,19.7474663 L4.74798658,20.3394978 L4.14972036,20.9315294 C3.98590604,21.0936366 3.98590604,21.3564727 4.14972036,21.5185246 C4.23159955,21.5996058 4.3389821,21.6401188 4.44630872,21.6401188 C4.55363535,21.6401188 4.6610179,21.5996058 4.74289709,21.5185246 L5.34116331,20.926493 L5.93942953,21.5185246 C6.02130872,21.5995505 6.12869128,21.6401188 6.2360179,21.6401188 C6.34334452,21.6401188 6.45072707,21.5996058 6.53260626,21.5185246 C6.69642058,21.3564174 6.69642058,21.0935813 6.53260626,20.9315294 L5.93434004,20.3394978 L6.53260626,19.7474663 C6.69642058,19.5854144 6.69642058,19.3225229 6.53260626,19.1604711 Z" id="Path"></path>
        </g>
    </g>
</svg>