<?xml version="1.0" encoding="UTF-8"?>
<svg width="40px" height="40px" viewBox="0 0 40 40" version="1.1" xmlns="http://www.w3.org/2000/svg" xmlns:xlink="http://www.w3.org/1999/xlink">
    <title>pro-apps / chronograph</title>
    <g id="pro-apps-/-chronograph" stroke="none" stroke-width="1" fill="none" fill-rule="evenodd">
        <circle id="Oval-Copy-10" fill="#5583C3" cx="20" cy="20" r="20"></circle>
        <g id="icon-(3)" transform="translate(9.375000, 7.500000)" fill="#FFFFFF" fill-rule="nonzero">
            <path d="M11.07882,4.21870649 C5.29991934,4.21870649 0.609797034,8.87371624 0.609797034,14.6093532 C0.609797034,20.3449903 5.29991934,25 11.07882,25 C16.8577207,25 21.547843,20.3449903 21.547843,14.6093532 C21.547843,8.87371624 16.8577207,4.21870649 11.07882,4.21870649 Z M11.07882,22.9218706 C6.46207511,22.9218706 2.70360163,19.1917324 2.70360163,14.6093532 C2.70360163,10.0268702 6.46207511,6.29683584 11.07882,6.29683584 C15.6956592,6.29683584 19.4540384,10.0268702 19.4540384,14.6093532 C19.4540384,19.1917324 15.6956592,22.9218706 11.07882,22.9218706 Z" id="Shape"></path>
            <path d="M11.7802446,8.41652778 C11.5499261,8.38514803 11.3196076,8.37496519 11.07882,8.37496519 L11.07882,14.6195361 L17.3602338,14.6195361 L17.3602338,14.6093532 C17.3602338,14.4221138 17.3497648,14.2353939 17.3288268,14.0583372 C17.0775702,11.1076014 14.7325091,8.73874173 11.7802446,8.41652778 Z" id="Path"></path>
            <path d="M19.4749765,2.15075997 C19.0666846,1.74583647 18.4071361,1.74583647 17.9988442,2.15075997 C17.5905523,2.5560991 17.5905523,3.21060594 17.9988442,3.61594507 L18.3129149,3.92745666 L17.2556378,4.96652134 C17.8522779,5.34100025 18.4176052,5.76712067 18.9305873,6.24509042 L19.7890472,5.39274567 L20.0926488,5.69407442 C20.4831434,6.10253075 21.1657237,6.11572687 21.5687811,5.69407442 C21.977073,5.28873529 21.977073,4.63422845 21.5687811,4.22888932 L19.4749765,2.15075997 Z" id="Path"></path>
            <path d="M1.78232761,5.69407442 L2.0963983,5.39274567 L3.09095548,6.38006492 C3.59346859,5.89149671 4.14832681,5.45508955 4.7345921,5.08123408 L3.57253054,3.92745666 L3.87613221,3.61594507 C4.28442411,3.21060594 4.28442411,2.5560991 3.87613221,2.15075997 C3.46784031,1.74583647 2.80829186,1.74583647 2.40009419,2.15075997 L0.306289589,4.22888932 C-0.10209653,4.63422845 -0.10209653,5.28873529 0.306289589,5.69407442 C0.709346974,6.11572687 1.39183305,6.10253075 1.78232761,5.69407442 Z" id="Path"></path>
            <path d="M11.07882,3.17964181 C11.434861,3.17964181 11.7907136,3.20042311 12.1466604,3.23138723 L12.1466604,2.07812935 L14.2823411,2.07812935 C14.8581373,2.07812935 15.3292434,1.61086197 15.3292434,1.03906468 C15.3292434,0.457188457 14.8581373,0 14.2823411,0 L7.91717509,0 C7.34137882,0 6.87027279,0.457188457 6.87027279,1.03906468 C6.87027279,1.61086197 7.34137882,2.07812935 7.91717509,2.07812935 L10.0528558,2.07812935 L10.0528558,3.23138723 C10.3983335,3.18982465 10.7333423,3.17964181 11.07882,3.17964181 Z" id="Path"></path>
        </g>
    </g>
</svg>