<?xml version="1.0" encoding="UTF-8"?>
<svg width="40px" height="40px" viewBox="0 0 40 40" version="1.1" xmlns="http://www.w3.org/2000/svg" xmlns:xlink="http://www.w3.org/1999/xlink">
    <title>pro-apps / countdown-timers</title>
    <g id="pro-apps-/-countdown-timers" stroke="none" stroke-width="1" fill="none" fill-rule="evenodd">
        <circle id="Oval-Copy-12" fill="#DF21BF" cx="20" cy="20" r="20"></circle>
        <g id="icon-(1)" transform="translate(12.500000, 7.500000)" fill="#FFFFFF" fill-rule="nonzero">
            <path d="M14.1395586,0.907663172 C14.083711,1.02709843 13.9613555,1.10311946 13.8273096,1.10166751 L0.531392767,1.10166751 C0.397447754,1.10461015 0.275176193,1.02731401 0.22267864,0.906508384 L0.0070500697,0.194004342 C-0.0259422798,0.087763869 0.0600734886,0 0.197934378,0 L14.1807991,0 C14.3174817,0 14.4023191,0.087763869 14.3669702,0.194004342 L14.1395586,0.907663172 Z" id="Path"></path>
            <path d="M14.1395586,24.0923368 C14.083711,23.9729016 13.9613555,23.8968805 13.8273096,23.8983325 L0.531392767,23.8983325 C0.397447754,23.8953899 0.275176193,23.972686 0.22267864,24.0934916 L0.0070500697,24.8048409 C-0.0259422798,24.9122361 0.0600734886,25 0.197934378,25 L14.1807991,25 C14.3174817,25 14.4023191,24.9122361 14.3669702,24.8059957 L14.1395586,24.0923368 Z" id="Path"></path>
            <path d="M13.8225964,24.51037 L0.552602135,24.51037 L0.580881292,17.6636334 C0.816540931,15.4926325 2.65468612,13.6415077 5.24812045,12.9994457 L5.25872513,12.9994457 C5.82430827,12.8839669 6.02933215,12.6125918 6.02933215,12.4624694 C6.01180115,12.2823437 5.87228219,12.1365879 5.68998227,12.1079496 C2.88798916,11.5836759 0.834215404,9.65056123 0.580881292,7.34791445 L0.552602135,0.496558733 L13.8225964,0.496558733 L13.7943173,7.34791445 C13.5409832,9.64940644 11.4919226,11.5802116 8.69228608,12.10564 C8.50968915,12.1372873 8.36959148,12.2820874 8.34704471,12.4624694 C8.34704471,12.6264493 8.55089029,12.8654903 9.12472152,13.0017553 C11.7169775,13.6438173 13.556301,15.494942 13.7943173,17.665943 L13.8225964,24.51037 Z M1.21480572,23.8671532 L13.1662843,23.8671532 L13.1662843,18.1405608 L13.1603928,17.9927479 C13.0826252,15.9776433 11.3929455,14.2200564 8.96682956,13.6195667 C7.78853136,13.3377985 7.69073261,12.6576285 7.69073261,12.4555407 C7.71133149,11.9771546 8.05997772,11.5732099 8.53792901,11.4739711 L8.55913838,11.4739711 C11.1855651,10.9843411 13.077912,9.14938334 13.1603928,7.01187122 L13.1662843,6.86405839 L13.1662843,1.13284678 L1.20891423,1.13284678 L1.20891423,6.85943924 L1.20891423,7.00725207 C1.2913951,9.14476419 3.18374201,10.9797219 5.81134699,11.4693519 L5.81959507,11.4693519 C6.30575478,11.560703 6.66275697,11.9695342 6.67975276,12.4543859 C6.67975276,12.8654903 6.34393777,13.4163241 5.39776432,13.6195667 C2.97518323,14.2223659 1.2961083,15.9787981 1.21480572,17.9927479 L1.21480572,18.1405608 L1.21480572,23.8671532 Z" id="Shape"></path>
            <path d="M12.8021902,20.0886877 C12.7138178,17.6312994 9.48999396,16.197053 7.52105767,15.2916994 L7.52105767,11.9855421 C7.52105767,11.6887616 7.82034541,11.2926694 8.29402129,11.1771906 C8.32347874,11.1771906 8.33172683,11.1691071 8.32465704,11.1667975 C10.4043534,10.8203612 12.0857849,9.55009469 12.7267791,7.88835512 L1.64959776,7.88835512 C2.29059198,9.55124948 3.9732018,10.8238256 6.05525471,11.1667975 C6.05525471,11.1667975 6.05525471,11.1667975 6.08589047,11.1771906 C6.53717868,11.2845859 6.82939663,11.6460345 6.85531919,11.9381958 L6.85531919,15.2870802 C5.04073997,16.1092891 1.66138074,17.6220611 1.57300837,20.0886877 L1.57300837,20.0886877 L1.57300837,23.9110352 L12.8116166,23.9110352 L12.8116166,20.0886877 L12.8021902,20.0886877 Z" id="Path"></path>
        </g>
    </g>
</svg>