<?xml version="1.0" encoding="UTF-8"?>
<svg width="40px" height="40px" viewBox="0 0 40 40" version="1.1" xmlns="http://www.w3.org/2000/svg" xmlns:xlink="http://www.w3.org/1999/xlink">
    <title>pro-apps / homeyduino</title>
    <g id="pro-apps-/-homeyduino" stroke="none" stroke-width="1" fill="none" fill-rule="evenodd">
        <circle id="Oval-Copy-7" fill="#FFFFFF" cx="20" cy="20" r="18.75"></circle>
        <g id="icon-(6)" fill="#338484" fill-rule="nonzero">
            <path d="M12.3748125,15.3873437 C12.2907586,15.3873437 12.207208,15.3893518 12.1241875,15.3933437 C12.041167,15.3973357 11.9586654,15.4033008 11.8767813,15.4111875 C11.7948971,15.4190742 11.7136139,15.4288782 11.6329688,15.4405626 C11.5523235,15.4522467 11.4723346,15.465803 11.3930312,15.4811875 C11.3137278,15.496572 11.235109,15.5137938 11.1572499,15.5327813 C11.0793912,15.5517688 11.0022802,15.5725379 10.9259688,15.5950312 C10.8496574,15.6175245 10.7741611,15.6417232 10.6995,15.667625 C10.6248389,15.6935269 10.5510019,15.7211306 10.4780938,15.7503437 C10.4051856,15.779557 10.3332086,15.8103853 10.2621563,15.8428125 C10.1911038,15.8752398 10.1210002,15.9092683 10.0519062,15.9448125 C9.98281248,15.9803566 9.91472,16.0174368 9.84768752,16.056 C9.78065504,16.0945632 9.7146808,16.134608 9.64981248,16.1760944 C9.58494416,16.2175792 9.521164,16.2605008 9.45856256,16.3048128 C9.39596112,16.3491232 9.33454416,16.3948352 9.27431248,16.4418752 C9.2140808,16.4889136 9.15504048,16.5372672 9.09728128,16.5869376 C9.03952208,16.636608 8.98302768,16.6875776 8.92784368,16.7397808 C8.87265984,16.791984 8.81878704,16.8454224 8.76628128,16.9000624 C8.71377536,16.9547024 8.6626312,17.010552 8.61290624,17.0675312 C8.56318128,17.1245104 8.51487264,17.182624 8.4680312,17.2418432 C8.42118992,17.301064 8.37582368,17.3613856 8.3319688,17.4227504 C8.28811392,17.4841152 8.2457656,17.5465248 8.205,17.6099376 C8.1642344,17.6733504 8.1250424,17.7377632 8.0874688,17.8031248 C8.0498952,17.8684864 8.01396624,17.9347856 7.97968752,18.002 C7.94540864,18.0692144 7.91278752,18.1373424 7.88190624,18.206312 C7.85102496,18.2752832 7.8218808,18.3451216 7.7945,18.4157504 C7.7671192,18.4863792 7.74149632,18.5578096 7.71771872,18.63 C7.69394112,18.7021904 7.67200912,18.775128 7.65193744,18.8487808 C7.63186576,18.9224352 7.61366912,18.996792 7.59740624,19.0718128 C7.58114336,19.1468336 7.5667888,19.2225232 7.55443744,19.2988128 C7.54208608,19.3751024 7.53174336,19.4520064 7.52340624,19.5294688 C7.51506928,19.6069312 7.5087512,19.6849312 7.5045312,19.7634688 C7.50031136,19.8420064 7.49818752,19.9210784 7.49818752,20.0005936 C7.49818752,20.0800928 7.50031312,20.1591024 7.5045312,20.2376256 C7.50874944,20.3161472 7.5150416,20.394176 7.52337504,20.4716256 C7.53170848,20.5490752 7.54209152,20.6259712 7.55443744,20.7022496 C7.56678336,20.7785296 7.58108816,20.854176 7.59734368,20.9291872 C7.61359936,21.0042 7.63178144,21.0785728 7.65184368,21.1522192 C7.67190608,21.2258656 7.69385872,21.298784 7.71762496,21.370968 C7.74139136,21.4431536 7.76697616,21.5145936 7.79434368,21.5852192 C7.8217112,21.6558432 7.85085296,21.7256576 7.88171872,21.7946256 C7.91258464,21.863592 7.94517616,21.9317248 7.97943744,21.9989376 C8.01369888,22.0661504 8.04963344,22.1324512 8.08718752,22.1978128 C8.1247416,22.2631744 8.16391232,22.3275872 8.20465632,22.391 C8.24540016,22.4544128 8.28773168,22.5168208 8.33156256,22.5781872 C8.37539344,22.6395536 8.42074736,22.6998704 8.46756256,22.7590944 C8.5143776,22.8183168 8.56264736,22.876456 8.61234368,22.9334368 C8.66204016,22.9904192 8.71315008,23.0462624 8.76562496,23.1009056 C8.8181,23.1555504 8.87194304,23.2089792 8.92709376,23.2611872 C8.98224448,23.3133952 9.03871392,23.3643872 9.09643744,23.4140624 C9.15416112,23.4637376 9.21311888,23.512112 9.27331248,23.5591568 C9.33350608,23.6062016 9.3949392,23.6519024 9.4575,23.6962192 C9.5200608,23.740536 9.58376848,23.7834768 9.64859376,23.824968 C9.71341904,23.8664608 9.77935696,23.9064928 9.84634368,23.9450624 C9.91333056,23.983632 9.98136064,24.0207312 10.0504062,24.0562816 C10.1194518,24.091832 10.1894986,24.125848 10.2605,24.1582816 C10.3315014,24.1907136 10.4034579,24.2215632 10.4763125,24.2507808 C10.549167,24.28 10.6229264,24.307592 10.6975312,24.3335008 C10.772136,24.3594048 10.8475915,24.3836272 10.9238437,24.4061248 C11.000096,24.4286224 11.0771406,24.449384 11.1549374,24.4683744 C11.2327344,24.4873664 11.3112926,24.5045808 11.3905312,24.519968 C11.4697699,24.5353568 11.5497037,24.5489376 11.6302813,24.5606256 C11.7108587,24.572312 11.7920613,24.582112 11.873875,24.59 C11.9556886,24.597888 12.0381155,24.6038512 12.1210626,24.6078432 C12.2040094,24.6118368 12.2874914,24.6138752 12.3714688,24.6138752 C12.5004362,24.6138752 12.6308094,24.6088496 12.7616563,24.599344 C12.892503,24.5898368 13.0238261,24.5758224 13.1546875,24.5578432 C13.2481395,24.5444608 13.3404432,24.5286368 13.431625,24.5104688 C13.5228069,24.4923008 13.612841,24.4717872 13.7017501,24.4490944 C13.7906589,24.4264 13.8784294,24.40152 13.9650626,24.3745632 C14.0516955,24.3476064 14.1372082,24.318584 14.2215626,24.2876256 C14.3059168,24.2566656 14.3891147,24.2237632 14.4711875,24.1890624 C14.5532603,24.1543632 14.6342117,24.1178672 14.714,24.079688 C14.7937883,24.0415072 14.8724365,24.001648 14.9499374,23.9602496 C15.0274386,23.9188512 15.1037891,23.8759184 15.179,23.8315632 C15.2542109,23.7872064 15.3282696,23.7414272 15.4011875,23.6943744 C15.4741054,23.6473232 15.5458779,23.5989872 15.6165,23.5495008 C15.6871221,23.5000112 15.7565829,23.4493792 15.8249062,23.3977184 C15.8932296,23.3460592 15.9604163,23.2933856 16.0264368,23.2398128 C16.0924592,23.18624 16.1573456,23.1317856 16.2210624,23.0765632 C16.2847792,23.0213392 16.3473392,22.9653328 16.4087504,22.9087184 C16.5315696,22.7954912 16.6497696,22.6797504 16.763344,22.5625312 C16.8769184,22.445312 16.9858512,22.3266224 17.0901568,22.2075008 C17.1944608,22.088376 17.294144,21.9688416 17.3891568,21.8499056 C17.4841696,21.7309712 17.57452,21.6126576 17.6602192,21.496 C17.7459168,21.3793424 17.826952,21.2643216 17.903312,21.152032 C17.9796736,21.0397408 18.051344,20.9301776 18.118344,20.824344 C18.185344,20.7185104 18.247664,20.6164128 18.3052816,20.5191248 C18.3628976,20.4218384 18.4158208,20.3293376 18.464032,20.242688 C18.5122416,20.1560368 18.5557504,20.0752368 18.5945312,20.001312 C18.555856,19.9274912 18.5124432,19.846776 18.464312,19.7601872 C18.4161824,19.6735984 18.3633408,19.581136 18.3057808,19.4838752 C18.2482224,19.3866144 18.1859312,19.2845248 18.118968,19.178688 C18.0520064,19.0728496 17.9803728,18.963256 17.904032,18.8509376 C17.8276896,18.7386192 17.7466624,18.6235792 17.660968,18.5068752 C17.5752752,18.3901712 17.4848976,18.2718048 17.3898752,18.1528128 C17.2948528,18.0338192 17.195168,17.9142176 17.0908432,17.795032 C16.98652,17.6758448 16.8775696,17.5570656 16.763968,17.4397808 C16.650368,17.3224976 16.5321328,17.2066912 16.4092816,17.0934064 C16.3478544,17.0367632 16.2852656,16.9807504 16.2215312,16.9255008 C16.1577968,16.870248 16.0929136,16.815784 16.0268752,16.7621872 C15.9608357,16.708592 15.8936534,16.6558672 15.8253125,16.6041872 C15.7569715,16.5525088 15.687452,16.5018752 15.6168125,16.4523744 C15.546173,16.4028736 15.4744037,16.3545296 15.4014688,16.3074688 C15.3285338,16.260408 15.2544459,16.214608 15.1792187,16.1702496 C15.1039915,16.1258912 15.0276101,16.0829568 14.9500938,16.0415632 C14.8725774,16.000168 14.7939272,15.9603237 14.714125,15.9221563 C14.6343227,15.8839888 14.5533662,15.8474917 14.4712813,15.8128125 C14.3891963,15.7781333 14.3059896,15.7452726 14.221625,15.7143437 C14.1372605,15.6834149 14.0517659,15.6544166 13.965125,15.6275 C13.878484,15.6005834 13.7906954,15.5757675 13.7017813,15.553125 C13.612867,15.5304826 13.5228093,15.5100438 13.431625,15.4919374 C13.3404408,15.4738312 13.2481386,15.4580579 13.1546875,15.4447501 C13.0253558,15.4252125 12.8946054,15.4108414 12.7640938,15.401375 C12.6335821,15.3919086 12.503299,15.3873437 12.3748125,15.3873437 Z M26.702968,17.8177808 L28.1409056,17.8177808 L26.702968,17.8177808 Z M10.3534688,19.2836256 L14.8007501,19.2836256 L14.8007501,20.716688 L10.3534688,20.716688 L10.3534688,19.2836256 Z" id="path934"></path>
            <path d="M27.6286256,15.3866563 C27.50024,15.3866563 27.3701856,15.3912434 27.2398128,15.4005312 C27.1094384,15.4098192 26.97876,15.4238014 26.8490944,15.442625 C26.7556288,15.4559778 26.6632896,15.4717939 26.5720944,15.4899374 C26.4808976,15.5080811 26.3908288,15.528577 26.3019056,15.5512499 C26.212984,15.573923 26.1252096,15.5987778 26.0385632,15.6257187 C25.9519152,15.6526597 25.8664,15.6816774 25.782032,15.712625 C25.6976624,15.7435725 25.6144304,15.7764637 25.532344,15.8111563 C25.4502576,15.845849 25.3693024,15.8823549 25.2895008,15.9205312 C25.209696,15.9587075 25.1310464,15.9985389 25.0535312,16.0399376 C24.976016,16.081336 24.8996624,16.1242976 24.8244368,16.168656 C24.7492128,16.213016 24.6751184,16.2587856 24.6021872,16.3058432 C24.529256,16.3529024 24.4574784,16.4012528 24.3868432,16.4507504 C24.316208,16.5002464 24.2467104,16.5508896 24.1783744,16.6025632 C24.1100384,16.6542352 24.0428768,16.706912 23.9768432,16.7604992 C23.9108096,16.8140896 23.8459168,16.8685712 23.7821872,16.9238128 C23.7184592,16.9790544 23.6558896,17.0350544 23.5944688,17.091688 C23.4716272,17.2049552 23.3534064,17.3207632 23.2398128,17.438032 C23.1262192,17.5552992 23.0172576,17.6740432 22.9129376,17.7932192 C22.808616,17.9123952 22.7089312,18.032008 22.6139056,18.151 C22.5188816,18.269992 22.4285184,18.388344 22.3428128,18.5050624 C22.2571056,18.6217808 22.1760512,18.7368672 22.099688,18.8492192 C22.0233232,18.9615712 21.951624,19.0712 21.8846256,19.1770944 C21.8176272,19.2829872 21.755328,19.3851232 21.6977184,19.4824688 C21.6401088,19.5798144 21.5871968,19.6723584 21.539,19.7590624 C21.4908032,19.8457664 21.4473248,19.9266528 21.4085632,20.0006256 C21.4473216,20.0744432 21.4908048,20.1551488 21.539,20.2417184 C21.5871952,20.328288 21.6401104,20.4207088 21.6977184,20.5179376 C21.7553264,20.6151664 21.8176288,20.7172048 21.8846256,20.823 C21.9516208,20.9287952 22.023296,21.0383552 22.099656,21.1506256 C22.1760176,21.2628944 22.257048,21.37788 22.3427504,21.4945312 C22.4284528,21.6111824 22.518824,21.729496 22.6138432,21.8484368 C22.708864,21.9673792 22.8085296,22.0869536 22.9128432,22.2060944 C23.0171568,22.3252336 23.1261344,22.4439424 23.2397184,22.5611872 C23.3533024,22.678432 23.4715136,22.7942112 23.594344,22.9074688 C23.6557584,22.9640976 23.7183088,23.020104 23.782032,23.075344 C23.8457536,23.130584 23.9106288,23.1850672 23.976656,23.238656 C24.0426832,23.2922464 24.1098912,23.3449168 24.1782192,23.3965936 C24.2465472,23.448272 24.3159984,23.4989328 24.3866256,23.5484368 C24.4572512,23.5979424 24.5290464,23.6463056 24.601968,23.6933744 C24.6748912,23.7404448 24.7489408,23.7862208 24.8241568,23.8305936 C24.8993712,23.8749664 24.9757456,23.9179296 25.0532496,23.959344 C25.1307536,24.0007584 25.2093968,24.0406176 25.2891872,24.0788128 C25.3689776,24.1170064 25.4499248,24.153536 25.532,24.1882496 C25.6140752,24.2229632 25.6972704,24.2558736 25.7816256,24.2868432 C25.8659808,24.3178144 25.9514928,24.3468464 26.0381248,24.3738128 C26.1247584,24.4007792 26.2125296,24.4256736 26.3014368,24.4483744 C26.3903456,24.4710752 26.4803824,24.491576 26.5715632,24.5097504 C26.6627424,24.5279232 26.7550512,24.5437712 26.8484992,24.5571568 C26.979392,24.5751632 27.1107088,24.5891808 27.2414064,24.598688 C27.372104,24.6081936 27.502192,24.6131872 27.6305632,24.6131872 C27.714504,24.6131872 27.79796,24.6111792 27.8808752,24.6071872 C27.9637904,24.6031952 28.0461536,24.5972304 28.1279376,24.589344 C28.2097216,24.581456 28.2909168,24.5716528 28.3714688,24.559968 C28.4520208,24.5482832 28.5319408,24.5346976 28.6111568,24.519312 C28.6903712,24.503928 28.76888,24.4867392 28.846656,24.4677504 C28.924432,24.4487616 29.0014528,24.4279936 29.077688,24.4055008 C29.1539216,24.3830048 29.2293792,24.3587776 29.303968,24.3328752 C29.3785584,24.3069728 29.4522832,24.2793712 29.5251248,24.2501568 C29.5979664,24.2209424 29.6699168,24.1901168 29.7409056,24.157688 C29.811896,24.1252592 29.8819328,24.0912336 29.950968,24.055688 C30.0200048,24.0201424 30.0880208,23.9830672 30.155,23.9444992 C30.2219792,23.9059344 30.2879312,23.8658944 30.3527504,23.8244064 C30.4175696,23.7829184 30.481256,23.74 30.5438128,23.695688 C30.6063696,23.6513744 30.6677776,23.6056656 30.727968,23.5586256 C30.78816,23.511584 30.8471536,23.4632016 30.9048752,23.4135312 C30.9625968,23.3638608 31.0190688,23.3128928 31.0742192,23.260688 C31.1293696,23.2084832 31.1831808,23.1550464 31.235656,23.1004064 C31.2881328,23.0457664 31.3392704,22.9899168 31.388968,22.9329376 C31.4386672,22.8759584 31.4869328,22.8178464 31.5337504,22.7586256 C31.580568,22.6994032 31.6259168,22.6390848 31.6697504,22.5777184 C31.713584,22.5163536 31.7559088,22.453944 31.796656,22.3905312 C31.8374032,22.3271184 31.8765664,22.2627056 31.9141248,22.197344 C31.9516832,22.1319808 31.98764,22.0656528 32.0219056,21.9984368 C32.0561712,21.9312224 32.0887552,21.8631264 32.1196256,21.7941568 C32.1504944,21.7251856 32.1796592,21.6553472 32.207032,21.5847184 C32.2344032,21.5140896 32.2599792,21.4426576 32.2837504,21.3704688 C32.30752,21.29828 32.3294656,21.2253408 32.3495312,21.151688 C32.3695968,21.0780352 32.3878032,21.0036752 32.4040624,20.928656 C32.4203216,20.8536368 32.4346512,20.777944 32.447,20.701656 C32.4593488,20.625368 32.469696,20.5484912 32.478032,20.471032 C32.4863664,20.3935712 32.4926864,20.3155344 32.4969056,20.237 C32.5011248,20.1584656 32.5032496,20.0794176 32.5032496,19.9999056 C32.5032496,19.9203936 32.5011248,19.8413472 32.4969056,19.7628128 C32.492688,19.6842784 32.4863648,19.606272 32.478032,19.5288128 C32.4696976,19.451352 32.4593472,19.3744448 32.447,19.2981568 C32.4346528,19.2218688 32.4203184,19.146176 32.4040624,19.0711568 C32.3878064,18.9961376 32.3696256,18.9217776 32.3495632,18.8481248 C32.3294992,18.774472 32.3075488,18.7015328 32.2837808,18.629344 C32.2600128,18.5571552 32.234432,18.4857216 32.2070624,18.4150944 C32.1796928,18.3444656 32.1505248,18.2746576 32.119656,18.205688 C32.0887872,18.1367168 32.0562032,18.0685904 32.0219376,18.0013744 C31.987672,17.93416 31.9517456,17.8678624 31.9141872,17.8024992 C31.8766288,17.7371376 31.8374368,17.6727248 31.796688,17.609312 C31.7559376,17.5459008 31.7136192,17.4834896 31.6697808,17.4221248 C31.625944,17.36076 31.5806032,17.30044 31.5337808,17.2412192 C31.4869584,17.1819984 31.4386736,17.1238544 31.388968,17.0668752 C31.339264,17.009896 31.2881408,16.9540784 31.235656,16.8994368 C31.1831712,16.8447968 31.1293184,16.79136 31.0741568,16.7391568 C31.0189952,16.686952 30.9625168,16.6359824 30.9047808,16.586312 C30.8470448,16.5366416 30.7880512,16.4882592 30.7278432,16.4412192 C30.6676368,16.3941792 30.6062016,16.3484688 30.5436256,16.3041568 C30.4810496,16.2598448 30.4173424,16.2169248 30.3524992,16.1754368 C30.2876592,16.1339504 30.2216928,16.0939088 30.154688,16.055344 C30.0876832,16.0167792 30.0196272,15.9797013 29.9505632,15.9441563 C29.8814976,15.9086112 29.8114288,15.8745845 29.7404064,15.8421563 C29.669384,15.809728 29.5974096,15.7789016 29.5245312,15.7496875 C29.4516528,15.7204734 29.37788,15.6928714 29.3032496,15.6669688 C29.2286208,15.6410661 29.1531232,15.6168691 29.0768432,15.594375 C29.0005648,15.571881 28.9234816,15.5511131 28.845656,15.532125 C28.7678304,15.5131368 28.6892704,15.4959163 28.61,15.4805312 C28.5307296,15.4651462 28.4507664,15.4515909 28.3701568,15.4399062 C28.2895456,15.4282216 28.2082864,15.4184182 28.1264368,15.4105312 C28.0445888,15.4026442 27.9621408,15.3966797 27.8791568,15.3926875 C27.7961712,15.3886954 27.7126432,15.3866563 27.6286256,15.3866563 Z M26.683968,17.7942496 L28.1218752,17.7942496 L28.1218752,19.3020624 L29.6275008,19.3020624 L29.6275008,20.7351248 L28.1218752,20.7351248 L28.1218752,22.242688 L26.683968,22.242688 L26.683968,20.7351248 L25.179,20.7351248 L25.179,19.3020624 L26.683968,19.3020624 L26.683968,17.7942496 Z" id="path932"></path>
            <path d="M20,0 C8.954305,0 0,8.954305 0,20 C0,31.045695 8.954305,40 20,40 C25.3043298,40 30.3914081,37.8928632 34.1421356,34.1421356 C37.8928632,30.3914081 40,25.3043298 40,20 C40,8.954305 31.045695,0 20,0 Z M12.3748437,12.8554374 C12.4689469,12.8554374 12.5634674,12.8571203 12.6582187,12.8605 C12.7529701,12.8638797 12.847955,12.8689291 12.9429688,12.8756875 C13.0379824,12.8824458 13.1330165,12.890895 13.2279062,12.9010312 C13.322796,12.9111674 13.4175264,12.922987 13.5119062,12.9365 C13.6110976,12.9506459 13.709264,12.9666053 13.8064062,12.9842499 C13.9035485,13.0018947 13.9996806,13.0212501 14.0947813,13.0422499 C14.1898819,13.0632499 14.283965,13.0858826 14.3770312,13.1100938 C14.4700976,13.134305 14.5621482,13.1600962 14.6531875,13.187375 C14.7442269,13.2146538 14.8342614,13.2434224 14.9232813,13.273625 C15.0123011,13.3038275 15.1003048,13.3354549 15.1873125,13.3684374 C15.2743202,13.40142 15.3603094,13.4357562 15.4453125,13.471375 C15.5303155,13.5069938 15.6143381,13.5438888 15.6973437,13.582 C15.7803494,13.6201112 15.8623594,13.6594464 15.943375,13.6999062 C16.0243904,13.7403661 16.1044048,13.7819602 16.1834368,13.824625 C16.2624704,13.8672898 16.340504,13.9110242 16.4175632,13.9557501 C16.4946208,14.0004758 16.5706912,14.0462005 16.6457808,14.0928437 C16.7959616,14.1861301 16.942208,14.2830946 17.0845632,14.3831875 C17.2269168,14.4832805 17.3653824,14.5865006 17.499968,14.6922499 C17.6345552,14.7979994 17.7652784,14.9062757 17.8921568,15.0165312 C18.0190336,15.1267869 18.1420528,15.2390136 18.2612816,15.352625 C18.3805104,15.4662365 18.4959552,15.5812453 18.6075936,15.6970626 C18.719232,15.8128797 18.82708,15.9295024 18.9311872,16.0463744 C19.0352944,16.163248 19.1356464,16.2803472 19.2322816,16.3971248 C19.3289168,16.5139024 19.42184,16.6303728 19.5110624,16.7459056 C19.6002848,16.8614384 19.6858176,16.9760496 19.767688,17.0891872 C19.8495568,17.2023248 19.9277696,17.3139712 20.002344,17.4235632 C20.0766928,17.3139712 20.154672,17.20232 20.236344,17.0891872 C20.3180144,16.9760544 20.4033552,16.8614304 20.4924064,16.7459056 C20.5814576,16.6303824 20.6742288,16.5139536 20.7707184,16.3971872 C20.867208,16.2804208 20.9674208,16.163328 21.0714064,16.0464688 C21.175392,15.9296093 21.2831472,15.8129907 21.394688,15.6971875 C21.5062272,15.5813843 21.621568,15.4664102 21.7407184,15.3528125 C21.8598704,15.2392147 21.9828352,15.126993 22.109656,15.0167501 C22.2364768,14.906507 22.3671392,14.7982389 22.501688,14.6925 C22.6362352,14.5867611 22.7746672,14.4835544 22.917,14.3834688 C23.0593328,14.283383 23.2055728,14.1864082 23.3557504,14.093125 C23.4308384,14.0464834 23.5069088,14.0007566 23.583968,13.9560312 C23.6610288,13.9113058 23.7390864,13.8675718 23.8181248,13.8249062 C23.8971632,13.7822406 23.9771936,13.7406498 24.0582192,13.7001875 C24.1392432,13.6597253 24.2212624,13.6203965 24.3042816,13.5822813 C24.3872992,13.5441661 24.4713248,13.5072806 24.556344,13.4716563 C24.6413632,13.4360318 24.7273792,13.4016774 24.8144064,13.3686875 C24.9014336,13.3356974 24.9894592,13.3040557 25.0784992,13.2738437 C25.1675408,13.2436318 25.257592,13.2148528 25.348656,13.1875626 C25.43972,13.1602723 25.5317824,13.1344749 25.6248752,13.1102499 C25.717968,13.0860251 25.812088,13.0633595 25.9072192,13.0423437 C26.0023488,13.0213278 26.0985136,13.0019445 26.195688,12.9842813 C26.2928608,12.9666181 26.391056,12.9506669 26.4902816,12.9365 C26.5849824,12.9229286 26.6799328,12.9110845 26.775,12.9009374 C26.8700672,12.8907904 26.9652544,12.8823688 27.060344,12.875625 C27.1554336,12.8688813 27.2504496,12.8638301 27.3452192,12.8604688 C27.4399872,12.8571074 27.5344912,12.8554374 27.6285936,12.8554374 C27.7519824,12.8554374 27.8749104,12.8582949 27.9972816,12.864 C28.1196528,12.8697051 28.2414704,12.8782502 28.362656,12.8895938 C28.4838416,12.9009373 28.6043856,12.9150846 28.7242192,12.932 C28.8440528,12.9489154 28.9631856,12.9685797 29.0815008,12.991 C29.1998144,13.0134203 29.3173104,13.0385789 29.4339376,13.0664374 C29.5505648,13.0942962 29.66632,13.1248635 29.7810944,13.1580938 C29.8958672,13.191324 30.0096848,13.2272147 30.1224368,13.2657501 C30.2351904,13.3042853 30.346872,13.3454765 30.4574368,13.3892499 C30.5680032,13.4330235 30.6774464,13.4793987 30.785656,13.5283437 C30.8938656,13.5772888 31.0008432,13.6287939 31.1065312,13.6828437 C31.2122192,13.7368936 31.3165952,13.7934746 31.4195936,13.8525626 C31.522592,13.9116504 31.6242016,13.9732531 31.724344,14.0373125 C31.8244848,14.1013718 31.9231632,14.1678797 32.0202816,14.2368437 C32.1174,14.3058078 32.2129792,14.3772291 32.3069056,14.4510312 C32.4008336,14.5248334 32.4931184,14.6010203 32.583688,14.6795938 C32.6742576,14.7581672 32.763112,14.8391282 32.8501568,14.9224062 C32.9382,15.0066331 33.0237552,15.0926429 33.1068128,15.1803437 C33.1898704,15.2680446 33.2704352,15.3574238 33.3484368,15.4484374 C33.42644,15.539451 33.501872,15.632085 33.5747504,15.7262499 C33.6476288,15.820415 33.7179392,15.9161262 33.7856256,16.0132816 C33.8533104,16.1104368 33.9183888,16.209048 33.9808128,16.309032 C34.0432368,16.4090144 34.103,16.5103488 34.1600944,16.613 C34.2171872,16.7156512 34.2715872,16.8195936 34.3232816,16.9247504 C34.3749744,17.0299072 34.4239616,17.13628 34.4701872,17.2437808 C34.5164128,17.3512832 34.5599056,17.4599392 34.6005936,17.5696256 C34.6412816,17.6793104 34.679168,17.7900432 34.7142496,17.9017504 C34.7493312,18.0134576 34.7815936,18.12612 34.811,18.239688 C34.8404064,18.353256 34.8669616,18.4677328 34.8906256,18.583 C34.914288,18.6982672 34.935056,18.81432 34.9529056,18.9311248 C34.9707568,19.0479312 34.9856864,19.1654736 34.997656,19.283656 C35.0096256,19.4018384 35.0186368,19.5206656 35.024656,19.6400624 C35.0306752,19.7594608 35.0337184,19.879424 35.0337184,19.9998752 C35.0337184,20.120176 35.0306928,20.2400304 35.024688,20.359312 C35.0186832,20.4785952 35.0096928,20.5973088 34.9977504,20.7154064 C34.985808,20.833504 34.9709072,20.9509712 34.9530944,21.0677184 C34.93528,21.1844656 34.9145536,21.300488 34.8909376,21.4157184 C34.86732,21.5309488 34.8408224,21.6453888 34.8114688,21.7589376 C34.7821152,21.8724848 34.7498992,21.985144 34.7148752,22.0968432 C34.6798512,22.2085424 34.6420016,22.3192848 34.6013744,22.428968 C34.5607488,22.5386528 34.5173504,22.6472784 34.4711872,22.7547808 C34.425024,22.8622848 34.3761008,22.968656 34.3244688,23.0738128 C34.2728368,23.178968 34.2185024,23.28292 34.1614688,23.3855632 C34.1044352,23.4882048 34.0447136,23.5895376 33.982344,23.6895008 C33.9199744,23.7894624 33.8549504,23.8880704 33.787312,23.9851872 C33.7196752,24.0823056 33.6494016,24.1779568 33.5765632,24.2720624 C33.5037232,24.366168 33.4283184,24.458728 33.350344,24.549656 C33.2723696,24.640584 33.1918544,24.7298528 33.1088128,24.8174368 C33.0257712,24.9050208 32.9401984,24.9908944 32.8521568,25.074968 C32.7649568,25.1583504 32.6759664,25.2393904 32.5852816,25.3180624 C32.4945968,25.3967344 32.4022272,25.4730432 32.3082192,25.5469376 C32.2142112,25.620832 32.1185744,25.6923248 32.0214064,25.7613744 C31.9242384,25.8304256 31.8255392,25.897048 31.7253744,25.9611872 C31.6252112,26.025328 31.523592,26.0869936 31.4205936,26.1461568 C31.3175952,26.2053184 31.2132,26.261976 31.1075312,26.3160944 C31.001864,26.3702128 30.8949248,26.4218048 30.7867504,26.4708128 C30.6785744,26.5198192 30.569176,26.5662336 30.458656,26.6100624 C30.3481376,26.6538912 30.2364816,26.6951344 30.1237808,26.7337184 C30.0110816,26.772304 29.8973424,26.8082272 29.7826256,26.8415008 C29.6679072,26.8747728 29.5522288,26.9053872 29.435656,26.9332816 C29.3190848,26.961176 29.2016064,26.9863632 29.083344,27.0088128 C28.96508,27.0312624 28.8460096,27.0509696 28.7262192,27.0679056 C28.6064272,27.0848432 28.4859376,27.099016 28.3647808,27.1103744 C28.2436256,27.1217328 28.1218272,27.130288 27.9994688,27.136 C27.8771104,27.141712 27.7541776,27.1445632 27.6307808,27.1445632 C27.536744,27.1445632 27.4421424,27.142888 27.3472192,27.1394688 C27.252296,27.1360496 27.157048,27.1309072 27.0617184,27.124 C26.9663904,27.1170928 26.8709728,27.1084048 26.7757184,27.0979376 C26.680464,27.0874704 26.5853872,27.0752208 26.490688,27.0611248 C26.3914544,27.0469616 26.2932448,27.0310048 26.1960624,27.013344 C26.09888,26.9956832 26.0027312,26.9763264 25.9075936,26.955312 C25.812456,26.9342992 25.71832,26.9116304 25.6252192,26.8874064 C25.5321184,26.8631824 25.44004,26.837384 25.348968,26.8100944 C25.2578976,26.7828032 25.1678304,26.754024 25.0787808,26.7238128 C24.9897328,26.6936 24.9016896,26.66196 24.814656,26.628968 C24.7276224,26.5959776 24.6416192,26.5616576 24.5565936,26.526032 C24.471568,26.4904048 24.3875248,26.4534912 24.3044992,26.4153744 C24.2214752,26.3772576 24.1394688,26.3379328 24.0584368,26.2974688 C23.9774064,26.2570048 23.8973568,26.2153872 23.818312,26.1727184 C23.7392688,26.1300512 23.6612208,26.0863216 23.5841568,26.0415936 C23.5070912,25.9968656 23.431,25.951144 23.3559056,25.9044992 C23.20572,25.8112112 23.0594976,25.714216 22.9171568,25.6141248 C22.7748144,25.5140336 22.6363664,25.4108384 22.5018128,25.3050944 C22.3672576,25.1993488 22.2365744,25.0910592 22.1097504,24.9808128 C21.9829248,24.8705648 21.8599664,24.7583504 21.7408128,24.6447504 C21.6216592,24.5311488 21.50632,24.4161792 21.3947808,24.3003744 C21.2832416,24.1845712 21.1754832,24.067952 21.0715008,23.9510944 C20.9675168,23.8342368 20.867328,23.717136 20.7708432,23.6003744 C20.67436,23.4836128 20.5816064,23.3671712 20.4925632,23.251656 C20.40352,23.1361408 20.31816,23.0215568 20.2364992,22.9084368 C20.15484,22.7953184 20.0768656,22.6836672 20.0025312,22.5740944 C19.9279616,22.6836656 19.8497712,22.7953024 19.7679056,22.9084368 C19.6860416,23.0215712 19.6005008,23.1362048 19.5112816,23.2517504 C19.4220608,23.3672944 19.3291648,23.48376 19.2325312,23.6005632 C19.1358976,23.7173648 19.035544,23.8344992 18.9314368,23.9514064 C18.8273312,24.0683136 18.7194496,24.184984 18.6078128,24.3008432 C18.4961744,24.416704 18.38076,24.531776 18.2615312,24.6454368 C18.1423024,24.7590992 18.0192832,24.8713776 17.8924064,24.981688 C17.765528,25.0919968 17.6348048,25.20032 17.5002192,25.3061248 C17.365632,25.4119312 17.2271664,25.5151952 17.0848128,25.615344 C16.9424592,25.7154928 16.7962112,25.8125344 16.646032,25.9058752 C16.5709408,25.9525456 16.4948704,25.99828 16.4178128,26.043032 C16.3407552,26.0877824 16.26272,26.13156 16.183688,26.1742496 C16.1046544,26.2169392 16.02464,26.2585488 15.943625,26.299032 C15.8626098,26.3395152 15.7805987,26.3788672 15.6975938,26.417 C15.6145888,26.4551328 15.5305646,26.4920496 15.4455626,26.527688 C15.3605603,26.5633264 15.2745691,26.597688 15.1875626,26.630688 C15.1005558,26.663688 15.0125498,26.6953136 14.9235312,26.7255312 C14.8345126,26.7557488 14.7444754,26.7845536 14.6534374,26.8118432 C14.5623997,26.8391344 14.4703458,26.864936 14.3772813,26.8891568 C14.2842168,26.913376 14.190161,26.9360256 14.0950626,26.957032 C13.999964,26.9780368 13.9038274,26.997384 13.8066875,27.015032 C13.7095475,27.0326784 13.6114074,27.0486064 13.5122187,27.0627504 C13.2469212,27.1007396 12.9798897,27.1254371 12.712125,27.1367504 C12.5987923,27.1415355 12.4853711,27.1439211 12.3719374,27.1439056 C12.2485483,27.1439056 12.1256123,27.1410512 12.0032499,27.135344 C11.8808877,27.1296368 11.7590763,27.1210672 11.6379062,27.1097184 C11.5167362,27.0983696 11.396219,27.0842368 11.2764062,27.067312 C11.1565934,27.0503888 11.037509,27.0306832 10.9192187,27.0082496 C10.8009286,26.9858176 10.6834147,26.9606576 10.5668125,26.9327808 C10.4502102,26.9049056 10.3344992,26.8743152 10.2197501,26.8410624 C10.1050008,26.8078096 9.99123088,26.7718752 9.8785,26.733312 C9.76576912,26.6947488 9.65407856,26.6535584 9.5435312,26.6097504 C9.432984,26.5659424 9.32357344,26.5195184 9.21537504,26.4705312 C9.10717664,26.421544 9.00018432,26.3700048 8.8945,26.3159056 C8.78881568,26.261808 8.68444256,26.2051456 8.58143744,26.146 C8.47843248,26.0868544 8.3768168,26.0252192 8.27665632,25.9610944 C8.17649584,25.8969696 8.07777568,25.8303824 7.98062496,25.761344 C7.88347424,25.6923056 7.78788192,25.620824 7.69390624,25.5469376 C7.59993056,25.4730512 7.5075728,25.3967312 7.41693744,25.3180624 C7.32630208,25.2393936 7.23737984,25.158352 7.15024992,25.074968 C7.06228976,24.9908944 6.97680928,24.9050208 6.89381248,24.8174368 C6.81081568,24.7298528 6.73030592,24.640584 6.65234368,24.549656 C6.5743816,24.458728 6.49895008,24.366168 6.42609376,24.2720624 C6.35323744,24.1779568 6.28296048,24.0823056 6.21528128,23.9851872 C6.14760192,23.8880704 6.0825248,23.7894624 6.02009376,23.6895008 C5.95766272,23.5895376 5.8978928,23.4882048 5.84078128,23.3855632 C5.78366976,23.28292 5.7292208,23.178968 5.6775,23.0738128 C5.6257792,22.968656 5.57679008,22.8622848 5.5305312,22.7547808 C5.48427232,22.6472784 5.44075696,22.5386528 5.4000312,22.428968 C5.35930544,22.3192848 5.32134016,22.2085424 5.28621872,22.0968432 C5.25109728,21.985144 5.2188208,21.8724848 5.18937504,21.7589376 C5.15992912,21.6453888 5.13332416,21.5309488 5.10962496,21.4157184 C5.08592592,21.300488 5.0651312,21.1844656 5.04724992,21.0677184 C5.0293688,20.9509712 5.01439824,20.833504 5.00240624,20.7154064 C4.99041424,20.5973088 4.98140656,20.4785952 4.97537504,20.359312 C4.96934336,20.2400304 4.96628128,20.120176 4.96628128,19.9998752 C4.96628128,19.879424 4.96934304,19.7594608 4.97537504,19.6400624 C4.98140688,19.5206656 4.99041264,19.4018384 5.00240624,19.283656 C5.01439984,19.1654736 5.0293648,19.0479312 5.04724992,18.9311248 C5.0651352,18.81432 5.08594976,18.6982672 5.10965632,18.583 C5.13336272,18.4677328 5.15994848,18.353256 5.18940624,18.239688 C5.218864,18.12612 5.25120496,18.0134576 5.28634368,17.9017504 C5.32148256,17.7900432 5.35943792,17.6793104 5.40018752,17.5696256 C5.44093712,17.4599392 5.48445968,17.3512832 5.53075008,17.2437808 C5.57704032,17.13628 5.62608288,17.0299072 5.67784368,16.9247504 C5.72960448,16.8195936 5.7840888,16.7156512 5.84124992,16.613 C5.8984112,16.5103488 5.95825872,16.4090144 6.02075008,16.309032 C6.08324128,16.209048 6.14837376,16.1104368 6.21612496,16.0132816 C6.28387632,15.9161262 6.3542464,15.820415 6.42718752,15.7262499 C6.50012864,15.632085 6.57565792,15.539451 6.65371872,15.4484374 C6.73177952,15.3574238 6.8123584,15.2680446 6.8954688,15.1803437 C6.97857904,15.0926429 7.06422288,15.0066331 7.15231248,14.9224062 C7.23935856,14.8390098 7.32820928,14.7579448 7.41878128,14.6792813 C7.50935328,14.6006176 7.60163152,14.5243357 7.69556256,14.4504688 C7.7894936,14.3766019 7.88506416,14.3051624 7.98218752,14.2361563 C8.07931088,14.1671501 8.17797632,14.1005816 8.27812496,14.0365 C8.37827376,13.9724184 8.47989888,13.9108118 8.58290624,13.8517187 C8.6859136,13.7926258 8.790332,13.7360405 8.8960312,13.682 C9.0017304,13.6279595 9.10871328,13.5764867 9.21693744,13.5275626 C9.3251616,13.4786384 9.43460512,13.432275 9.54518752,13.3885312 C9.65576976,13.3447874 9.76750768,13.3036558 9.88028128,13.2651563 C9.99305488,13.2266566 10.1068581,13.1907851 10.2216563,13.1575938 C10.3364544,13.1244022 10.4522504,13.0938819 10.5689062,13.0660626 C10.6855621,13.0382432 10.8030907,13.0131333 10.9214374,12.9907501 C11.0397842,12.9683667 11.1589418,12.9487272 11.2788125,12.9318437 C11.3986832,12.9149603 11.519272,12.9008195 11.6405,12.8895 C11.761728,12.8781805 11.8835816,12.8696605 12.006,12.8639688 C12.1284184,12.858277 12.2514018,12.8554374 12.3748437,12.8554374 Z" id="path910"></path>
        </g>
    </g>
</svg>