<?xml version="1.0" encoding="UTF-8"?>
<svg width="40px" height="40px" viewBox="0 0 40 40" version="1.1" xmlns="http://www.w3.org/2000/svg" xmlns:xlink="http://www.w3.org/1999/xlink">
    <title>pro-apps / http-request-flow-cards</title>
    <g id="pro-apps-/-http-request-flow-cards" stroke="none" stroke-width="1" fill="none" fill-rule="evenodd">
        <circle id="Oval-Copy-11" fill="#DF391F" cx="20" cy="20" r="20"></circle>
        <g id="icon-(9)" transform="translate(7.000000, 7.000000)" fill="#FFFFFF" fill-rule="nonzero">
            <path d="M8.02716372,11.222 L6.36316372,15 C6.32216372,15.094 6.21916372,15.154 6.10616372,15.154 L5.25416372,15.154 C5.14116372,15.154 5.03816372,15.093 4.99816372,15 L4.20816372,13.197 C4.13116372,13.019 4.06116372,12.849 3.99516372,12.68 C3.92216372,12.866 3.84716372,13.039 3.77216372,13.205 L2.93916372,15.005 C2.89716372,15.096 2.79516372,15.154 2.68416372,15.154 L1.83216372,15.154 C1.71516372,15.154 1.61316372,15.091 1.57316372,14.996 L0.0161637187,11.217 C-0.0138362813,11.143 -0.0018362813,11.061 0.0501637187,10.996 C0.102163719,10.931 0.185163719,10.893 0.275163719,10.893 L1.23416372,10.893 C1.35516372,10.893 1.46116372,10.962 1.49716372,11.062 L2.18116372,12.982 C2.23816372,13.144 2.29116372,13.297 2.34016372,13.443 C2.40016372,13.297 2.46516372,13.143 2.53416372,12.98 L3.37616372,11.048 C3.41716372,10.955 3.51916372,10.893 3.63216372,10.893 L4.42416372,10.893 C4.53916372,10.893 4.64116372,10.956 4.68216372,11.05 L5.48016372,12.94 C5.55216372,13.11 5.61616372,13.269 5.67516372,13.419 C5.72416372,13.277 5.78116372,13.123 5.84616372,12.954 L6.58316372,11.056 C6.62116372,10.958 6.72616372,10.892 6.84316372,10.892 L7.76916372,10.892 C7.86016372,10.892 7.94416372,10.931 7.99616372,10.996 C8.04916372,11.064 8.05916372,11.147 8.02716372,11.222 Z M16.9491637,11.222 L15.2851637,15 C15.2441637,15.094 15.1411637,15.154 15.0291637,15.154 L14.1751637,15.154 C14.0621637,15.154 13.9601637,15.093 13.9191637,15 L13.1301637,13.197 C13.0521637,13.019 12.9821637,12.849 12.9161637,12.68 C12.8431637,12.866 12.7681637,13.039 12.6931637,13.205 L11.8601637,15.005 C11.8181637,15.096 11.7171637,15.154 11.6051637,15.154 L10.7521637,15.154 C10.6361637,15.154 10.5331637,15.091 10.4931637,14.996 L8.93616372,11.217 C8.90616372,11.143 8.91816372,11.061 8.97016372,10.996 C9.02216372,10.932 9.10616372,10.893 9.19516372,10.893 L10.1541637,10.893 C10.2751637,10.893 10.3811637,10.962 10.4171637,11.062 L11.1001637,12.982 C11.1571637,13.144 11.2101637,13.297 11.2611637,13.443 C11.3201637,13.297 11.3841637,13.143 11.4531637,12.98 L12.2961637,11.048 C12.3361637,10.955 12.4381637,10.893 12.5521637,10.893 L13.3441637,10.893 C13.4591637,10.893 13.5621637,10.956 13.6021637,11.05 L14.4011637,12.94 C14.4721637,13.11 14.5361637,13.269 14.5941637,13.419 C14.6451637,13.277 14.7001637,13.123 14.7661637,12.954 L15.5031637,11.056 C15.5411637,10.958 15.6471637,10.892 15.7641637,10.892 L16.6901637,10.892 C16.7821637,10.892 16.8671637,10.931 16.9171637,10.996 C16.9701637,11.064 16.9821637,11.147 16.9491637,11.222 Z M25.8701637,11.222 L24.2071637,15 C24.1651637,15.094 24.0631637,15.154 23.9501637,15.154 L23.0971637,15.154 C22.9841637,15.154 22.8811637,15.093 22.8411637,15 L22.0521637,13.197 C21.9741637,13.019 21.9041637,12.849 21.8381637,12.68 C21.7651637,12.866 21.6891637,13.039 21.6141637,13.205 L20.7811637,15.005 C20.7391637,15.096 20.6371637,15.154 20.5261637,15.154 L19.6741637,15.154 C19.5571637,15.154 19.4541637,15.091 19.4141637,14.996 L17.8571637,11.217 C17.8281637,11.143 17.8381637,11.061 17.8901637,10.996 C17.9421637,10.931 18.0261637,10.893 18.1161637,10.893 L19.0761637,10.893 C19.1971637,10.893 19.3031637,10.962 19.3381637,11.062 L20.0221637,12.982 C20.0791637,13.144 20.1321637,13.297 20.1821637,13.443 C20.2411637,13.297 20.3051637,13.143 20.3741637,12.98 L21.2171637,11.048 C21.2581637,10.955 21.3601637,10.893 21.4741637,10.893 L22.2651637,10.893 C22.3801637,10.893 22.4831637,10.956 22.5231637,11.05 L23.3211637,12.94 C23.3931637,13.11 23.4581637,13.269 23.5171637,13.419 C23.5661637,13.277 23.6231637,13.123 23.6881637,12.954 L24.4261637,11.056 C24.4631637,10.958 24.5681637,10.892 24.6861637,10.892 L25.6121637,10.892 C25.7041637,10.892 25.7881637,10.931 25.8391637,10.996 C25.8901637,11.064 25.9021637,11.147 25.8701637,11.222 Z" id="Shape"></path>
            <g id="Group" transform="translate(0.532164, 0.000000)">
                <path d="M2.122,9 C2.405,8.282 2.759,7.599 3.179,6.963 C3.241,6.975 3.299,7 3.364,7 L5.244,7 C5.045,7.634 4.889,8.309 4.754,9 L6.809,9 C6.964,8.301 7.144,7.624 7.371,7 L17.357,7 C17.584,7.624 17.764,8.301 17.919,9 L19.974,9 C19.839,8.309 19.683,7.634 19.484,7 L21.364,7 C21.429,7 21.487,6.975 21.55,6.963 C21.968,7.599 22.323,8.282 22.606,9 L24.727,9 C23.036,3.784 18.136,0 12.364,0 C6.592,0 1.692,3.784 7.77156117e-16,9 L2.122,9 Z M19.89,5 L18.702,5 C18.444,4.457 18.16,3.95 17.851,3.481 C18.591,3.909 19.273,4.419 19.89,5 Z M12.364,2 C13.915,2 15.347,3.154 16.426,5 L8.302,5 C9.381,3.154 10.813,2 12.364,2 Z M6.875,3.481 C6.567,3.95 6.283,4.457 6.025,5 L4.838,5 C5.455,4.419 6.137,3.909 6.875,3.481 Z" id="Shape"></path>
                <path d="M22.606,17 C22.323,17.719 21.968,18.4 21.549,19.037 C21.487,19.025 21.429,19 21.364,19 L19.483,19 C19.682,18.366 19.838,17.691 19.973,17 L17.918,17 C17.764,17.699 17.583,18.377 17.356,19 L7.371,19 C7.144,18.377 6.964,17.699 6.809,17 L4.755,17 C4.89,17.691 5.046,18.366 5.245,19 L3.364,19 C3.299,19 3.241,19.025 3.179,19.037 C2.76,18.4 2.405,17.719 2.122,17 L7.77156117e-16,17 C1.692,22.216 6.592,26 12.364,26 C18.136,26 23.036,22.216 24.727,17 L22.606,17 Z M4.838,21 L6.026,21 C6.284,21.543 6.568,22.051 6.876,22.519 C6.137,22.091 5.455,21.581 4.838,21 Z M12.364,24 C10.813,24 9.381,22.846 8.302,21 L16.425,21 C15.347,22.846 13.915,24 12.364,24 Z M17.852,22.519 C18.161,22.051 18.445,21.543 18.703,21 L19.891,21 C19.273,21.581 18.591,22.091 17.852,22.519 Z" id="Shape"></path>
            </g>
        </g>
    </g>
</svg>