<?xml version="1.0" encoding="UTF-8"?>
<svg width="40px" height="40px" viewBox="0 0 40 40" version="1.1" xmlns="http://www.w3.org/2000/svg" xmlns:xlink="http://www.w3.org/1999/xlink">
    <title>pro-apps / mqtt-hub</title>
    <g id="pro-apps-/-mqtt-hub" stroke="none" stroke-width="1" fill="none" fill-rule="evenodd">
        <circle id="Oval-Copy-11" fill="#113B79" cx="20" cy="20" r="20"></circle>
        <g id="icon-(8)" transform="translate(9.000000, 8.000000)">
            <g id="Group" fill="#FFFFFF" fill-rule="nonzero">
                <path d="M20.5646056,11.7303311 C19.6665947,11.7324642 18.8699784,12.3139713 18.5846914,13.1756117 L15.6878703,12.4669909 C15.9887316,10.8991817 15.6068235,9.27623728 14.6399768,8.01389552 L17.2899383,5.74274041 C19.0905602,7.59187755 22.194123,6.77512719 22.8763513,4.27258976 C23.5585796,1.77005234 21.3078022,-0.541369084 18.824952,0.112031206 C16.5523376,0.710104698 15.5873676,3.43538446 16.9675095,5.35784207 L14.315029,7.62644818 C12.3647941,5.49441636 9.11961882,5.24540398 6.87397739,7.05547316 L4.0905102,3.8284447 C5.15025555,2.62362255 4.52369905,0.709728445 2.96270851,0.383435318 C1.40171796,0.0571421896 0.0770362803,1.56316988 0.578281478,3.09428516 C1.0113216,4.41705963 2.57598642,4.95151014 3.71266398,4.16491212 L6.49361219,7.39703857 C4.04862425,9.75467422 4.26772832,13.7661464 6.95458459,15.8367631 L4.911696,18.811441 C2.72844898,17.536237 -0.000271016625,19.1308358 0,21.6817188 C0.000271016625,24.2326019 2.72932979,25.8266069 4.91230579,24.5509279 C6.90533386,23.3862499 7.12054946,20.5593158 5.32732684,19.0994775 L7.36769646,16.1197016 C9.14322318,17.2518896 11.4017315,17.2588182 13.1840093,16.1375446 L16.1261719,20.4708371 C15.329815,21.2605297 15.676891,22.6264433 16.7509087,22.9294817 C17.8249264,23.2325201 18.8203725,22.2454044 18.5427117,21.1526735 C18.3185287,20.2704037 17.3616971,19.806612 16.5418028,20.1828006 L13.5996402,15.8495081 C14.5450308,15.1257438 15.2348721,14.1130612 15.5669595,12.961496 L18.4814134,13.6726658 C18.4814134,13.7287437 18.4814134,13.7848216 18.4814134,13.8408995 C18.4775457,15.4695355 20.2174143,16.4916699 21.6131768,15.6807413 C23.0089394,14.8698128 23.0137741,12.8340178 21.6218792,12.0163103 C21.3007984,11.8276824 20.9358716,11.7289743 20.5646056,11.7303311 Z M16.8440715,3.41040942 C16.8390103,1.23235376 19.1658871,-0.134484338 21.032458,0.950100845 C22.899029,2.03468603 22.9053659,4.7572556 21.0438644,5.85072608 C19.7867723,6.58915855 18.180212,6.22976687 17.3478747,5.02392365 C17.0197435,4.55141997 16.8437974,3.98791393 16.8440715,3.41040942 Z M3.38519725,3.77236679 C2.35006558,4.42144802 1.00873272,3.69320616 0.970798105,2.46153146 C0.93286349,1.22985675 2.22677808,0.418505226 3.29984436,1.00109871 C4.18320715,1.4806976 4.40858166,2.66020188 3.76556245,3.43844837 C3.65702209,3.56940832 3.52863816,3.68211516 3.38519725,3.77236679 Z M6.03517401,21.6714141 C6.04200928,23.8298425 3.7372425,25.1863645 1.88657856,24.1131537 C0.0359146229,23.0399429 0.0273514815,20.3419075 1.87116491,19.2566898 C2.87357618,18.6666983 4.13302929,18.7707706 5.02756884,19.5175128 C5.66323076,20.0481495 6.03251223,20.8375539 6.03517401,21.6714141 Z M16.420892,20.9067154 C16.885392,20.3533871 17.7676453,20.5163857 18.0089478,21.2001128 C18.2502504,21.88384 17.6696254,22.5755003 16.9638228,22.4451014 C16.5185909,22.3628437 16.1961114,21.9688023 16.1992222,21.5108274 C16.2007265,21.289366 16.2792001,21.0755036 16.420892,20.9067154 Z M15.1941513,12.3471881 C14.5498558,15.8333237 10.64297,17.5732111 7.66745446,15.6991173 C4.38772871,13.6603623 4.51892407,8.79341983 7.9036061,6.93862093 C11.2882881,5.08382203 15.3879453,7.63226585 15.282989,11.5258198 C15.2755549,11.8016022 15.2458433,12.0763073 15.1941513,12.3471881 Z M20.5646056,15.4493158 C19.688155,15.4493158 18.9776515,14.7303445 18.9776515,13.8434485 C18.9776515,13.8281545 18.9776515,13.8128606 18.9776515,13.7950176 C19.0144946,12.5613458 20.3572817,11.8306602 21.3946682,12.4797835 C22.4320548,13.1289068 22.3860008,14.6709964 21.3117711,15.2555449 C21.0813138,15.3809496 20.8237518,15.446646 20.5620866,15.4467668 L20.5646056,15.4493158 Z" id="Shape"></path>
            </g>
            <path d="M5.23769886,12.3489887 C6.79525177,13.9289801 13.1306987,15.0977422 15.4670248,10.8339286" id="Path" stroke="#FFFFFF" stroke-width="0.5" stroke-linecap="round"></path>
            <ellipse id="Oval" stroke="#FFFFFF" stroke-width="0.5" stroke-linecap="round" cx="7.9357358" cy="16.6974991" rx="1" ry="1"></ellipse>
            <ellipse id="Oval" stroke="#FFFFFF" stroke-width="0.5" stroke-linecap="round" cx="12.6710084" cy="16.6986504" rx="1" ry="1"></ellipse>
        </g>
    </g>
</svg>