<?xml version="1.0" encoding="UTF-8"?>
<svg width="37.5px" height="37.5px" viewBox="0 0 37.5 37.5" version="1.1" xmlns="http://www.w3.org/2000/svg" xmlns:xlink="http://www.w3.org/1999/xlink">
    <title>pro-apps / sun-events</title>
    <g id="pro-apps-/-sun-events" stroke="none" stroke-width="1" fill="none" fill-rule="evenodd">
        <circle id="Oval-Copy-7" fill="#E8461D" cx="18.75" cy="18.75" r="18.75"></circle>
        <g id="icon-2" transform="translate(3.750000, 10.750000)" fill="#FFFFFF" fill-rule="nonzero">
            <path d="M25.7321747,12.9039686 C24.6882319,12.5454337 24.6210211,12.506797 23.7963595,11.9425126 C23.2571019,11.4705336 23.3858419,11.5803371 23.2036717,11.403712 C22.5837853,10.8066627 22.5494547,9.70463466 23.1183285,9.06436858 C23.8933074,8.17161312 25.2034338,7.90808468 25.9016522,6.9382906 C24.6501538,6.82919171 23.375446,7.17657011 22.1499374,6.82308499 C21.4310481,6.62896176 20.9429239,5.9152976 20.9220112,5.20914941 C21.0107391,4.06942411 21.804213,3.11102142 21.8798855,1.96624633 C20.8597566,2.4149728 20.1156028,3.28095264 19.1069578,3.74236229 C18.2901535,4.08844889 17.2331554,3.88316916 16.7294373,3.13509599 C16.0822314,2.18937648 16.0859788,0.97613567 15.4882139,0 C15.0316401,0.770855935 14.8880314,1.65574312 14.5853412,2.48355596 C14.3881816,3.04138132 13.9823784,3.55857352 13.4041966,3.77782824 C12.7322098,4.03759871 11.9533627,3.87412652 11.369862,3.48494057 C10.6000811,2.98407211 9.89932423,2.38584844 9.10838887,1.91292997 C9.09303677,3.12617078 10.0364052,4.11874762 10.0390646,5.32940481 C9.97378796,6.17365882 9.21827122,6.84434107 8.36604835,6.91797402 C7.23845473,6.99278133 6.10699287,6.89765743 4.97710248,6.93805573 C5.67918907,7.72406103 6.67743822,8.14237133 7.50971546,8.76866242 C8.09696351,9.20752419 8.42189614,10.0011629 8.15716308,10.6970941 C7.91841979,11.3626091 7.44987853,11.8162679 6.8758067,12.1852547 C6.21022667,12.5935829 6.26003034,12.5892377 5.42726957,12.8905808 C4.05380059,13.3895703 1.48758223,13.5253274 0,13.9994202 C0.488003369,14.0335944 9.74664941,12.5451989 15.5000604,12.6606393 C22.4587927,12.6923473 29.4993624,13.8224428 31,13.9996551 C29.8591093,13.7067674 26.8065799,13.1801803 25.7321747,12.9039686 Z M20.8474266,12.2956454 C20.7235218,12.6076753 20.3281146,12.4858932 20.0631398,12.5455512 C20.2159355,11.7495637 20.5604511,10.981174 20.5228566,10.1559447 C20.5880123,7.65066295 18.3420122,5.32576427 15.7556064,5.26998173 C14.4037754,5.17614964 13.0388891,5.67948427 12.04064,6.55802986 C11.0305443,7.52535776 10.3610961,8.89056194 10.4510328,10.287709 C10.4316915,11.0573905 10.73825,11.7785707 10.9378273,12.5114945 C10.6925564,12.5177186 10.4471645,12.5228858 10.2017727,12.5278182 C9.65091032,11.4148685 9.53377501,10.1407954 9.76732034,8.93377873 C10.2097509,7.1335882 11.575967,5.54384463 13.3664812,4.88220503 C14.7065865,4.34598806 16.2699622,4.34974604 17.6074082,4.89113023 C19.5151786,5.5908194 20.9258794,7.35178599 21.2625377,9.29149158 C21.3642,10.3001573 21.3327705,11.3754097 20.8474266,12.2956454 Z" id="Shape"></path>
        </g>
    </g>
</svg>