<?xml version="1.0" encoding="UTF-8"?>
<svg width="40px" height="40px" viewBox="0 0 40 40" version="1.1" xmlns="http://www.w3.org/2000/svg" xmlns:xlink="http://www.w3.org/1999/xlink">
    <title>pro-apps / temperature-monitor</title>
    <g id="pro-apps-/-temperature-monitor" stroke="none" stroke-width="1" fill="none" fill-rule="evenodd">
        <circle id="Oval-Copy-8" fill="#22BADF" cx="20" cy="20" r="20"></circle>
        <g id="icon-1" transform="translate(14.000000, 9.000000)" fill="#FFFFFF" fill-rule="nonzero">
            <g id="Group" transform="translate(5.500000, 11.000000) scale(-1, 1) rotate(-180.000000) translate(-5.500000, -11.000000) ">
                <path d="M5.50112268,0 C4.50418453,0 3.58583384,0.24691358 2.74157991,0.738496072 C1.89732598,1.23007856 1.23045519,1.8989899 0.738722188,2.74074074 C0.246989181,3.58473625 -9.9588357e-14,4.50280584 -9.9588357e-14,5.49943883 C-9.9588357e-14,6.29405163 0.161665646,7.04601571 0.484996938,7.75533109 C0.80832823,8.46464646 1.25739947,9.07519641 1.83221066,9.58922559 L1.83221066,19.2502806 C1.83221066,20.0089787 2.1016534,20.6554433 2.63829353,21.1941639 C3.17717902,21.7328844 3.8238416,22 4.58277199,22 L6.41722801,22 C7.1761584,22 7.82282098,21.7306397 8.36170647,21.1941639 C8.90059196,20.6554433 9.16778934,20.0089787 9.16778934,19.2502806 L9.16778934,9.58922559 C9.44845887,9.33782267 9.70218412,9.0617284 9.92896509,8.75420875 C10.1557461,8.44893378 10.3466013,8.12345679 10.5060216,7.77777778 C10.6654419,7.43209877 10.7866912,7.06621773 10.8720147,6.67789001 C10.9573382,6.28956229 11,5.89674523 11,5.49943883 C11,4.50280584 10.7530108,3.58473625 10.2612778,2.74074074 C9.76954481,1.89674523 9.10042866,1.23007856 8.25842009,0.738496072 C7.41641151,0.24691358 6.49806083,0 5.50112268,0 Z M5.50112268,1.67676768 C6.01979996,1.67676768 6.51602368,1.77777778 6.98754848,1.97979798 C7.45907328,2.18181818 7.86548275,2.45342312 8.20677689,2.79461279 C8.54807103,3.13580247 8.82200449,3.54208754 9.02184119,4.01346801 C9.22167789,4.48484848 9.32496428,4.97867565 9.32496428,5.49943883 C9.32496428,6.20875421 9.14533578,6.85746352 8.78383344,7.44781145 C8.42233109,8.03815937 7.93957951,8.50056117 7.33557869,8.8372615 L7.33557869,13.7508418 L5.50112268,13.7508418 L5.50112268,14.6666667 L7.33557869,14.6666667 L7.33557869,15.5824916 L5.50112268,15.5824916 L5.50112268,16.4983165 L7.33557869,16.4983165 L7.33557869,17.4141414 L5.50112268,17.4141414 L5.50112268,18.3299663 L7.33557869,18.3299663 L7.33557869,19.2457912 C7.33557869,19.4971942 7.24576444,19.7126824 7.06613595,19.8922559 C6.88650745,20.0718294 6.67095326,20.1616162 6.41947336,20.1616162 L4.58501735,20.1616162 C4.33353746,20.1616162 4.11798326,20.0718294 3.93835477,19.8922559 C3.75872627,19.7126824 3.66891202,19.4971942 3.66891202,19.2457912 L3.66891202,8.83277217 C3.06266585,8.49607183 2.57991427,8.03367003 2.22065728,7.44332211 C1.85915493,6.85297419 1.67952643,6.20426487 1.67952643,5.49494949 C1.67952643,4.80359147 1.8501735,4.1661055 2.193713,3.58024691 C2.53500714,2.99438833 2.99979588,2.52974186 3.5880792,2.18630752 C4.17187181,1.84736251 4.80955297,1.67676768 5.50112268,1.67676768 Z M5.50112268,2.85970819 C4.77362727,2.85970819 4.15390896,3.11784512 3.63972239,3.63411897 C3.12553582,4.15039282 2.86956522,4.77216611 2.86956522,5.49943883 C2.86956522,6.05611672 3.02898551,6.55892256 3.34558073,7.00785634 C3.66442131,7.45679012 4.07532149,7.77553311 4.58277199,7.96632997 L4.58277199,12.3748597 C4.58277199,12.5028058 4.62767912,12.6105499 4.71524801,12.7003367 C4.8028169,12.7901235 4.91283935,12.8327722 5.04082466,12.8327722 L5.95692999,12.8327722 C6.04225352,12.8327722 6.12084099,12.8125701 6.19044703,12.7721661 C6.26005307,12.7317621 6.31618698,12.67789 6.35435803,12.6060606 C6.39477444,12.5364759 6.41498265,12.4579125 6.41498265,12.372615 L6.41498265,7.9640853 C6.75178608,7.83613917 7.0481731,7.64983165 7.3041437,7.40965208 C7.56011431,7.16722783 7.76444172,6.88215488 7.91488059,6.55218855 C8.06531945,6.22222222 8.13941621,5.8698092 8.13941621,5.49719416 C8.13941621,4.76992144 7.88120024,4.14814815 7.36476832,3.6318743 C6.8483364,3.11560045 6.22861809,2.85970819 5.50112268,2.85970819 Z" id="Shape"></path>
            </g>
        </g>
    </g>
</svg>