<?xml version="1.0" encoding="UTF-8"?>
<svg width="40px" height="40px" viewBox="0 0 40 40" version="1.1" xmlns="http://www.w3.org/2000/svg" xmlns:xlink="http://www.w3.org/1999/xlink">
    <title>pro-apps / virtual-devices</title>
    <g id="pro-apps-/-virtual-devices" stroke="none" stroke-width="1" fill="none" fill-rule="evenodd">
        <circle id="Oval-Copy-11" fill="#6720DF" cx="20" cy="20" r="20"></circle>
        <g id="icon-(2)" transform="translate(7.500000, 11.250000)" fill="#FFFFFF" fill-rule="nonzero">
            <polygon id="Path" points="12.833558 0 15.2940827 0 7.99701099 17.5 7.43796747 17.5 0 0 2.48723733 0 7.67785685 12.2364087"></polygon>
            <path d="M22.3315362,2.32621156 C20.8368543,1.02313821 18.839522,0.270592205 16.3446027,0.0627562378 L15.4969586,2.09545899 L15.6471077,2.09545899 C16.5645886,2.09545899 17.4255016,2.240715 18.2296723,2.53122702 L18.2298468,2.53122702 L18.2298468,2.53122702 C19.0327954,2.8212102 19.7791761,3.25592054 20.4691636,3.83535805 C21.8508845,4.99529076 22.5415704,6.60650429 22.5415704,8.66864606 C22.5415704,10.1072799 22.2634453,11.3421323 21.708592,12.3732032 C21.1526912,13.4044504 20.4012473,14.1589355 19.4549588,14.6371874 C18.5090194,15.1154392 17.052224,15.3543008 15.0849215,15.3543008 L13.0893352,15.3543008 L12.259325,17.4249041 L15.9941966,17.4249041 C18.8686789,17.4249041 21.0880921,16.6348101 22.65296,15.0551509 C24.2178279,13.4751393 25,11.3712188 25,8.74338944 C24.9998254,6.0163136 24.1106285,3.87713678 22.3315362,2.32621156 Z" id="Path"></path>
        </g>
    </g>
</svg>