<?xml version="1.0" encoding="UTF-8"?>
<svg width="48px" height="48px" viewBox="0 0 48 48" version="1.1" xmlns="http://www.w3.org/2000/svg" xmlns:xlink="http://www.w3.org/1999/xlink">
    <title>glyph/capabilities/media/speaker_next</title>
    <g  stroke="none" stroke-width="1" fill="none" fill-rule="evenodd">
        <path fill="#313132" d="M46,0 C47.1045695,-2.02906125e-16 48,0.8954305 48,2 L48,46 C48,47.1045695 47.1045695,48 46,48 C44.8954305,48 44,47.1045695 44,46 L44,2 C44,0.8954305 44.8954305,2.02906125e-16 46,0 Z M4,3.06476152 C4.72497578,3.06476152 5.43632142,3.26179285 6.05798302,3.63478981 L34.2833805,20.5700283 C36.1777016,21.7066209 36.7919618,24.163662 35.6553692,26.057983 C35.3175701,26.6209814 34.8463789,27.0921727 34.2833805,27.4299717 L6.05798302,44.3652102 C4.16366196,45.5018028 1.70662094,44.8875426 0.570028297,42.9932215 C0.197031333,42.3715599 -3.90801896e-15,41.6602143 0,40.9352385 L0,7.06476152 C-2.705415e-16,4.85562252 1.790861,3.06476152 4,3.06476152 Z" id="path-1"/>
    </g>
</svg>
