<?xml version="1.0" encoding="UTF-8"?>
<svg width="960px" height="960px" viewBox="0 0 960 960" version="1.1" xmlns="http://www.w3.org/2000/svg" xmlns:xlink="http://www.w3.org/1999/xlink">
    <title>devices / xiaomi aqara / mini switch</title>
    <g id="devices-/-xiaomi-aqara-/-mini-switch" stroke="none" stroke-width="1" fill="none" fill-rule="evenodd" stroke-linecap="round" stroke-linejoin="round">
        <path d="M780.995297,479.5 C780.995297,631.90541 688.848432,727.436096 550.5,736.8122 C412.153475,746.188176 300,630.986841 300,479.5 C300,328.013159 412.153475,212.811824 550.5,222.1878 C688.848432,231.563904 780.995297,327.09459 780.995297,479.5 Z" id="Stroke-51" stroke="#000000" stroke-width="20"></path>
        <path d="M277.377274,23 C279.57871,23 281.759735,23.0197233 283.920592,23.0578027 C288.818823,22.9195627 293.780567,23.0373953 298.793657,23.4163825 L765.206343,58.676955 C857.875856,65.6827251 933,147.917123 933,242.353615 L933,717.64827 C933,812.082877 857.875856,894.317275 765.206343,901.323045 L334.145808,933.91168 C323.443666,935.102968 311.804585,936.054705 298.957978,936.572171 L298.793657,936.583617 C293.947693,936.94997 289.149708,937.07229 284.407935,936.959592 C282.102746,936.984886 279.758997,937 277.377274,937 C189.314422,937 27,838.040711 27,736.224459 L27,223.777573 C27,121.959289 175.461747,23 277.377274,23 Z" id="Combined-Shape" stroke="#000000" stroke-width="40"></path>
        <path d="M765.7088,900.823045 L299.014573,936.083617 C206.289122,943.089388 131.119631,860.85499 131.119631,752.408842 L131.119631,206.593322 C131.119631,98.1450099 206.289122,15.9106124 299.014573,22.9163826 L765.7088,58.176955 C858.434251,65.1827252 933.603742,147.417123 933.603742,241.853615 L933.603742,717.14827 C933.603742,811.582877 858.434251,893.817275 765.7088,900.823045 Z" id="Stroke-39" stroke="#000000" stroke-width="20"></path>
    </g>
</svg>