<?xml version="1.0" encoding="UTF-8"?>
<svg width="960px" height="960px" viewBox="0 0 960 960" version="1.1" xmlns="http://www.w3.org/2000/svg" xmlns:xlink="http://www.w3.org/1999/xlink">
    <title>devices / rituals / perfume</title>
    <g id="devices-/-rituals-/-perfume" stroke="none" stroke-width="1" fill="none" fill-rule="evenodd" stroke-linecap="round" stroke-linejoin="round">
        <path d="M480,21 L457.442629,21 C452.963566,21 449.259572,24.4940366 448.993246,28.9626591 C427.48524,389.539533 431.430323,440.285053 328.47961,507.767825 C201.931459,590.719825 129.051706,623.722305 102.735216,691.641251 C80.0695882,750.140306 87.7073741,816.822431 121.770571,850.871197 C155.833768,884.919962 204.058749,940 480,940" id="Stroke-1" stroke="#000000" stroke-width="40"></path>
        <path d="M484.107263,805.487151 C377.707729,805.487151 89.8100559,797.869307 89.8100559,742.851397" id="Stroke-3" stroke="#000000" stroke-width="20"></path>
        <path d="M471.785475,21 L492.676513,21 C498.090716,21 502.569787,25.2216566 502.891238,30.6250318 C524.288364,389.695546 520.513963,440.388619 623.306108,507.767825 C749.854462,590.719825 822.734333,623.722305 849.050201,691.641251 C871.715865,750.140306 864.078067,816.822431 830.015479,850.871197 C795.952227,884.919962 747.727169,940 471.785475,940" id="Stroke-5" stroke="#000000" stroke-width="40"></path>
        <path d="M475.892737,805.487151 C582.292452,805.487151 870.189944,797.869307 870.189944,742.851397" id="Stroke-7" stroke="#000000" stroke-width="20"></path>
    </g>
</svg>