<?xml version="1.0" encoding="utf-8"?>
<!-- Generator: Adobe Illustrator 23.0.6, SVG Export Plug-In . SVG Version: 6.00 Build 0)  -->
<svg version="1.1" id="Capa_1" xmlns="http://www.w3.org/2000/svg" xmlns:xlink="http://www.w3.org/1999/xlink" x="0px" y="0px"
	 viewBox="0 0 510 510" style="enable-background:new 0 0 510 510;" xml:space="preserve">
<style type="text/css">
	.st0{fill:#333333;}
</style>
<g>
	<g id="account-circle">
		<path class="st0" d="M255,34C133.4,34,34,133.4,34,255s99.4,221,221,221s221-99.5,221-221S376.5,34,255,34z M255,100.3
			c37.6,0,66.3,28.7,66.3,66.3s-28.7,66.3-66.3,66.3s-66.3-28.7-66.3-66.3S217.4,100.3,255,100.3z M255,414.1
			c-55.2,0-103.9-28.7-132.6-70.7c0-44.2,88.4-68.5,132.6-68.5s132.6,24.3,132.6,68.5C358.9,385.4,310.2,414.1,255,414.1z"/>
	</g>
</g>
</svg>
