<?xml version="1.0" encoding="utf-8"?>
<!-- Generator: Adobe Illustrator 24.0.0, SVG Export Plug-In . SVG Version: 6.00 Build 0)  -->
<svg version="1.1" id="Layer_1" xmlns="http://www.w3.org/2000/svg" xmlns:xlink="http://www.w3.org/1999/xlink" x="0px" y="0px"
	 viewBox="0 0 95 86.2" style="enable-background:new 0 0 95 86.2;" xml:space="preserve">
<g>
	<path d="M51.9,0C28.9,0,10.2,18.1,9,40.8H2.7c-2.1,0-3.4,2.3-2.3,4.1l11.3,18.6c1,1.7,3.5,1.7,4.6,0l11.3-18.6
		c1.1-1.8-0.2-4.1-2.3-4.1h-7.1C19.4,23.2,33.9,9.2,51.9,9.2c18.7,0,33.9,15.2,33.9,33.9S70.6,77,51.9,77c-6.7,0-13.1-1.9-18.6-5.6
		c-2.1-1.4-5-0.8-6.4,1.3c-1.4,2.1-0.8,5,1.3,6.4c7,4.7,15.2,7.1,23.7,7.1C75.7,86.2,95,66.9,95,43.1S75.7,0,51.9,0z"/>
	<path d="M50.1,47l12.6,6.1c0.7,0.3,1.3,0.5,2,0.5c1.7,0,3.4-1,4.2-2.6c1.1-2.3,0.2-5.1-2.1-6.2l-10-4.9l-0.3-16.6
		c0-2.5-2.1-4.6-4.7-4.5c-2.5,0-4.6,2.1-4.5,4.7L47.6,43C47.6,44.6,48.6,46.2,50.1,47z"/>
</g>
</svg>
