<?xml version="1.0" encoding="utf-8"?>
<!-- Generator: Adobe Illustrator 23.0.6, SVG Export Plug-In . SVG Version: 6.00 Build 0)  -->
<svg version="1.1" id="Layer_1" xmlns="http://www.w3.org/2000/svg" xmlns:xlink="http://www.w3.org/1999/xlink" x="0px" y="0px"
	 viewBox="0 0 19 18" style="enable-background:new 0 0 19 18;" xml:space="preserve">
<style type="text/css">
	.st0{fill-rule:evenodd;clip-rule:evenodd;fill:#333333;}
</style>
<title>Shape</title>
<desc>Created with Sketch.</desc>
<g id="Symbols">
	<g>
		<path id="Shape" class="st0" d="M7.5,10.7C7.2,10.8,7,11,7,11.3C7,11.7,7.3,12,7.6,12h7.9c0.3,0,0.6,0.3,0.6,0.6
			c0,0.3-0.3,0.6-0.6,0.6H7.4c-0.9,0-1.6-0.7-1.8-1.5L4.5,3.6c0-0.3-0.3-0.5-0.6-0.5H2.6C2.2,3.1,2,2.8,2,2.5s0.3-0.6,0.6-0.6H4
			c0.9,0,1.6,0.7,1.8,1.5l0,0.3h10.7c0.2,0,0.3,0.1,0.4,0.2S17,4.2,17,4.3l-0.7,4.7c0,0.3-0.3,0.6-0.6,0.6L7.5,10.7z M7.3,13.8
			c0.7,0,1.2,0.5,1.2,1.2c0,0.7-0.5,1.2-1.2,1.2c-0.7,0-1.2-0.5-1.2-1.2C6.1,14.3,6.6,13.8,7.3,13.8L7.3,13.8z M14.4,13.8
			c0.7,0,1.2,0.5,1.2,1.2c0,0.7-0.5,1.2-1.2,1.2c-0.7,0-1.2-0.5-1.2-1.2C13.2,14.3,13.7,13.8,14.4,13.8L14.4,13.8z"/>
	</g>
</g>
</svg>
