<?xml version="1.0" encoding="UTF-8"?>
<svg width="14px" height="12px" viewBox="0 0 14 12" version="1.1" xmlns="http://www.w3.org/2000/svg" xmlns:xlink="http://www.w3.org/1999/xlink">
    <!-- Generator: Sketch 55.2 (78181) - https://sketchapp.com -->
    <title>Path</title>
    <desc>Created with Sketch.</desc>
    <g id="Accessory-overview" stroke="none" stroke-width="1" fill="none" fill-rule="evenodd">
        <g transform="translate(-957.000000, -225.000000)" fill="#FFFFFF" id="Group-13" stroke="#FFFFFF" stroke-width="0.5">
            <g transform="translate(465.000000, 214.000000)">
                <g id="Click-through-button" transform="translate(319.500000, 0.000000)">
                    <path d="M181.214966,21.8273833 C180.989134,22.0573436 180.622769,22.0575673 180.396666,21.8278832 C180.170564,21.598199 180.170343,21.2255836 180.396175,20.9956233 L183.755576,17.5830552 L173.57816,17.5830552 C173.258851,17.5830552 173,17.3197879 173,16.9950312 C173,16.6702745 173.258851,16.4070072 173.57816,16.4070072 L183.745776,16.4070072 L180.396175,13.0043767 C180.170343,12.7744164 180.170564,12.401801 180.396666,12.1721168 C180.622769,11.9424327 180.989134,11.9426564 181.214966,12.1726167 L185.557644,16.58412 C185.666243,16.6943426 185.727273,16.8439742 185.727273,17.0000147 C185.727273,17.1560552 185.666243,17.3056868 185.557644,17.4159094 L181.214966,21.8273833 Z" id="Path"></path>
                </g>
            </g>
        </g>
    </g>
</svg>