<?xml version="1.0" encoding="UTF-8"?>
<svg width="19px" height="19px" viewBox="0 0 19 19" version="1.1" xmlns="http://www.w3.org/2000/svg" xmlns:xlink="http://www.w3.org/1999/xlink">
    <!-- Generator: Sketch 55.2 (78181) - https://sketchapp.com -->
    <title>Shape</title>
    <desc>Created with Sketch.</desc>
    <g id="Symbols" stroke="none" stroke-width="1" fill="none" fill-rule="evenodd">
        <g id="Icons-/-Cart" fill="#FFFFFF">
            <path d="M7.032346,11.6627622 C6.63613824,11.712213 6.33853767,12.0511866 6.33826211,12.4533389 C6.33869368,12.8937086 6.69341362,13.2503637 7.13059141,13.2499907 L17.1529633,13.2499907 C17.5641754,13.2499907 17.8975287,13.5857778 17.8975287,14 C17.8975287,14.4142068 17.5641754,14.7499945 17.1529633,14.7499945 L6.90375955,14.7499945 C5.79115563,14.7507563 4.84719991,13.9275459 4.68867741,12.8182522 L3.243327,2.64395511 C3.19056779,2.27417546 2.87592433,1.99973109 2.50505315,2 L0.744565427,2 C0.333353296,2 0,1.66421655 0,1.25000208 C0,0.835787619 0.333353296,0.5 0.744565427,0.5 L2.50505315,0.5 C3.61758612,0.499296376 4.56144997,1.32247984 4.71994915,2.43170465 L4.7651815,2.75000534 L18.2541383,2.75000534 C18.4701918,2.7497586 18.675711,2.84400039 18.8174039,3.00829339 C18.9590967,3.17258639 19.0230065,3.39074773 18.9925611,3.60620721 L18.1453201,9.56969518 C18.0855293,9.98851798 17.7548548,10.3152172 17.3379878,10.3673219 L7.032346,11.6627622 Z M6.71132662,15.4999951 C7.533415,15.501424 8.19883273,16.1736296 8.19788874,17.0017209 C8.19694274,17.8298121 7.52999256,18.500475 6.70790309,18.4999951 C5.88581362,18.4995243 5.21962701,17.8280907 5.21962701,16.9999951 C5.22038742,16.1708768 5.88821413,15.4993325 6.71132662,15.4999951 L6.71132662,15.4999951 Z M15.6613381,15.4999952 C16.4834363,15.5013826 17.1488914,16.1735699 17.1479747,17.001671 C17.1470561,17.8297721 16.480113,18.5004613 15.6580138,18.4999952 C14.8359146,18.4995382 14.169713,17.8281004 14.169713,16.9999952 C14.1704939,16.1709147 14.8382632,15.4993947 15.6613381,15.4999952 L15.6613381,15.4999952 Z" id="Shape"></path>
        </g>
    </g>
</svg>