<?xml version="1.0" encoding="UTF-8"?>
<svg width="16px" height="14px" viewBox="0 0 16 14" version="1.1" xmlns="http://www.w3.org/2000/svg" xmlns:xlink="http://www.w3.org/1999/xlink">
    <!-- Generator: Sketch 55.2 (78181) - https://sketchapp.com -->
    <title>Path</title>
    <desc>Created with Sketch.</desc>
    <g id="Symbols" stroke="none" stroke-width="1" fill="none" fill-rule="evenodd">
        <g id="Subscribe-to-newsletter-/-L-alternative" transform="translate(-551.000000, -297.000000)" fill="#ffffff" stroke="#ffffff" stroke-width="0.5">
            <g id="Subscribe-box" transform="translate(484.000000, 252.000000)">
                <g id="What-you-get" transform="translate(68.000000, 37.000000)">
                    <g id="1">
                        <path d="M1.33578749,14.6117819 L4.9432989,19.2829837 L12.6642674,9.28547725 C12.7887274,9.12407801 12.9856874,9.02060584 13.202434,9.00275365 C13.4191805,8.98490146 13.6335844,9.0544919 13.7882634,9.19290003 C14.0446407,9.43672021 14.0712367,9.81145734 13.8514283,10.0828939 L5.6930964,20.6467237 C5.52197101,20.868109 5.24203032,21 4.94326205,21 C4.64449379,21 4.36455309,20.868109 4.1934277,20.6467237 L0.148626544,15.4092652 C-0.0712443152,15.1378024 -0.044663148,14.7629988 0.211754585,14.5191381 C0.366450421,14.3807359 0.580866561,14.3111566 0.797619178,14.3290215 C1.0143718,14.3468865 1.21133194,14.4503718 1.33578749,14.6117819 Z" id="Path"></path>
                    </g>
                </g>
            </g>
        </g>
    </g>
</svg>