<?xml version="1.0" encoding="UTF-8"?>
<svg width="28px" height="22px" viewBox="0 0 28 22" version="1.1" xmlns="http://www.w3.org/2000/svg" xmlns:xlink="http://www.w3.org/1999/xlink">
    <!-- Generator: Sketch 59.1 (86144) - https://sketch.com -->
    <title>Group</title>
    <desc>Created with Sketch.</desc>
    <g id="Page-1" stroke="none" stroke-width="1" fill="none" fill-rule="evenodd">
        <g id="noun_download-from-cloud_1132961" fill="#FFFFFF">
            <g id="Clipped">
                <g id="Group">
                    <path d="M10,-1.7e-05 C6.9195,-1.7e-05 4.3649,2.351 4.0371,5.3477 C1.6887,6.1662 0,8.3883 0,11 C0,14.3011 2.6989,17.0001004 6,17.0001004 C6.36063592,17.0051003 6.69608136,16.8156247 6.87788772,16.5041272 C7.05969408,16.1926296 7.05969408,15.8073704 6.87788772,15.4958728 C6.69608136,15.1843753 6.36063592,14.9948997 6,15 C3.7811,15 2,13.2189 2,11 C2,9.0703 3.3567,7.4772 5.166,7.0918 C5.27955437,7.07423606 5.38923265,7.03723461 5.49022,6.98242 C5.49742886,6.97860143 5.50459073,6.97469481 5.511704,6.970701 C5.51694221,6.96749405 5.52215076,6.96423891 5.527329,6.960936 C5.88644739,6.75146005 6.07851698,6.34165692 6.009749,5.931636 C6.047186,3.745836 7.804749,2.000036 9.999949,2.000036 C11.543049,2.000036 12.859549,2.871326 13.521449,4.148436 C13.5902353,4.44465584 13.7900624,4.69348624 14.0644493,4.82459537 C14.3388361,4.9557045 14.6579704,4.95484728 14.931649,4.822266 C15.388759,4.620146 15.930169,4.499996 16.500049,4.499996 C17.972649,4.499996 19.237149,5.292786 19.912149,6.464796 C19.9829079,6.6740424 20.1209493,6.85397658 20.304729,6.976516 C20.3066774,6.97782521 20.3086304,6.97912755 20.310588,6.980423 C20.6137425,7.199569 21.0138513,7.23121621 21.347688,7.062454 C21.552398,7.024599 21.768368,6.999954 22.000028,6.999954 C24.218928,6.999954 26.000028,8.781054 26.000028,10.999954 C26.000028,13.218854 24.218928,14.999954 22.000028,14.999954 C21.6393921,14.9948537 21.3039466,15.1843293 21.1221403,15.4958268 C20.9403339,15.8073244 20.9403339,16.1925836 21.1221403,16.5040812 C21.3039466,16.8155787 21.6393921,17.0050543 22.000028,17.0001004 C25.301128,17.0001004 28.000028,14.301054 28.000028,10.999954 C28.000028,7.698854 25.301128,4.999954 22.000028,4.999954 C21.791078,4.999954 21.582478,5.01464 21.375028,5.037063 C20.300528,3.497863 18.510328,2.499963 16.500028,2.499963 C15.978368,2.499963 15.474628,2.573891 14.994128,2.699183 C13.922928,1.069583 12.079628,-1.7e-05 10.000028,-1.7e-05 L10,-1.7e-05 Z" id="Path"></path>
                    <path d="M13.984,10.986 C13.4324708,10.9946183 12.9920517,11.4481554 12.99962,11.9997 L12.99962,18.5856 L10.70662,16.2926 C10.5183491,16.0990644 10.2598236,15.9898763 9.98982,15.98986 C9.5828965,15.9899678 9.21661084,16.2366177 9.06348998,16.6136333 C8.91036913,16.9906489 9.00094706,17.4228491 9.29256,17.70666 L13.20466,21.61876 C13.3933001,21.8662948 13.6864257,22.0119019 13.9976458,22.0126705 C14.308866,22.013433 14.6027044,21.8692697 14.79256,21.622666 C14.7938689,21.6207176 14.7951709,21.6187646 14.796466,21.616807 L18.706666,17.706607 C18.9673292,17.4556599 19.0721191,17.0834892 18.9806851,16.7334041 C18.8892511,16.383319 18.615854,16.1099219 18.2657689,16.0184879 C17.9156838,15.9270539 17.5435131,16.0318438 17.292566,16.292507 L14.999566,18.585507 L14.999566,11.999607 C15.0032749,11.7293063 14.8974036,11.4690165 14.7060752,11.2780461 C14.5147468,11.0870757 14.2542593,10.9816919 13.983966,10.985907 L13.984,10.986 Z" id="Path"></path>
                </g>
            </g>
        </g>
    </g>
</svg>