<?xml version="1.0" encoding="UTF-8"?>
<svg width="24px" height="24px" viewBox="0 0 24 24" version="1.1" xmlns="http://www.w3.org/2000/svg" xmlns:xlink="http://www.w3.org/1999/xlink">
    <!-- Generator: Sketch 54.1 (76490) - https://sketchapp.com -->
    <title>Instagram</title>
    <desc>Created with Sketch.</desc>
    <g id="Homepage" stroke="none" stroke-width="1" fill="none" fill-rule="evenodd">
        <g id="Homepage-tablet-v0.20" transform="translate(-586.000000, -3225.000000)" fill="#FFFFFF" fill-rule="nonzero">
            <g id="Footer" transform="translate(0.000000, 2747.000000)">
                <g id="Social-media" transform="translate(513.000000, 441.000000)">
                    <g id="Social-media-icons" transform="translate(34.000000, 37.000000)">
                        <path d="M51.000024,0 C47.7409955,0 47.332343,0.013814 46.0524155,0.0722135 C44.7751555,0.1304695 43.9028325,0.3333435 43.139544,0.6300085 C42.350438,0.936629 41.681227,1.3469485 41.014064,2.014064 C40.3469485,2.681227 39.936629,3.350438 39.6300085,4.139544 C39.3333435,4.9028325 39.1304695,5.7751555 39.0722135,7.0524155 C39.013814,8.332343 39,8.7409955 39,12.000024 C39,15.2590045 39.013814,15.667657 39.0722135,16.9475845 C39.1304695,18.2248445 39.3333435,19.0971675 39.6300085,19.860456 C39.936629,20.649562 40.3469485,21.318773 41.014064,21.985936 C41.681227,22.6530515 42.350438,23.063371 43.139544,23.3700395 C43.9028325,23.6666565 44.7751555,23.8695305 46.0524155,23.9277865 C47.332343,23.986186 47.7409955,24 51.000024,24 C54.2590045,24 54.667657,23.986186 55.9475845,23.9277865 C57.2248445,23.8695305 58.0971675,23.6666565 58.860456,23.3700395 C59.649562,23.063371 60.318773,22.6530515 60.985936,21.985936 C61.6530515,21.318773 62.063371,20.649562 62.3700395,19.860456 C62.6666565,19.0971675 62.8695305,18.2248445 62.9277865,16.9475845 C62.986186,15.667657 63,15.2590045 63,12.000024 C63,8.7409955 62.986186,8.332343 62.9277865,7.0524155 C62.8695305,5.7751555 62.6666565,4.9028325 62.3700395,4.139544 C62.063371,3.350438 61.6530515,2.681227 60.985936,2.014064 C60.318773,1.3469485 59.649562,0.936629 58.860456,0.6300085 C58.0971675,0.3333435 57.2248445,0.1304695 55.9475845,0.0722135 C54.667657,0.013814 54.2590045,0 51.000024,0 Z M51.000024,2.1621585 C54.20413,2.1621585 54.583678,2.1744005 55.84903,2.232133 C57.019018,2.285483 57.654409,2.480973 58.0772565,2.6453105 C58.6373855,2.8629985 59.037131,3.123033 59.457025,3.542975 C59.876967,3.962869 60.1370015,4.3626145 60.3546895,4.9227435 C60.519027,5.345591 60.714517,5.980982 60.767867,7.15097 C60.8255995,8.416322 60.8378415,8.79587 60.8378415,12.000024 C60.8378415,15.20413 60.8255995,15.583678 60.767867,16.84903 C60.714517,18.019018 60.519027,18.654409 60.3546895,19.0772565 C60.1370015,19.6373855 59.876967,20.037131 59.457025,20.457025 C59.037131,20.876967 58.6373855,21.1370015 58.0772565,21.3546895 C57.654409,21.519027 57.019018,21.714517 55.84903,21.767867 C54.5838685,21.8255995 54.204368,21.8378415 51.000024,21.8378415 C47.795632,21.8378415 47.416179,21.8255995 46.15097,21.767867 C44.980982,21.714517 44.345591,21.519027 43.9227435,21.3546895 C43.3626145,21.1370015 42.962869,20.876967 42.542975,20.457025 C42.1230805,20.037131 41.8629985,19.6373855 41.6453105,19.0772565 C41.480973,18.654409 41.285483,18.019018 41.232133,16.84903 C41.1744005,15.583678 41.1621585,15.20413 41.1621585,12.000024 C41.1621585,8.79587 41.1744005,8.416322 41.232133,7.15097 C41.285483,5.980982 41.480973,5.345591 41.6453105,4.9227435 C41.8629985,4.3626145 42.123033,3.962869 42.542975,3.542975 C42.962869,3.123033 43.3626145,2.8629985 43.9227435,2.6453105 C44.345591,2.480973 44.980982,2.285483 46.15097,2.232133 C47.416322,2.1744005 47.79587,2.1621585 51.000024,2.1621585 Z M51.000024,5.8378415 C47.596712,5.8378415 44.8378415,8.596712 44.8378415,12.000024 C44.8378415,15.403288 47.596712,18.1621585 51.000024,18.1621585 C54.403288,18.1621585 57.1621585,15.403288 57.1621585,12.000024 C57.1621585,8.596712 54.403288,5.8378415 51.000024,5.8378415 Z M51.000024,16 C48.7908505,16 47,14.2091495 47,12.000024 C47,9.7908505 48.7908505,8 51.000024,8 C53.2091495,8 55,9.7908505 55,12.000024 C55,14.2091495 53.2091495,16 51.000024,16 Z M58.845642,5.594384 C58.845642,6.3896825 58.2009145,7.034362 57.405616,7.034362 C56.610365,7.034362 55.965638,6.3896825 55.965638,5.594384 C55.965638,4.7990855 56.610365,4.154358 57.405616,4.154358 C58.2009145,4.154358 58.845642,4.7990855 58.845642,5.594384 Z" id="Instagram"></path>
                    </g>
                </g>
            </g>
        </g>
    </g>
</svg>