<?xml version="1.0" encoding="UTF-8"?>
<svg width="21px" height="21px" viewBox="0 0 21 21" version="1.1" xmlns="http://www.w3.org/2000/svg" xmlns:xlink="http://www.w3.org/1999/xlink">
    <!-- Generator: Sketch 54.1 (76490) - https://sketchapp.com -->
    <title>Search icon</title>
    <desc>Created with Sketch.</desc>
    <g id="Homepage" stroke="none" stroke-width="1" fill="none" fill-rule="evenodd">
        <g id="Homepage-v0.20" transform="translate(-1128.000000, -70.000000)" fill="#2D2D2D" fill-rule="nonzero">
            <g id="Menu" transform="translate(80.000000, 50.000000)">
                <g id="Search-icon" transform="translate(1048.000000, 20.000000)">
                    <path d="M8.69670383,8.31268057e-06 C11.9824143,-0.00452536843 14.9893432,1.84573448 16.4662861,4.78088167 C17.943229,7.71602886 17.6372584,11.2334172 15.6756908,13.8694366 L20.3703502,17.840415 C20.8837648,18.2785727 21.1078953,18.9677744 20.9504172,19.6241221 C20.7929391,20.2804697 20.2804921,20.7929327 19.6241648,20.9504157 C18.9678375,21.1078987 18.2786573,20.8837612 17.8405132,20.3703306 L13.868697,15.6762577 C10.8347754,17.9249132 6.69610537,17.9573578 3.62730481,15.7565439 C0.558504259,13.55573 -0.738273494,9.62521224 0.418348952,6.03023723 C1.5749714,2.43526222 4.92035441,-0.00162598967 8.69670383,8.31268057e-06 L8.69670383,8.31268057e-06 Z M8.69670383,15.5622414 C12.4884025,15.5622414 15.5621815,12.4883668 15.5621815,8.69655034 C15.5621815,4.90473386 12.4884025,1.83085927 8.69670383,1.83085927 C4.90500518,1.83085927 1.83122611,4.90473386 1.83122611,8.69655034 C1.83125139,12.4883489 4.90502306,15.5621956 8.69670383,15.5621956 L8.69670383,15.5622414 Z"></path>
                </g>
            </g>
        </g>
    </g>
</svg>