<?xml version="1.0" encoding="UTF-8"?>
<svg width="24px" height="20px" viewBox="0 0 24 20" version="1.1" xmlns="http://www.w3.org/2000/svg" xmlns:xlink="http://www.w3.org/1999/xlink">
    <!-- Generator: Sketch 54.1 (76490) - https://sketchapp.com -->
    <title>Twitter</title>
    <desc>Created with Sketch.</desc>
    <g id="Homepage" stroke="none" stroke-width="1" fill="none" fill-rule="evenodd">
        <g id="Homepage-tablet-v0.20" transform="translate(-664.000000, -3227.000000)" fill="#FFFFFF">
            <g id="Footer" transform="translate(0.000000, 2747.000000)">
                <g id="Social-media" transform="translate(513.000000, 441.000000)">
                    <g id="Social-media-icons" transform="translate(34.000000, 37.000000)">
                        <path d="M141,4.3676415 C140.118155,4.769231 139.168691,5.040809 138.172742,5.1621525 C139.189822,4.5381005 139.970241,3.5485735 140.337911,2.3698085 C139.385631,2.9476345 138.333334,3.368003 137.209192,3.593355 C136.313259,2.6124955 135.032752,2 133.615601,2 C130.898222,2 128.693608,4.260744 128.693608,7.048754 C128.693608,7.444565 128.735869,7.828819 128.820391,8.1986275 C124.728121,7.987721 121.100722,5.979776 118.670716,2.9216325 C118.246699,3.669917 118.004402,4.5381005 118.004402,5.462622 C118.004402,7.2134345 118.87357,8.759119 120.194929,9.664861 C119.389153,9.6403035 118.628456,9.4106175 117.96355,9.0350305 L117.96355,9.097147 C117.96355,11.54424 119.661032,13.58541 121.91495,14.0476705 C121.502201,14.166125 121.066913,14.225352 120.617538,14.225352 C120.300581,14.225352 119.990668,14.1950165 119.690615,14.135789 C120.317486,16.140845 122.134707,17.6013 124.290016,17.6403035 C122.605212,18.995305 120.480895,19.802817 118.174855,19.802817 C117.777602,19.802817 117.384575,19.779704 117,19.733478 C119.179257,21.163597 121.768445,22 124.547808,22 C133.60574,22 138.557317,14.3076925 138.557317,7.6352475 C138.557317,7.4156735 138.55309,7.1960995 138.544638,6.9808595 C139.506779,6.268689 140.342138,5.3802815 141,4.3676415" id="Twitter"></path>
                    </g>
                </g>
            </g>
        </g>
    </g>
</svg>