<?xml version="1.0" encoding="UTF-8"?>
<svg width="92px" height="84px" viewBox="0 0 92 84" version="1.1" xmlns="http://www.w3.org/2000/svg" xmlns:xlink="http://www.w3.org/1999/xlink">
    <!-- Generator: Sketch 59.1 (86144) - https://sketch.com -->
    <title>Shape</title>
    <desc>Created with Sketch.</desc>
    <g id="Page-1" stroke="none" stroke-width="1" fill="none" fill-rule="evenodd">
        <g id="noun_Warning_228825" fill="#FFFFFF" fill-rule="nonzero">
            <path d="M14,83.4 L77.8,83.4 C88.3,83.4 94.9,71.9 89.7,62.9 L57.7,7.5 C52.5,-1.7 39.3,-1.7 34.1,7.5 L2.1,62.9 C-3,72 3.5,83.4 14,83.4 Z M46,71.1 C43.2,71.1 40.9,68.8 40.9,66 C40.9,63.2 43.2,60.9 46,60.9 C48.8,60.9 51.1,63.2 51,66.1 C51.1,68.8 48.7,71.1 46,71.1 Z M44.7,25.1 C47.1,24.5 49.6,25.7 50.6,28 C50.9,28.8 51.1,29.6 51.1,30.5 C51,33 50.8,35.6 50.6,38.1 C50.4,42 50.1,46 49.9,49.9 C49.8,51.2 49.8,52.3 49.8,53.6 C49.7,55.7 48.1,57.3 46,57.3 C43.9,57.3 42.3,55.8 42.2,53.7 C41.9,47.6 41.5,41.5 41.2,35.4 C41.1,33.8 41,32.2 40.9,30.5 C40.8,28 42.3,25.8 44.7,25.1 Z" id="Shape"></path>
        </g>
    </g>
</svg>