<?xml version="1.0" encoding="UTF-8"?>
<svg width="24px" height="17px" viewBox="0 0 24 17" version="1.1" xmlns="http://www.w3.org/2000/svg" xmlns:xlink="http://www.w3.org/1999/xlink">
    <!-- Generator: Sketch 54.1 (76490) - https://sketchapp.com -->
    <title>Youtube</title>
    <desc>Created with Sketch.</desc>
    <g id="Homepage" stroke="none" stroke-width="1" fill="none" fill-rule="evenodd">
        <g id="Homepage-tablet-v0.20" transform="translate(-625.000000, -3229.000000)" fill="#FFFFFF" fill-rule="nonzero">
            <g id="Footer" transform="translate(0.000000, 2747.000000)">
                <g id="Social-media" transform="translate(513.000000, 441.000000)">
                    <g id="Social-media-icons" transform="translate(34.000000, 37.000000)">
                        <path d="M87.522,15.634958 L87.52125,8.843871 L94.00575,12.251122 L87.522,15.634958 Z M101.76,7.6670815 C101.76,7.6670815 101.52525,6.0015995 100.806,5.268183 C99.89325,4.3051495 98.87025,4.3006175 98.4015,4.244724 C95.043,4 90.00525,4 90.00525,4 L89.99475,4 C89.99475,4 84.957,4 81.5985,4.244724 C81.129,4.3006175 80.10675,4.3051495 79.19325,5.268183 C78.474,6.0015995 78.24,7.6670815 78.24,7.6670815 C78.24,7.6670815 78,9.6233615 78,11.5788865 L78,13.412805 C78,15.369085 78.24,17.32461 78.24,17.32461 C78.24,17.32461 78.474,18.990092 79.19325,19.723508 C80.10675,20.686542 81.306,20.656329 81.84,20.756787 C83.76,20.9425955 90,21 90,21 C90,21 95.043,20.992447 98.4015,20.747723 C98.87025,20.691074 99.89325,20.686542 100.806,19.723508 C101.52525,18.990092 101.76,17.32461 101.76,17.32461 C101.76,17.32461 102,15.369085 102,13.412805 L102,11.5788865 C102,9.6233615 101.76,7.6670815 101.76,7.6670815 L101.76,7.6670815 Z" id="Youtube"></path>
                    </g>
                </g>
            </g>
        </g>
    </g>
</svg>