<?xml version="1.0" encoding="UTF-8"?>
<svg width="128px" height="128px" viewBox="0 0 128 128" version="1.1" xmlns="http://www.w3.org/2000/svg" xmlns:xlink="http://www.w3.org/1999/xlink">
    <title>Group 9</title>
    <defs>
        <radialGradient cx="50%" cy="50%" fx="50%" fy="50%" r="50%" id="radialGradient-1">
            <stop stop-color="#32C5FF" offset="0%"></stop>
            <stop stop-color="#0091FF" offset="100%"></stop>
        </radialGradient>
        <rect id="path-2" x="0" y="0" width="128" height="128" rx="28.4444444"></rect>
    </defs>
    <g id="---↳-Homey-Pro" stroke="none" stroke-width="1" fill="none" fill-rule="evenodd">
        <g id="Homey-Pro-Desktop" transform="translate(-1056.000000, -6844.000000)">
            <g id="Homey-Experiments" transform="translate(352.000000, 6387.000000)">
                <g id="Experiments" transform="translate(0.000000, 457.000000)">
                    <g id="ir-copy" transform="translate(640.000000, 0.000000)">
                        <g id="Group-9" transform="translate(64.000000, 0.000000)">
                            <g id="Icon-BG">
                                <mask id="mask-3" fill="white">
                                    <use xlink:href="#path-2"></use>
                                </mask>
                                <use id="Mask" fill="url(#radialGradient-1)" xlink:href="#path-2"></use>
                                <g id="lines" opacity="0.25" mask="url(#mask-3)" stroke="#FFFFFF" stroke-width="0.533333333">
                                    <line x1="12.8" y1="0" x2="12.8" y2="128" id="Path-3-Copy-9"></line>
                                    <line x1="0" y1="25.6" x2="128" y2="25.6" id="Path-3-Copy"></line>
                                    <line x1="0" y1="51.2" x2="128" y2="51.2" id="Path-3-Copy-2"></line>
                                    <line x1="0" y1="76.8" x2="128" y2="76.8" id="Path-3-Copy-3"></line>
                                    <line x1="0" y1="102.4" x2="128" y2="102.4" id="Path-3-Copy-4"></line>
                                    <line x1="25.6" y1="0" x2="25.6" y2="128" id="Path-3-Copy-5"></line>
                                    <line x1="51.2" y1="0" x2="51.2" y2="128" id="Path-3-Copy-6"></line>
                                    <line x1="76.8" y1="0" x2="76.8" y2="128" id="Path-3-Copy-7"></line>
                                    <line x1="102.4" y1="0" x2="102.4" y2="128" id="Path-3-Copy-8"></line>
                                    <line x1="25.6" y1="0" x2="25.6" y2="128" id="Path-3-Copy-10" stroke-opacity="0.5"></line>
                                    <line x1="38.4" y1="0" x2="38.4" y2="128" id="Path-3-Copy-11"></line>
                                    <line x1="51.2" y1="0" x2="51.2" y2="128" id="Path-3-Copy-12" stroke-opacity="0.5"></line>
                                    <line x1="64" y1="0" x2="64" y2="128" id="Path-3-Copy-13"></line>
                                    <line x1="76.8" y1="0" x2="76.8" y2="128" id="Path-3-Copy-14" stroke-opacity="0.5"></line>
                                    <line x1="89.6" y1="0" x2="89.6" y2="128" id="Path-3-Copy-15"></line>
                                    <line x1="102.4" y1="0" x2="102.4" y2="128" id="Path-3-Copy-16" stroke-opacity="0.5"></line>
                                    <line x1="115.2" y1="0" x2="115.2" y2="128" id="Path-3-Copy-17"></line>
                                    <line x1="-3.66373598e-15" y1="12.8" x2="128" y2="12.8" id="Path-3-Copy-18"></line>
                                    <line x1="-3.66373598e-15" y1="25.6" x2="128" y2="25.6" id="Path-3-Copy-19" stroke-opacity="0.5"></line>
                                    <line x1="-3.66373598e-15" y1="38.4" x2="128" y2="38.4" id="Path-3-Copy-20"></line>
                                    <line x1="-3.66373598e-15" y1="51.2" x2="128" y2="51.2" id="Path-3-Copy-21" stroke-opacity="0.5"></line>
                                    <line x1="-3.66373598e-15" y1="64" x2="128" y2="64" id="Path-3-Copy-22"></line>
                                    <line x1="-3.66373598e-15" y1="76.8" x2="128" y2="76.8" id="Path-3-Copy-23" stroke-opacity="0.5"></line>
                                    <line x1="-3.66373598e-15" y1="89.6" x2="128" y2="89.6" id="Path-3-Copy-24"></line>
                                    <line x1="-3.66373598e-15" y1="102.4" x2="128" y2="102.4" id="Path-3-Copy-25" stroke-opacity="0.5"></line>
                                    <line x1="-3.66373598e-15" y1="115.2" x2="128" y2="115.2" id="Path-3-Copy-26"></line>
                                </g>
                            </g>
                            <g id="Group-8" transform="translate(36.000000, 20.000000)" fill="#FFFFFF" fill-rule="nonzero">
                                <path d="M27.8837899,21.3394343 L28,21.4082419 C30.5450848,19.8897969 39.1821409,15.5132596 45.9079518,19.9004714 C47.224609,20.6156616 61.1798182,28.8336779 53.9164855,51.0072441 C53.703377,51.5036075 48.6389975,63.1668126 42.6461711,67.5353441 C41.0295332,69.0537891 36.894958,70.9511781 32.1699232,67.7848601 C31.7381441,67.6095934 30.9204093,66.4609331 28,66.5225382 L27.7149044,66.520331 C25.0255039,66.5364289 24.2474633,67.6154356 23.8300768,67.7848601 C19.105042,70.9511781 14.9704668,69.0537891 13.3538289,67.5353441 C7.36100247,63.1668126 2.29662298,51.5036075 2.08351455,51.0072441 C-5.17981825,28.8336779 8.77539096,20.6156616 10.0920482,19.9004714 C16.7189501,15.5777774 25.2012974,19.7629705 27.8837899,21.3394343 Z M28.7212862,24.4293478 L28,24.9211225 L27.2787138,24.4293478 C27.1905439,24.3696589 18.379957,18.4555754 12.104253,22.3369403 L11.8610524,22.493153 L11.712194,22.58049 C11.1655863,22.8558435 -1.56466647,29.564293 4.75660912,49.9950433 L4.95402662,50.6183647 L4.96664728,50.6465354 C5.2406656,51.2663993 9.93389262,61.9466171 15.0888429,65.9032586 L15.3308043,66.0837377 L15.4904887,66.219446 C15.520125,66.2477969 15.5747695,66.298224 15.6532098,66.3631974 L15.7586823,66.4476658 C16.5762996,67.0814161 19.0404984,68.5299148 22.4314467,66.3229727 L22.6695191,66.1630128 L22.8901001,66.0393973 C23.0801905,65.9547896 24.4221712,64.6924257 27.6788361,64.6136106 L28,64.609 L28.3211639,64.6136106 C31.5778288,64.6924257 32.9198095,65.9547896 33.1098999,66.0393973 L33.3304809,66.1630128 C36.8439972,68.5977274 39.404686,67.0961545 40.2413177,66.4476658 L40.3467902,66.3631974 C40.4252305,66.298224 40.479875,66.2477969 40.5095113,66.219446 L40.6691957,66.0837377 C45.9183651,62.28283 50.7550529,51.2760847 51.0333527,50.6465354 L51.0459734,50.6183647 C57.8230864,29.7004736 44.839935,22.8586249 44.287806,22.58049 L44.1389476,22.493153 C37.8503606,18.3009754 28.8106012,24.3688837 28.7212862,24.4293478 Z M43.7331694,0 L43.8067848,1.41401957 C44.6252808,16.877818 29.8653059,18.367481 29.1284486,18.4309739 L29.1011081,18.4331859 L27.5806158,18.5363892 L27.6743081,17.0138051 C28.5779303,2.26164053 41.3862678,0.276761292 42.2797773,0.157489645 L42.3277848,0.151454229 L43.7331694,0 Z M41.1552925,3.11218335 C38.2053234,3.89357995 31.7552773,6.60769334 30.5105081,15.5140062 C33.7790311,14.8264308 40.8996464,12.2771746 41.1552925,3.11218335 Z" id="Combined-Shape"></path>
                            </g>
                        </g>
                    </g>
                </g>
            </g>
        </g>
    </g>
</svg>