<svg width="1920" height="423" xmlns="http://www.w3.org/2000/svg"><defs><linearGradient x1="50%" y1=".784%" x2="50%" y2="100%" id="a"><stop stop-color="#0091FF" stop-opacity=".25" offset="0%"/><stop stop-color="#0091FF" stop-opacity="0" offset="100%"/></linearGradient></defs><g fill="none" fill-rule="evenodd"><path d="M51.61 42.438c103.431 0 103.431 155.59 206.862 155.59 103.43 0 103.43-170.913 198.905-170.913 103.43 0 103.43 97.833 206.862 97.833 103.43 0 103.43 173.27 206.861 173.27 95.475 0 95.475-188.593 198.905-188.593 103.431 0 103.431-18.86 206.862-18.86 103.43 0 103.43-75.437 206.861-75.437 95.475 0 95.475 148.517 198.906 148.517 103.43 0 103.43-163.84 206.861-163.84H2088.4c103.431 0 103.431 127.3 206.862 127.3 68.954 0 68.877 98.447-.231 295.342h-2243c-69.234-253.473-69.374-380.209-.42-380.209z" fill="url(#a)" transform="translate(-211.03 5.353)"/><path d="M-159.42 47.706C-55.99 47.706-55.99 203 47.44 203c103.43 0 103.43-170.588 198.905-170.588 103.431 0 103.431 97.647 206.862 97.647 103.43 0 103.43 172.941 206.861 172.941 95.475 0 95.475-188.235 198.906-188.235 103.43 0 103.43-18.824 206.861-18.824 103.43 0 103.43-75.294 206.861-75.294 95.475 0 95.475 148.235 198.906 148.235 103.43 0 103.43-163.53 206.861-163.53h198.905c103.431 0 103.431 127.06 206.862 127.06" stroke="#0091FF" stroke-width="4"/></g></svg>