<?xml version="1.0" encoding="UTF-8"?>
<svg width="960px" height="960px" viewBox="0 0 960 960" version="1.1" xmlns="http://www.w3.org/2000/svg" xmlns:xlink="http://www.w3.org/1999/xlink">
    <title>devices / LIFX / /candle</title>
    <g id="devices-/-LIFX-/-/candle" stroke="none" stroke-width="1" fill="none" fill-rule="evenodd">
        <path d="M315,488 C364.251979,492 419.585312,494 481,494" id="Path-7" stroke="#000000" stroke-width="20" stroke-linejoin="round"></path>
        <path d="M488.846206,767 L531.19482,767 C534.994781,767 538.59716,765.307456 541.022112,762.382738 L546.679688,755.559175 C551.377825,749.892784 554.131481,742.867865 554.535065,735.519128 C554.699992,732.516026 554.821878,729.784746 554.900725,727.325288 C554.925257,726.560033 558.177806,720.45473 559.796408,720.050031 L629.63953,645.951944 C634.88552,640.386358 638.141004,633.241283 638.897983,625.631663 L645.944019,494.1278 C646.069976,491.776988 645.944019,482.417379 645.944019,480.040165 C645.944019,189.036164 574.631863,22 480.009454,22 C385.387046,22 315.056751,189.036164 315.056751,480.040165 C315.056751,482.471322 314.929061,491.744646 315.056751,494.1278 L322.102788,625.631663 C322.859766,633.241283 326.11525,640.386358 331.361241,645.951944 L401.204362,720.050031 C402.822964,720.45473 406.075513,726.560033 406.100046,727.325288 C406.178892,729.784746 406.300778,732.516026 406.465705,735.519128 C406.869289,742.867865 409.622945,749.892784 414.321083,755.559175 L419.978658,762.382738 C422.40361,765.307456 426.005989,767 429.805951,767 L472.154564,767 L488.846206,767 Z" id="Path" stroke="#000000" stroke-width="40"></path>
        <path d="M480,488 C529.251979,492 584.585312,494 646,494" id="Path-7" stroke="#000000" stroke-width="20" stroke-linejoin="round" transform="translate(563.000000, 491.000000) scale(-1, 1) translate(-563.000000, -491.000000) "></path>
        <path d="M309,614 C349.773419,617.333333 412.106752,619 496,619" id="Path-4" stroke="#000000" stroke-width="20" stroke-linejoin="round"></path>
        <path d="M464,614 C504.773419,617.333333 567.106752,619 651,619" id="Path-4" stroke="#000000" stroke-width="20" stroke-linejoin="round" transform="translate(557.500000, 616.500000) scale(-1, 1) translate(-557.500000, -616.500000) "></path>
        <g id="Creation/Fixture-E27" transform="translate(423.000000, 782.000000)" stroke="#000000">
            <path d="M5.91489362,24.0789474 C23.5161233,29.1477135 75.9307962,37.050684 107.171727,37.050684" id="Path-2" stroke-width="15" stroke-linecap="round"></path>
            <path d="M8.37377023,59.7686317 C28.3167476,64.8265392 77.0195432,71.9410349 106.661088,71.9410349" id="Path-2" stroke-width="15" stroke-linecap="round"></path>
            <path d="M0.29787234,0.548245614 C3.81877333,15.2186455 5.57922382,32.9598635 5.57922382,53.7718996 C5.57922382,74.5839356 5.57922382,90.4126376 5.57922382,101.258005 C23.8090836,140.593558 39.5764256,162.025286 52.88125,165.553188 C53.4675568,165.708653 55.6586224,166.074561 57.4893617,166.074561 C59.7517144,166.074561 61.7226985,165.669059 62.5299771,165.432453 C75.7436055,161.559661 91.3667797,140.168179 109.3995,101.258005 C109.3995,90.4126376 109.3995,74.5839356 109.3995,53.7718996 C109.3995,32.9598635 111.15995,15.2186455 114.680851,0.548245614" id="Path-3" stroke-width="20" stroke-linecap="round" stroke-linejoin="round"></path>
            <path d="M111.106383,97.9166667 L105.444656,109.430969 C98.4725821,131.991674 92.0551256,143.394015 86.1922862,143.637992 C77.7228444,143.990442 68.7993385,144.166667 59.4217686,144.166667 C59.0217528,144.166667 58.6329689,144.131934 58.255417,144.064419 C57.8783515,144.131873 57.4892364,144.166667 57.0888697,144.166667 C47.7112998,144.166667 38.7877939,143.990442 30.3183521,143.637992 C24.4555127,143.394015 18.0380562,131.991674 11.0659826,109.430969 L11.0659826,109.430969 L5.40425532,97.9166667 C20.7458796,99.381051 37.9740844,100.113243 57.0888697,100.113243 C57.4892364,100.113243 57.8783515,100.148037 58.2562148,100.215668 C58.6329689,100.147976 59.0217528,100.113243 59.4217686,100.113243 C78.5365539,100.113243 95.7647587,99.381051 111.106383,97.9166667 Z" id="Combined-Shape" stroke-width="2" fill="#000000"></path>
        </g>
        <path d="M409,714 C423.40585,716.666667 444.304799,718 471.696849,718 C499.088898,718 460.911102,718 488.303151,718 C515.695201,718 536.59415,716.666667 551,714" id="Path" stroke="#000000" stroke-width="20"></path>
    </g>
</svg>