<?xml version="1.0" encoding="UTF-8"?>
<svg width="960px" height="960px" viewBox="0 0 960 960" version="1.1" xmlns="http://www.w3.org/2000/svg" xmlns:xlink="http://www.w3.org/1999/xlink">
    <title>devices / sonos / (play) one</title>
    <g id="devices-/-sonos-/-(play)-one" stroke="none" stroke-width="1" fill="none" fill-rule="evenodd" stroke-linecap="round" stroke-linejoin="round">
        <path d="M161.697042,229.560117 C169.035804,194.791789 260.770331,136.844575 335.992644,124.035191 C367.182384,117.935484 443.627823,114.27566 515.180755,124.645161 C635.658768,139.894428 701.707628,158.193548 757.971472,176.492669 C782.434012,186.86217 800.169354,194.791789 799.557791,210.651026 L799.557791,217.970674 C801.392482,216.750733 802.004045,214.31085 802.615609,211.870968 C802.004045,211.260997 802.004045,210.651026 802.004045,209.431085 L802.004045,208.211144 C802.004045,206.991202 802.615609,206.381232 802.615609,205.771261 C803.227172,191.131965 803.227172,180.152493 803.838736,163.683284 C804.450299,124.035191 805.673426,114.88563 757.971472,92.9266862 C704.153882,71.5777126 622.815934,52.058651 513.957628,33.1495601 C448.520332,20.9501466 389.19867,20.9501466 335.992644,33.1495601 C259.547204,52.6686217 204.506488,87.4369501 168.42424,139.894428 C162.308605,149.043988 158.639224,215.530792 160.473914,232 C161.085478,231.390029 161.085478,230.170088 161.697042,229.560117 Z" id="Shape" stroke="#000000" stroke-width="20"></path>
        <path d="M159.306577,864.398915 C171.532521,877.847454 186.203654,915.831829 203.931273,922.556098 C276.675641,943.340204 724.145199,937.227231 758.98914,922.556098 C774.27157,913.997937 786.497514,876.624859 795.666972,866.844104 C670.962341,867.455401 555.427169,867.455401 448.450157,867.455401 C343.307037,866.844104 246.110781,865.62151 159.306577,864.398915 Z" id="Path" stroke="#000000" stroke-width="20"></path>
        <path d="M335.992644,33.1495601 C389.19867,20.9501466 448.520332,20.9501466 513.957628,33.1495601 C622.815934,52.058651 704.153882,71.5777126 757.971472,92.9266862 C805.673426,114.88563 804.450299,124.035191 803.838736,163.683284 C803.621095,169.544267 803.480908,174.709989 803.363046,179.592829 C803.4459,185.201451 803.279615,191.698516 802.864013,199.083056 C802.793284,201.245123 802.71205,203.462685 802.615609,205.771261 C802.615609,206.030657 802.50501,206.290053 802.377878,206.596361 C802.261662,208.191034 802.135831,209.821659 802,211.487885 L802.05848,210.754653 C802.125962,211.195718 802.277102,211.533343 802.615609,211.870968 C802.419908,212.65173 802.224208,213.432493 801.988428,214.17328 L798.940068,893.319198 C796.750805,895.32091 794.620638,897.182833 792.549567,898.904968 C783.828905,907.310513 772.74057,915.246826 759.285303,922.71401 C724.40634,937.26781 276.487032,943.331894 203.669549,922.71401 C186.405284,916.22439 172.036906,906.864929 160.000941,894.077221 C159.668914,893.827567 159.334925,893.574719 159,893.319198 L159,893.319198 L160,232.890661 C160.102463,231.985335 160.205846,231.089269 160.31015,230.202464 C158.884634,211.195333 162.510884,148.741361 168.42424,139.894428 C204.506488,87.4369501 259.547204,52.6686217 335.992644,33.1495601 Z" id="Combined-Shape" stroke="#000000" stroke-width="40"></path>
    </g>
</svg>