<?xml version="1.0" encoding="UTF-8"?>
<svg width="26px" height="12px" viewBox="0 0 26 12" version="1.1" xmlns="http://www.w3.org/2000/svg" xmlns:xlink="http://www.w3.org/1999/xlink">
    <title>battery / type / AA Copy</title>
    <g id="battery-/-type-/-AA-Copy" stroke="none" stroke-width="1" fill="none" fill-rule="evenodd">
        <path d="M23.4230664,1 L1.3,1 C0.582029825,1 0,1.64669981 0,2.44444444 L0,9.55555556 C0,10.3533002 0.582029825,11 1.3,11 L23.4230664,11 L23.5559839,10.9925425 C24.2115168,10.9185725 24.7230664,10.3034412 24.7230664,9.55555556 L24.722,8.33333333 L25.1,8.33333333 C25.5970563,8.33333333 26,7.88561808 26,7.33333333 L26,4.66666667 L25.9929877,4.54122879 C25.9374518,4.04815185 25.5588212,3.66666667 25.1,3.66666667 L24.722,3.66666667 L24.7230664,2.4444675 C24.7230664,1.64669981 24.1410366,1 23.4230664,1 Z" id="AA" fill="#C4C5C8" fill-rule="nonzero"></path>
    </g>
</svg>