<?xml version="1.0" encoding="UTF-8"?>
<svg width="18px" height="12px" viewBox="0 0 18 12" version="1.1" xmlns="http://www.w3.org/2000/svg" xmlns:xlink="http://www.w3.org/1999/xlink">
    <title>battery / type / CR123A Copy</title>
    <g id="battery-/-type-/-CR123A-Copy" stroke="none" stroke-width="1" fill="none" fill-rule="evenodd">
        <g id="Group" transform="translate(0.000000, 1.000000)" fill="#C4C5C8" fill-rule="nonzero">
            <g id="battery-/-AA">
                <path d="M15.6465872,0 L1.3,0 C0.582029825,0 0,0.646699806 0,1.44444444 L0,8.55555556 C0,9.35330019 0.582029825,10 1.3,10 L15.6465872,10 L15.7795047,9.9925425 C16.4350376,9.91857251 16.9465872,9.30344115 16.9465872,8.55555556 L16.945,7.40666667 L17.0994903,7.40740712 C17.5970563,7.40740741 18,6.95969216 18,6.40740741 L18,3.59259259 L17.9929877,3.46715472 C17.9374518,2.97407778 17.5588212,2.59259259 17.1,2.59259259 L16.945,2.59222222 L16.9465872,1.44465725 C16.9465872,0.646699806 16.3645574,0 15.6465872,0 Z" id="Combined-Shape"></path>
            </g>
        </g>
    </g>
</svg>