<?xml version="1.0" encoding="UTF-8"?>
<svg width="12px" height="12px" viewBox="0 0 12 12" version="1.1" xmlns="http://www.w3.org/2000/svg" xmlns:xlink="http://www.w3.org/1999/xlink">
    <title>battery / type / CR1632 Copy</title>
    <g id="battery-/-type-/-CR1632-Copy" stroke="none" stroke-width="1" fill="none" fill-rule="evenodd">
        <path d="M6,0 C9.3137085,0 12,2.6862915 12,6 C12,9.3137085 9.3137085,12 6,12 C2.6862915,12 0,9.3137085 0,6 C0,2.6862915 2.6862915,0 6,0 Z M6,0.705882353 C3.07613956,0.705882353 0.705882353,3.07613956 0.705882353,6 C0.705882353,8.92386044 3.07613956,11.2941176 6,11.2941176 C8.92386044,11.2941176 11.2941176,8.92386044 11.2941176,6 C11.2941176,3.07613956 8.92386044,0.705882353 6,0.705882353 Z M6,1.6097561 C8.42466476,1.6097561 10.3902439,3.57533524 10.3902439,6 C10.3902439,8.42466476 8.42466476,10.3902439 6,10.3902439 C3.57533524,10.3902439 1.6097561,8.42466476 1.6097561,6 C1.6097561,3.57533524 3.57533524,1.6097561 6,1.6097561 Z" id="Combined-Shape" fill="#C4C5C8"></path>
    </g>
</svg>