<?xml version="1.0" encoding="UTF-8"?>
<svg width="36px" height="36px" viewBox="0 0 36 36" version="1.1" xmlns="http://www.w3.org/2000/svg" xmlns:xlink="http://www.w3.org/1999/xlink">
    <title>testimonials / app-store</title>
    <defs>
        <linearGradient x1="50%" y1="0%" x2="50%" y2="100%" id="linearGradient-1">
            <stop stop-color="#37AEF5" offset="0%"></stop>
            <stop stop-color="#1A75E8" offset="100%"></stop>
        </linearGradient>
    </defs>
    <g id="testimonials-/-app-store" stroke="none" stroke-width="1" fill="none" fill-rule="evenodd">
        <rect id="Rectangle" fill="url(#linearGradient-1)" x="0" y="0" width="36" height="36" rx="5"></rect>
        <path d="M7.25,24.1608016 C6.56152344,24.1608016 6,23.57816 6,22.8637907 C6,22.1494215 6.56152344,21.5667799 7.25,21.5667799 L20.375,21.5667799 C21.625,21.5667799 22.875,24.1608016 22.25,24.1608016 L7.25,24.1608016 L7.25,24.1608016 Z M24.75,24.1608016 C24.0615234,24.1608016 23.5,23.57816 23.5,22.8637907 C23.5,22.1494215 24.0615234,21.5667799 24.75,21.5667799 L29.75,21.5667799 C30.4384766,21.5667799 31,22.1494215 31,22.8637907 C31,23.57816 30.4384766,24.1608016 29.75,24.1608016 L24.75,24.1608016 Z M19.2910156,6.65115493 C19.6376953,6.02798174 20.3994141,5.8151909 21,6.17490876 C21.6005859,6.53462661 21.8056641,7.32499261 21.4589844,7.9481658 L12.8261719,23.5072297 C12.4794922,24.1304029 11.7177734,24.3431938 11.1171875,23.9834759 C10.5166016,23.623758 10.3115234,22.8333921 10.6582031,22.2102189 L19.2910156,6.65115493 Z M8.5,26.1063179 C9.125,24.809307 12.875,23.5122962 11.625,25.7466 C11.4052734,26.141783 10.7216797,27.3425314 9.58398438,29.3488451 C9.23730469,29.9720183 8.47558594,30.1848091 7.875,29.8250912 C7.27441406,29.4653734 7.06933594,28.6750074 7.41601563,28.0518342 L8.5,26.1063179 Z M14.9160156,7.9481658 C14.5693359,7.32499261 14.7792969,6.53462661 15.375,6.17490876 C15.9755859,5.82025735 16.7373047,6.03304819 17.0839844,6.65115493 L19.2617188,10.5776527 C19.6083984,11.2008259 19.3984375,11.9911919 18.8027344,12.3509097 C18.2021484,12.7106276 17.4404297,12.4927703 17.0986328,11.8746635 L14.9160156,7.9481658 Z M19.75,17.0272419 C18.6269531,15.0817256 19.75,11.190693 20.6435547,13.1311428 L28.9589844,28.0518342 C29.3007812,28.6750074 29.0957031,29.4653734 28.5,29.8250912 C27.8994141,30.1797427 27.1376953,29.9669518 26.7910156,29.3488451 L19.75,17.0272419 Z" id="Shape" fill="#FFFFFF" fill-rule="nonzero"></path>
    </g>
</svg>