<?xml version="1.0" encoding="UTF-8"?>
<svg width="36px" height="36px" viewBox="0 0 36 36" version="1.1" xmlns="http://www.w3.org/2000/svg" xmlns:xlink="http://www.w3.org/1999/xlink">
    <title>testimonials / play-store</title>
    <g id="testimonials-/-play-store" stroke="none" stroke-width="1" fill="none" fill-rule="evenodd">
        <g id="10160912521581334478" transform="translate(1.000000, 0.000000)" fill-rule="nonzero">
            <path d="M19.0521601,17.9875717 L1.47636665,35.2399705 C0.548364755,34.5228782 0,33.412088 0,32.2450553 L0,3.77226999 C0,2.59117667 0.53430412,1.48038653 1.47636665,0.777354792 L19.0521601,17.9875717 Z" id="Path" fill="#2196F3"></path>
            <path d="M33.0003097,17.9875717 C33.0003097,19.3514533 32.2691567,20.6169104 31.0740028,21.2918209 L25.5481733,24.3570393 L19.0380994,18.0016324 L25.5481733,11.6462254 L31.0740028,14.7395651 C32.2691567,15.3863543 33.0003097,16.6377508 33.0003097,17.9875717 Z" id="Path" fill="#FFC107"></path>
            <path d="M25.562234,24.3570393 L5.52582945,35.5493045 C4.9774647,35.8445778 4.35879677,35.9992448 3.72606821,35.9992448 C3.06521837,36.0133055 2.41842918,35.8305172 1.87006442,35.493062 C1.72945807,35.4227588 1.60291236,35.338395 1.47636665,35.2540312 L19.0521601,18.0016324 L25.562234,24.3570393 Z" id="Path" fill="#F44336"></path>
            <path d="M25.562234,11.6321648 L19.0521601,17.9875717 L1.47636665,0.763294157 C1.60291236,0.678930349 1.72945807,0.59456654 1.87006442,0.524263367 C2.9949152,-0.150647101 4.38691804,-0.178768371 5.52582945,0.468020828 L25.562234,11.6321648 Z" id="Path" fill="#4CAF50"></path>
        </g>
    </g>
</svg>