<svg width="48" height="48" xmlns="http://www.w3.org/2000/svg"><path d="M17.766 29.448a2.02 2.02 0 0 0-1.754 2.015c.002 1.122.898 2.031 2.002 2.03h25.32c1.039 0 1.88.856 1.88 1.911 0 1.056-.841 1.912-1.88 1.912H17.44c-2.81.002-5.195-2.096-5.596-4.923L8.194 6.463a1.893 1.893 0 0 0-1.865-1.64H1.88C.842 4.823 0 3.967 0 2.91 0 1.856.842 1 1.881 1h4.448c2.81-.002 5.195 2.096 5.595 4.923l.114.811h34.078c.546 0 1.065.24 1.423.658.358.419.52.975.442 1.524l-2.14 15.198a2.372 2.372 0 0 1-2.04 2.033l-26.035 3.301zm-2.16 10.289c1.988.003 3.596 1.63 3.594 3.636C19.198 45.377 17.585 47 15.598 47 13.61 46.999 12 45.373 12 43.368c.002-2.007 1.616-3.633 3.606-3.631zm24 0c1.987.003 3.596 1.63 3.594 3.635-.002 2.005-1.615 3.63-3.602 3.628C37.611 46.999 36 45.373 36 43.368c.002-2.007 1.616-3.633 3.606-3.631z" fill="#313132" fill-rule="evenodd"/></svg>