<?xml version="1.0" encoding="UTF-8"?>
<svg width="960px" height="960px" viewBox="0 0 960 960" version="1.1" xmlns="http://www.w3.org/2000/svg" xmlns:xlink="http://www.w3.org/1999/xlink">
    <title>devices / plugwise / anna</title>
    <g id="devices-/-plugwise-/-anna" stroke="none" stroke-width="1" fill="none" fill-rule="evenodd">
        <path d="M545.765281,25.3215863 C546.303815,25.3891276 546.794884,25.4612827 547.241703,25.5378185 L547.237837,25.5277368 C572.429834,26.8423585 597.79759,30.6277903 623.090671,37.0487102 C848.532567,94.279554 982.671633,339.214225 922.698662,584.12561 C871.843356,791.803216 697.741154,932.776901 508.519079,935.945466 L508.525393,935.936811 C486.707507,937.226643 457.706759,937.339127 417.878747,936.294752 C404.340733,935.939757 348.327105,927.652543 334.909329,924.246397 C109.467433,867.017239 -24.6716334,622.089783 35.3013383,377.185612 C78.7814682,199.631209 212.353371,70.8350125 368.440193,35.2322908 C412.458512,25.1919047 499.681362,19.5418807 545.765281,25.3215863 Z" id="Combined-Shape" stroke="#000000" stroke-width="40" stroke-linecap="round" stroke-linejoin="round"></path>
        <path d="M623.169196,924.81862 C849.346033,867.479422 983.922394,622.08102 923.75391,376.705949 C863.585426,131.330877 631.456678,-21.1023167 405.27984,36.2368814 C179.103002,93.5760796 44.5266417,338.974482 104.695126,584.349553 C164.86361,829.724625 396.992358,982.157818 623.169196,924.81862 Z" id="Oval" stroke="#000000" stroke-width="20" stroke-linecap="round" stroke-linejoin="round" transform="translate(514.224518, 480.527751) scale(-1, 1) translate(-514.224518, -480.527751) "></path>
        <path d="M405.652309,924.924838 C269.384525,890.337717 166.396078,787.345374 119.284152,657.202657 C172.803133,770.645177 272.773647,858.638623 401.425529,890.004193 C610.108068,940.881387 823.69402,825.561286 911.309851,626.692585 C836.278982,847.018772 618.331932,978.906606 405.652309,924.924838 Z" id="Combined-Shape" fill="#000000"></path>
        <path d="M579.497228,785.140667 C680.279347,759.590899 740.245217,650.243844 713.434747,540.907186 C686.624277,431.570527 583.190047,363.647833 482.407928,389.197601 C381.625809,414.74737 321.659939,524.094424 348.470409,633.431083 C375.280879,742.767741 478.715109,810.690436 579.497228,785.140667 Z" id="Oval" fill="#000000" transform="translate(530.952578, 587.169134) scale(-1, 1) translate(-530.952578, -587.169134) "></path>
        <path d="M537.286563,96.3577315 C546.095283,94.1245897 551.336516,84.5672637 548.993184,75.0108462 C546.649852,65.4544288 537.609328,59.5177408 528.800609,61.7508825 C519.991889,63.9840243 514.750656,73.5413504 517.093987,83.0977678 C519.437319,92.6541853 528.477843,98.5908732 537.286563,96.3577315 Z" id="Oval" fill="#000000" transform="translate(533.043586, 79.054307) scale(-1, 1) translate(-533.043586, -79.054307) "></path>
        <path d="M536.288215,146.652533 C543.024295,144.944836 547.032297,137.636293 545.240337,130.328444 C543.448378,123.020596 536.535036,118.480775 529.798956,120.188472 C523.062876,121.896169 519.054875,129.204712 520.846834,136.512561 C522.638793,143.820409 529.552135,148.36023 536.288215,146.652533 Z" id="Oval" fill="#000000" transform="translate(533.043586, 133.420503) scale(-1, 1) translate(-533.043586, -133.420503) "></path>
    </g>
</svg>