<svg width="23" height="17" xmlns="http://www.w3.org/2000/svg" xmlns:xlink="http://www.w3.org/1999/xlink"><defs><linearGradient x1="50%" y1="0%" x2="50%" y2="100%" id="c"><stop stop-color="#FFF" offset="0%"/><stop stop-color="#F0F0F0" offset="100%"/></linearGradient><linearGradient x1="50%" y1="0%" x2="50%" y2="100%" id="d"><stop stop-color="#FF3131" offset="0%"/><stop stop-color="red" offset="100%"/></linearGradient><linearGradient x1="50%" y1="0%" x2="50%" y2="100%" id="f"><stop stop-color="#FF3131" offset="0%"/><stop stop-color="red" offset="100%"/></linearGradient><linearGradient x1="50%" y1="0%" x2="50%" y2="100%" id="i"><stop stop-color="#FFF" offset="0%"/><stop stop-color="#F0F0F0" offset="100%"/></linearGradient><linearGradient x1="50%" y1="0%" x2="50%" y2="100%" id="j"><stop stop-color="#FF3131" offset="0%"/><stop stop-color="red" offset="100%"/></linearGradient><filter x="-8.3%" y="-8.3%" width="116.7%" height="123.3%" filterUnits="objectBoundingBox" id="b"><feOffset dy=".5" in="SourceAlpha" result="shadowOffsetOuter1"/><feGaussianBlur stdDeviation=".5" in="shadowOffsetOuter1" result="shadowBlurOuter1"/><feColorMatrix values="0 0 0 0 0 0 0 0 0 0 0 0 0 0 0 0 0 0 0.16 0" in="shadowBlurOuter1"/></filter><filter x="-8.3%" y="-5%" width="116.7%" height="110%" filterUnits="objectBoundingBox" id="g"><feMorphology radius=".25" operator="dilate" in="SourceAlpha" result="shadowSpreadOuter1"/><feOffset in="shadowSpreadOuter1" result="shadowOffsetOuter1"/><feColorMatrix values="0 0 0 0 0 0 0 0 0 0 0 0 0 0 0 0 0 0 0.06 0" in="shadowOffsetOuter1"/></filter><filter x="-1.2%" y="-1.7%" width="102.4%" height="103.3%" filterUnits="objectBoundingBox" id="k"><feOffset dy="-.5" in="SourceAlpha" result="shadowOffsetInner1"/><feComposite in="shadowOffsetInner1" in2="SourceAlpha" operator="arithmetic" k2="-1" k3="1" result="shadowInnerInner1"/><feColorMatrix values="0 0 0 0 0 0 0 0 0 0 0 0 0 0 0 0 0 0 0.04 0" in="shadowInnerInner1" result="shadowMatrixInner1"/><feOffset dy=".5" in="SourceAlpha" result="shadowOffsetInner2"/><feComposite in="shadowOffsetInner2" in2="SourceAlpha" operator="arithmetic" k2="-1" k3="1" result="shadowInnerInner2"/><feColorMatrix values="0 0 0 0 1 0 0 0 0 1 0 0 0 0 1 0 0 0 0.12 0" in="shadowInnerInner2" result="shadowMatrixInner2"/><feMerge><feMergeNode in="shadowMatrixInner1"/><feMergeNode in="shadowMatrixInner2"/></feMerge></filter><rect id="a" x="0" y="0" width="21" height="15" rx="1.5"/><rect id="l" x="0" y="0" width="21" height="15" rx="1.5"/><path id="h" d="M6 0h9v15H6z"/></defs><g transform="translate(1 1)" fill="none" fill-rule="evenodd"><mask id="e" fill="#fff"><use xlink:href="#a"/></mask><use fill="#000" filter="url(#b)" xlink:href="#a"/><use fill="url(#c)" xlink:href="#a"/><path fill="url(#d)" mask="url(#e)" d="M10 0h11v15H10z"/><path fill="url(#f)" mask="url(#e)" d="M0 0h7v15H0z"/><g mask="url(#e)"><use fill="#000" filter="url(#g)" xlink:href="#h"/><use fill="url(#i)" xlink:href="#h"/></g><path d="M11.674 7.326c-.096.096-.153.067-.124-.075L12 5l-1 .5-.5-1.5-.5 1.5L9 5l.45 2.251c.028.138-.028.17-.124.075l-.652-.652a.249.249 0 0 0-.355.007L8 7l-1-.5.5 1-.32.32c-.1.1-.1.26-.008.352L8.5 9.5H10l.25 1.5h.5L11 9.5h1.5l1.328-1.328a.247.247 0 0 0-.009-.353L13.5 7.5l.5-1-1 .5-.32-.32a.251.251 0 0 0-.354-.006l-.652.652z" fill="url(#j)" mask="url(#e)"/><g mask="url(#e)" fill="#000"><use filter="url(#k)" xlink:href="#l"/></g></g></svg>