<svg width="23" height="17" xmlns="http://www.w3.org/2000/svg" xmlns:xlink="http://www.w3.org/1999/xlink"><defs><filter x="-8.3%" y="-8.3%" width="116.7%" height="123.3%" filterUnits="objectBoundingBox" id="b"><feOffset dy=".5" in="SourceAlpha" result="shadowOffsetOuter1"/><feGaussianBlur stdDeviation=".5" in="shadowOffsetOuter1" result="shadowBlurOuter1"/><feColorMatrix values="0 0 0 0 0 0 0 0 0 0 0 0 0 0 0 0 0 0 0.16 0" in="shadowBlurOuter1"/></filter><filter x="-3.6%" y="-18.8%" width="107.1%" height="137.5%" filterUnits="objectBoundingBox" id="e"><feMorphology radius=".25" operator="dilate" in="SourceAlpha" result="shadowSpreadOuter1"/><feOffset in="shadowSpreadOuter1" result="shadowOffsetOuter1"/><feColorMatrix values="0 0 0 0 0 0 0 0 0 0 0 0 0 0 0 0 0 0 0.06 0" in="shadowOffsetOuter1"/></filter><filter x="-3.6%" y="-18.8%" width="107.1%" height="137.5%" filterUnits="objectBoundingBox" id="h"><feMorphology radius=".25" operator="dilate" in="SourceAlpha" result="shadowSpreadOuter1"/><feOffset in="shadowSpreadOuter1" result="shadowOffsetOuter1"/><feColorMatrix values="0 0 0 0 0 0 0 0 0 0 0 0 0 0 0 0 0 0 0.06 0" in="shadowOffsetOuter1"/></filter><filter x="-3.6%" y="-10.7%" width="107.1%" height="121.4%" filterUnits="objectBoundingBox" id="j"><feMorphology radius=".25" operator="dilate" in="SourceAlpha" result="shadowSpreadOuter1"/><feOffset in="shadowSpreadOuter1" result="shadowOffsetOuter1"/><feColorMatrix values="0 0 0 0 0 0 0 0 0 0 0 0 0 0 0 0 0 0 0.06 0" in="shadowOffsetOuter1"/></filter><filter x="-1.2%" y="-1.7%" width="102.4%" height="103.3%" filterUnits="objectBoundingBox" id="m"><feOffset dy="-.5" in="SourceAlpha" result="shadowOffsetInner1"/><feComposite in="shadowOffsetInner1" in2="SourceAlpha" operator="arithmetic" k2="-1" k3="1" result="shadowInnerInner1"/><feColorMatrix values="0 0 0 0 0 0 0 0 0 0 0 0 0 0 0 0 0 0 0.04 0" in="shadowInnerInner1" result="shadowMatrixInner1"/><feOffset dy=".5" in="SourceAlpha" result="shadowOffsetInner2"/><feComposite in="shadowOffsetInner2" in2="SourceAlpha" operator="arithmetic" k2="-1" k3="1" result="shadowInnerInner2"/><feColorMatrix values="0 0 0 0 1 0 0 0 0 1 0 0 0 0 1 0 0 0 0.12 0" in="shadowInnerInner2" result="shadowMatrixInner2"/><feMerge><feMergeNode in="shadowMatrixInner1"/><feMergeNode in="shadowMatrixInner2"/></feMerge></filter><linearGradient x1="50%" y1="0%" x2="50%" y2="100%" id="c"><stop stop-color="#FFF" offset="0%"/><stop stop-color="#F0F0F0" offset="100%"/></linearGradient><linearGradient x1="50%" y1="0%" x2="50%" y2="100%" id="g"><stop stop-color="#DD172C" offset="0%"/><stop stop-color="#C60B1F" offset="100%"/></linearGradient><linearGradient x1="50%" y1="0%" x2="50%" y2="100%" id="l"><stop stop-color="#FFD133" offset="0%"/><stop stop-color="#FFC500" offset="100%"/></linearGradient><path id="f" d="M0 0h21v4H0z"/><path id="i" d="M0 11h21v4H0z"/><path id="k" d="M0 4h21v7H0z"/><rect id="a" x="0" y="0" width="21" height="15" rx="1.5"/><rect id="n" x="0" y="0" width="21" height="15" rx="1.5"/></defs><g transform="translate(1 1)" fill="none" fill-rule="evenodd"><mask id="d" fill="#fff"><use xlink:href="#a"/></mask><use fill="#000" filter="url(#b)" xlink:href="#a"/><use fill="url(#c)" xlink:href="#a"/><g mask="url(#d)"><use fill="#000" filter="url(#e)" xlink:href="#f"/><use fill="url(#g)" xlink:href="#f"/></g><g mask="url(#d)"><use fill="#000" filter="url(#h)" xlink:href="#i"/><use fill="url(#g)" xlink:href="#i"/></g><g mask="url(#d)"><use fill="#000" filter="url(#j)" xlink:href="#k"/><use fill="url(#l)" xlink:href="#k"/></g><path fill="#FFEDB1" mask="url(#d)" d="M5.5 7h1v.5h-1z"/><path d="m4.54 6.975.126 1.505c.035.425.41.77.834.77a.854.854 0 0 0 .834-.77l.126-1.505c.01-.13-.079-.225-.216-.225H4.756c-.132 0-.226.1-.216.225z" stroke="#A41517" stroke-width=".5" mask="url(#d)"/><path fill="#A41517" mask="url(#d)" d="M4.5 7.5h2V8H6l-.5 1L5 8h-.5zM3 6h1v3.5H3zM7 6h1v3.5H7zM4.5 5.5c0-.276.214-.5.505-.5h.99c.279 0 .505.232.505.5v.248c0 .139-.108.252-.245.252h-1.51a.245.245 0 0 1-.245-.252V5.5z"/><g mask="url(#d)" fill="#000"><use filter="url(#m)" xlink:href="#n"/></g></g></svg>