<svg width="23" height="17" xmlns="http://www.w3.org/2000/svg" xmlns:xlink="http://www.w3.org/1999/xlink"><defs><filter x="-8.3%" y="-8.3%" width="116.7%" height="123.3%" filterUnits="objectBoundingBox" id="b"><feOffset dy=".5" in="SourceAlpha" result="shadowOffsetOuter1"/><feGaussianBlur stdDeviation=".5" in="shadowOffsetOuter1" result="shadowBlurOuter1"/><feColorMatrix values="0 0 0 0 0 0 0 0 0 0 0 0 0 0 0 0 0 0 0.16 0" in="shadowBlurOuter1"/></filter><filter x="-8.3%" y="-8.3%" width="116.7%" height="123.3%" filterUnits="objectBoundingBox" id="e"><feOffset dy=".5" in="SourceAlpha" result="shadowOffsetOuter1"/><feGaussianBlur stdDeviation=".5" in="shadowOffsetOuter1" result="shadowBlurOuter1"/><feColorMatrix values="0 0 0 0 0 0 0 0 0 0 0 0 0 0 0 0 0 0 0.16 0" in="shadowBlurOuter1"/></filter><filter x="-7.9%" y="-10%" width="117.5%" height="122.1%" filterUnits="objectBoundingBox" id="i"><feMorphology radius=".25" operator="dilate" in="SourceAlpha" result="shadowSpreadOuter1"/><feOffset in="shadowSpreadOuter1" result="shadowOffsetOuter1"/><feColorMatrix values="0 0 0 0 0 0 0 0 0 0 0 0 0 0 0 0 0 0 0.06 0" in="shadowOffsetOuter1"/></filter><filter x="2.1%" y="2.1%" width="95.7%" height="120.7%" filterUnits="objectBoundingBox" id="l"><feOffset dy=".5" in="SourceAlpha" result="shadowOffsetOuter1"/><feColorMatrix values="0 0 0 0 0 0 0 0 0 0 0 0 0 0 0 0 0 0 0.24 0" in="shadowOffsetOuter1"/></filter><filter x="2.1%" y="2.1%" width="95.7%" height="120.7%" filterUnits="objectBoundingBox" id="n"><feOffset dy=".5" in="SourceAlpha" result="shadowOffsetOuter1"/><feColorMatrix values="0 0 0 0 0 0 0 0 0 0 0 0 0 0 0 0 0 0 0.24 0" in="shadowOffsetOuter1"/></filter><filter x="2.1%" y="2.1%" width="95.7%" height="120.7%" filterUnits="objectBoundingBox" id="p"><feOffset dy=".5" in="SourceAlpha" result="shadowOffsetOuter1"/><feColorMatrix values="0 0 0 0 0 0 0 0 0 0 0 0 0 0 0 0 0 0 0.24 0" in="shadowOffsetOuter1"/></filter><filter x="2.1%" y="2.1%" width="95.7%" height="120.7%" filterUnits="objectBoundingBox" id="r"><feOffset dy=".5" in="SourceAlpha" result="shadowOffsetOuter1"/><feColorMatrix values="0 0 0 0 0 0 0 0 0 0 0 0 0 0 0 0 0 0 0.24 0" in="shadowOffsetOuter1"/></filter><filter x="-1.2%" y="-1.7%" width="102.4%" height="103.3%" filterUnits="objectBoundingBox" id="t"><feOffset dy="-.5" in="SourceAlpha" result="shadowOffsetInner1"/><feComposite in="shadowOffsetInner1" in2="SourceAlpha" operator="arithmetic" k2="-1" k3="1" result="shadowInnerInner1"/><feColorMatrix values="0 0 0 0 0 0 0 0 0 0 0 0 0 0 0 0 0 0 0.04 0" in="shadowInnerInner1" result="shadowMatrixInner1"/><feOffset dy=".5" in="SourceAlpha" result="shadowOffsetInner2"/><feComposite in="shadowOffsetInner2" in2="SourceAlpha" operator="arithmetic" k2="-1" k3="1" result="shadowInnerInner2"/><feColorMatrix values="0 0 0 0 1 0 0 0 0 1 0 0 0 0 1 0 0 0 0.12 0" in="shadowInnerInner2" result="shadowMatrixInner2"/><feMerge><feMergeNode in="shadowMatrixInner1"/><feMergeNode in="shadowMatrixInner2"/></feMerge></filter><path id="f" d="M0 0h21v15H0z"/><path d="M0 2.5v2h3.5v2.505c0 .273.214.495.505.495h.99a.496.496 0 0 0 .505-.495V4.5h3.51a.49.49 0 0 0 .49-.505v-.99a.495.495 0 0 0-.49-.505H5.5V0h-2v2.5H0z" id="j"/><path id="m" d="m15 13-.707.207.207-.707-.207-.707L15 12l.707-.207-.207.707.207.707z"/><path id="o" d="m15 3.5-.707.207L14.5 3l-.207-.707L15 2.5l.707-.207L15.5 3l.207.707z"/><path id="q" d="m18 6.5-.707.207L17.5 6l-.207-.707L18 5.5l.707-.207L18.5 6l.207.707z"/><path id="s" d="m12 7.5-.707.207L11.5 7l-.207-.707L12 6.5l.707-.207L12.5 7l.207.707z"/><linearGradient x1="50%" y1="0%" x2="50%" y2="100%" id="c"><stop stop-color="#FFF" offset="0%"/><stop stop-color="#F0F0F0" offset="100%"/></linearGradient><linearGradient x1="50%" y1="0%" x2="50%" y2="100%" id="g"><stop stop-color="#0A17A7" offset="0%"/><stop stop-color="#030E88" offset="100%"/></linearGradient><linearGradient x1="50%" y1="0%" x2="50%" y2="100%" id="h"><stop stop-color="#FF2E3B" offset="0%"/><stop stop-color="#FC0D1B" offset="100%"/></linearGradient><linearGradient x1="50%" y1="0%" x2="50%" y2="100%" id="k"><stop stop-color="#FFF" offset="0%"/><stop stop-color="#F0F0F0" offset="100%"/></linearGradient><rect id="a" x="0" y="0" width="21" height="15" rx="1.5"/><rect id="u" x="0" y="0" width="21" height="15" rx="1.5"/></defs><g transform="translate(1 1)" fill="none" fill-rule="evenodd"><mask id="d" fill="#fff"><use xlink:href="#a"/></mask><use fill="#000" filter="url(#b)" xlink:href="#a"/><use fill="url(#c)" xlink:href="#a"/><g mask="url(#d)"><use fill="#000" filter="url(#e)" xlink:href="#f"/><use fill="url(#g)" xlink:href="#f"/></g><path d="M3.25 3.115-.676-.25H.5l.145.047L4.08 2.25h.848L9.25-.451V.25c0 .222-.128.47-.313.602L5.75 3.13v.756l3.225 2.764c.282.242.138.601-.225.601-.193 0-.442-.08-.604-.195L4.92 4.75h-.848L-.25 7.451v-1.08l3.5-2.5v-.756z" stroke="#FFF" stroke-width=".5" fill="url(#h)" mask="url(#d)"/><g mask="url(#d)"><use fill="#000" filter="url(#i)" xlink:href="#j"/><use fill="url(#k)" xlink:href="#j"/></g><path fill="url(#h)" mask="url(#d)" d="M0 3h4V0h1v3h4v1H5v3H4V4H0z"/><g mask="url(#d)"><use fill="#000" filter="url(#l)" xlink:href="#m"/><use fill="#CA1931" xlink:href="#m"/></g><g mask="url(#d)"><use fill="#000" filter="url(#n)" xlink:href="#o"/><use fill="#CA1931" xlink:href="#o"/></g><g mask="url(#d)"><use fill="#000" filter="url(#p)" xlink:href="#q"/><use fill="#CA1931" xlink:href="#q"/></g><g mask="url(#d)"><use fill="#000" filter="url(#r)" xlink:href="#s"/><use fill="#CA1931" xlink:href="#s"/></g><g mask="url(#d)" fill="#000"><use filter="url(#t)" xlink:href="#u"/></g></g></svg>