<?xml version="1.0" encoding="UTF-8"?>
<svg width="54px" height="44px" viewBox="0 0 54 44" version="1.1" xmlns="http://www.w3.org/2000/svg" xmlns:xlink="http://www.w3.org/1999/xlink">
    <title>backup-created</title>
    <defs>
        <linearGradient x1="0%" y1="100%" x2="100%" y2="0%" id="linearGradient-1">
            <stop stop-color="#367CFF" offset="0%"></stop>
            <stop stop-color="#52DEFF" offset="100%"></stop>
        </linearGradient>
    </defs>
    <g id="backup-created" stroke="none" stroke-width="1" fill="none" fill-rule="evenodd">
        <g id="Group-12-Copy" transform="translate(5.000000, 0.000000)" fill="url(#linearGradient-1)" fill-rule="nonzero">
            <path d="M22,0 C34.1502645,0 44,9.8497355 44,22 C44,34.1502645 34.1502645,44 22,44 C9.8497355,44 0,34.1502645 0,22 C0,9.8497355 9.8497355,0 22,0 Z M22,4 C12.0588745,4 4,12.0588745 4,22 C4,31.9411255 12.0588745,40 22,40 C31.9411255,40 40,31.9411255 40,22 C40,12.0588745 31.9411255,4 22,4 Z M28.5299955,15.3340494 C29.1192057,15.3144378 29.6586492,15.6991614 29.887751,16.302382 C30.1168529,16.9056026 29.9884693,17.6031913 29.5646151,18.0581824 C26.5495651,21.4140252 23.7905756,24.7806615 20.7168334,28.2017881 C20.2031979,28.7728615 19.3851962,28.8240445 18.8170576,28.3206586 L18.8170576,28.3206586 L14.5358729,24.5168006 C14.1375604,24.1628976 13.9395021,23.5998714 14.0163049,23.0398086 C14.0931076,22.4797458 14.4331031,22.0077332 14.9082184,21.8015734 C15.3833337,21.5954137 15.9213874,21.6864274 16.3196999,22.0403305 L16.3196999,22.0403305 L19.5930224,24.9427376 C22.2633257,21.9224743 24.7846838,18.8961089 27.5488906,15.8194534 C27.806541,15.5219411 28.1585276,15.3477949 28.5299955,15.3340494 Z" id="Combined-Shape"></path>
        </g>
    </g>
</svg>