<svg width="96" height="96" xmlns="http://www.w3.org/2000/svg" xmlns:xlink="http://www.w3.org/1999/xlink"><defs><circle id="a" cx="48" cy="48" r="48"/></defs><g fill="none" fill-rule="evenodd"><mask id="b" fill="#fff"><use xlink:href="#a"/></mask><use fill="#D8D8D8" xlink:href="#a"/><path fill="#25B1E0" mask="url(#b)" d="M0 0h97.92v97.92H0z"/><g mask="url(#b)" fill="#FFF" fill-rule="nonzero"><path d="M48.65 29.761h19.12c2.75 0 4.57 1.824 4.57 4.587.002 9.854.002 19.708 0 29.562 0 2.784-1.822 4.595-4.614 4.595-4.76 0-9.518-.005-14.277.01-.393 0-.501-.097-.491-.491.029-1.11.03-2.22 0-3.33-.013-.431.127-.515.535-.514 4.675.016 9.35.004 14.024.02.412.002.522-.085.522-.512-.014-9.703-.014-19.405 0-29.108 0-.42-.1-.516-.518-.516-12.578.013-25.156.013-37.734 0-.428-.001-.518.11-.512.522.024 1.815 0 3.632.018 5.448.004.372-.06.521-.482.509a72.434 72.434 0 0 0-3.43-.004c-.339.007-.42-.101-.418-.428.014-1.984-.01-3.968.012-5.952.029-2.568 1.887-4.395 4.455-4.397 6.407-.004 12.814-.001 19.22-.001z"/><path d="M46.52 68.505c-.571 0-1.144-.024-1.714.009-.369.02-.48-.075-.485-.462-.027-2.724-.615-5.334-1.818-7.775-2.932-5.953-7.664-9.582-14.19-10.846a15.667 15.667 0 0 0-2.954-.285c-.3-.001-.402-.07-.397-.391.02-1.177.022-2.354 0-3.53-.006-.35.114-.407.435-.4 10.241.246 18.99 6.76 22.149 16.51.707 2.187 1.05 4.436 1.113 6.733.009.343-.057.468-.425.446-.57-.034-1.142-.01-1.714-.01z"/><path d="M37.88 68.505c-.605 0-1.21-.015-1.815.007-.272.01-.322-.084-.335-.339-.267-5.364-3.935-9.464-9.231-10.323a6.74 6.74 0 0 0-1.154-.095c-.325.004-.385-.122-.381-.417a89.915 89.915 0 0 0-.003-3.429c-.01-.384.095-.48.475-.46 5.478.282 9.652 2.774 12.522 7.426 1.358 2.201 1.99 4.637 2.09 7.218.013.331-.066.435-.403.42-.587-.028-1.176-.008-1.765-.008zM28.201 68.505c-.956 0-1.913-.01-2.869.006-.281.005-.37-.071-.368-.361.012-1.913.015-3.826-.002-5.739-.003-.343.128-.372.412-.362 3.136.112 5.936 2.918 6.05 6.054.012.339-.08.417-.404.41-.94-.022-1.879-.008-2.819-.008z"/></g></g></svg>