<svg width="96" height="96" xmlns="http://www.w3.org/2000/svg" xmlns:xlink="http://www.w3.org/1999/xlink"><defs><circle id="a" cx="48" cy="48" r="48"/></defs><g fill="none" fill-rule="evenodd"><mask id="b" fill="#fff"><use xlink:href="#a"/></mask><use fill="#D8D8D8" xlink:href="#a"/><path fill="#A4C42B" mask="url(#b)" d="M-.96-.96h97.92v97.92H-.96z"/><g mask="url(#b)" fill="#FFF" fill-rule="nonzero"><path d="M54.74 53.323a26.622 26.622 0 0 0-.217-.59 7.918 7.918 0 0 0 2.78-6.034c0-4.377-3.557-7.934-7.935-7.934s-7.934 3.557-7.934 7.934c0 2.42 1.08 4.58 2.779 6.034-.072.201-.159.389-.216.59l-4.119 16.344h18.936L54.74 53.323zM44.976 26.02c-9.029 1.902-15.984 9.476-16.934 18.807-.072.72-.116 1.455-.116 2.189 0 4.91 1.714 9.706 4.81 13.507l.98 1.21.014.014 2.39-7.373-.173-.316a15.167 15.167 0 0 1-1.742-7.042c0-.518.029-1.037.072-1.54.043-.404.1-.807.173-1.21 1.108-5.976 5.745-10.743 11.65-12.039l-.087-.446-1.037-5.76zM70.19 41.89c-1.958-7.95-8.366-14.184-16.43-15.87l-.82 4.465-.318 1.713c6.797 1.498 11.91 7.56 11.91 14.804 0 2.448-.606 4.881-1.743 7.041l-.173.317 2.39 7.373.994-1.224a21.454 21.454 0 0 0 4.81-13.507c0-1.757-.216-3.47-.62-5.112"/></g></g></svg>