<?xml version="1.0" encoding="UTF-8"?>
<svg width="96px" height="96px" viewBox="0 0 96 96" version="1.1" xmlns="http://www.w3.org/2000/svg" xmlns:xlink="http://www.w3.org/1999/xlink">
    <title>apps / danfoss</title>
    <defs>
        <circle id="path-1" cx="48" cy="48" r="48"></circle>
    </defs>
    <g id="apps-/-danfoss" stroke="none" stroke-width="1" fill="none" fill-rule="evenodd">
        <g id="Group">
            <mask id="mask-2" fill="white">
                <use xlink:href="#path-1"></use>
            </mask>
            <use id="Mask" fill="#D8D8D8" xlink:href="#path-1"></use>
            <rect id="Rectangle" fill="#DE2521" mask="url(#mask-2)" x="-0.96" y="-0.96" width="97.92" height="97.92"></rect>
        </g>
        <g id="icon-6" transform="translate(15.000000, 35.000000)" fill="#FFFFFF" fill-rule="nonzero">
            <path d="M61.0717863,12.6964999 C60.7921536,13.0602341 60.2888147,13.3959888 60.5125209,13.8716412 C60.8480801,14.0674981 61.2395659,13.8436616 61.5191987,13.6757843 C62.1903172,13.1721523 62.7495826,12.4726635 62.8055092,11.689236 L62.7495826,11.689236 C62.1623539,11.941052 61.5751252,12.2488271 61.0717863,12.6964999 M55.1156093,13.9555799 C55.1435726,14.1234572 55.3393155,14.2073958 55.5070952,14.1794163 C56.4578464,13.9276003 57.1010017,13.0322546 57.3247078,12.1369088 C57.3247078,12.1369088 57.3526711,12.0809497 57.2967446,11.9970111 C57.240818,11.9130724 57.1010017,11.9690315 57.1010017,11.9690315 C56.2900668,12.3047862 55.3393155,12.9483159 55.1156093,13.9555799 Z M48.6560935,7.96795526 C50.1101836,6.82079354 51.7600167,5.39383628 52.7107679,3.79900169 C52.9904007,3.32334927 53.3259599,2.48396264 53.3259599,2.23214666 C53.3259599,1.98033067 53.3259599,2.00831022 53.2420701,1.89639201 C53.1861436,1.8404329 53.130217,1.81245334 52.9344741,1.89639201 C52.7107679,1.98033067 52.2353923,2.40002398 51.8998331,2.70779908 C50.5016694,4.33061322 49.4949917,6.12130469 48.6560935,7.96795526 Z M27.2082638,15.7462713 C26.9565943,16.3058624 26.509182,17.0053513 26.9286311,17.6209015 C27.124374,17.7328197 27.3480801,17.648881 27.543823,17.6209015 C28.7182805,17.0613104 29.6410684,15.8581895 30.2282972,14.7669869 C30.3960768,14.3752732 30.7036728,13.759723 30.312187,13.3680092 C29.8647746,13.1721523 29.4173623,13.4239683 29.0538397,13.7037639 C28.2708681,14.2073958 27.6556761,15.0188029 27.2082638,15.7462713 Z M14.8484975,17.0892899 C16.9737062,16.5296988 19.0989149,16.1659646 21.3359766,15.9421282 L21.8113523,15.2706189 C22.7621035,13.4519479 23.9085977,11.185604 22.8739566,9.08713743 C22.5383973,8.33168947 21.7274624,7.96795526 21.0563439,7.71613928 L14.8484975,17.0892899 Z M6.01210351,23.5245874 C6.06803005,23.860342 6.45951586,24.0002398 6.73914858,24.0841785 C9.2278798,24.5598309 13.0588481,23.0209554 15.7712855,21.3421822 C17.4770451,20.1670409 19.3505843,18.656145 20.6648581,16.9773717 C18.28798,17.3411059 15.9390651,17.9286766 13.7299666,18.7121041 L11.9123539,21.3981413 C11.5767947,21.9017732 11.1293823,22.6292417 10.4303005,22.545303 C10.2065943,22.4893439 10.1227045,22.293487 10.2065943,22.041671 L11.6327212,19.4115929 C10.1227045,19.9152249 8.69657763,20.5587546 7.38230384,21.538039 C6.73914858,22.041671 5.95617696,22.6292417 6.01210351,23.5245874 Z M3.04799666,6.56897755 C8.221202,4.66636787 14.0095993,3.43526749 19.9657763,4.30263367 L20.6089316,3.23941061 C21.8393155,3.04355373 23.0976628,2.90365596 24.3280467,2.76375819 L22.6782137,5.28191806 C24.3000835,5.98140692 25.6423205,7.66018017 25.7821369,9.42289208 C25.7821369,11.8011542 24.7195326,13.8156821 23.4611853,15.6623327 L25.1949082,15.4384962 C26.4252922,13.507907 29.7808848,10.9617676 31.234975,12.8923568 C31.234975,12.8923568 31.0112688,12.5566022 31.234975,12.8923568 L31.7383139,12.1928679 L33.9753756,11.8850928 L31.0951586,16.7535353 C31.0671953,16.8374739 31.0951586,16.9493922 31.234975,16.9493922 C31.9060935,16.6416171 32.5212855,16.1659646 33.0525876,15.6623327 C34.422788,14.4032527 35.5972454,13.004275 36.4920701,11.5213586 L38.6452421,11.2975222 L37.4428214,13.3959888 C38.4494992,12.6125613 39.456177,11.43742 40.6865609,10.933788 C41.0221202,10.7938902 41.413606,10.9058085 41.6932387,11.0457062 C41.9728715,11.2695427 42.0567613,11.5773178 42.0567613,11.941052 C41.6093489,13.3120501 40.6585977,14.4312323 39.9595159,15.6903122 C39.9315526,15.8022304 39.9035893,15.8861691 40.0434057,15.9421282 C41.7491653,15.074762 43.4269616,13.4239683 44.6573456,11.8571133 L42.6719533,12.1089293 L43.3989983,10.7659107 L45.2445743,10.5980334 C47.5375626,6.98867087 49.7746244,3.01557417 53.4937396,0.38549608 C53.9691152,0.161659646 54.6402337,-0.258033666 55.1156093,0.217618755 C55.5350584,0.973066718 55.0596828,1.8404329 54.7520868,2.53992175 C53.1861436,5.42181583 50.1101836,7.77209838 47.5655259,9.81460584 L47.369783,10.3182378 L51.7320534,9.84258539 C51.8159432,9.87056495 51.78798,10.0384423 51.7600167,10.1223809 C50.3338898,11.3255018 48.7959098,12.6964999 48.6001669,14.5151709 C48.5442404,14.822946 48.7679466,15.0188029 48.9916528,15.1307211 C50.0262938,15.3825371 50.7253756,14.3472936 51.3964942,13.6757843 C51.78798,13.1721523 52.3192821,12.6405408 52.4870618,12.0529702 C52.1235392,11.8850928 51.8998331,11.4094404 51.9277963,11.0736858 C51.9837229,10.2342992 52.3752087,9.5348103 53.0463272,9.03117832 C53.2700334,8.89128055 53.6335559,8.83532144 53.9131886,8.94723966 C54.1089316,9.08713743 54.360601,9.28299431 54.3885643,9.5348103 C54.5004174,10.2622787 54.1928214,10.8778289 53.9131886,11.4653995 C55.3672788,11.2415631 56.5696995,10.2622787 57.7161937,9.2270352 L57.85601,9.00319877 C57.9119366,8.02391437 58.0797162,7.07260953 58.8626878,6.42907978 C59.2541736,6.14928424 59.7575125,5.78555004 60.2608514,6.12130469 C60.624374,6.28918201 60.5125209,7.04462998 60.5125209,7.04462998 C60.316778,8.02391437 58.5271285,8.66744412 58.8626878,10.0664218 C58.9186144,10.2622787 58.778798,10.4861151 58.9465776,10.5700538 C60.4006678,10.2063196 61.8267947,9.50683074 63.1690317,8.83532144 C63.3088481,8.41562813 63.1690317,7.96795526 63.3088481,7.57624151 C63.504591,6.82079354 63.9799666,6.03736603 64.7629382,5.70161137 C65.0146077,5.64565227 65.2662771,5.61767271 65.4899833,5.72959093 C65.769616,5.98140692 65.8814691,6.34514112 65.7416528,6.70887533 C65.6018364,7.63220061 64.7909015,8.33168947 64.1477462,9.00319877 C63.9799666,10.5980334 64.5671953,12.1928679 63.9520033,13.6198252 C63.3088481,14.9068847 61.966611,15.5504144 60.5964107,15.6063736 C60.0651085,15.5504144 59.4499165,15.3825371 59.2541736,14.7949665 C58.9465776,13.7037639 59.7295492,12.752459 60.5684474,12.1089293 C61.2954925,11.4933791 62.1343907,11.1296449 62.9732888,10.7659107 C63.2808848,10.4861151 63.2529215,9.95450361 63.196995,9.59076941 C62.4419866,9.95450361 61.5471619,10.3741969 60.736227,10.7099516 L58.8906511,11.43742 C58.8626878,12.9762955 58.4432387,14.5711301 57.1010017,15.4105167 C56.2341402,15.8022304 54.9478297,16.2778829 54.053005,15.578394 C53.6335559,15.2426394 53.6055927,14.6550687 53.7174457,14.1794163 C54.2207846,12.3327657 56.206177,11.7451951 57.6323038,11.0177267 C57.85601,10.7379311 57.7721202,10.3462174 57.7161937,10.0664218 C56.4578464,11.1296449 54.9198664,12.0529702 53.3259599,12.1928679 C52.1515025,13.9835594 50.3338898,16.5576784 47.9290484,16.3898011 C47.5095993,16.3898011 47.1740401,16.1939442 46.8384808,15.9421282 C46.1673623,15.1587007 46.5308848,13.9835594 46.9223706,13.2001319 C47.3418197,12.3887248 48.1247913,11.7172155 48.71202,11.0457062 C48.0129382,11.1016653 46.6986644,11.2975222 46.6986644,11.2975222 L43.1193656,17.9286766 L44.1260434,17.8727174 L49.8585142,17.2851468 L56.7934057,16.8374739 L64.5671953,16.5296988 C65.1823873,16.4737397 65.8255426,16.5296988 66.4407346,16.5296988 L65.042571,17.7607992 C65.6577629,18.2084721 66.3288815,18.6841245 67,19.0758383 L66.9720367,19.1317974 L61.3793823,18.9359405 L54.3885643,18.9918996 L45.3005008,19.3836134 C44.2658598,19.4955316 43.2032554,19.5235111 42.1686144,19.6074498 L40.183222,23.2168123 L37.7504174,23.3846896 L39.7917362,19.8872453 L39.8476628,19.8033067 L35.3176127,20.0831022 L27.0404841,20.8945093 L20.3013356,21.7618755 C20.4970785,21.5100595 20.553005,21.0064275 21.0004174,21.0064275 L29.8647746,19.4955316 L35.2616861,18.7960427 L40.7145242,18.2644312 L42.4762104,15.2426394 C42.3923205,15.1587007 42.3084307,15.2426394 42.2245409,15.2985985 C41.0780467,16.2778829 39.875626,17.2012081 38.4215359,17.4530241 C38.1419032,17.4250446 37.8902337,17.3131264 37.6944908,17.145249 C37.0513356,16.0260669 38.3656093,14.7669869 38.7011686,14.0954776 C38.7011686,14.0954776 39.0926544,13.4799274 39.3443239,12.9203364 C39.3443239,12.9203364 39.3722871,12.8643772 39.3443239,12.8363977 C39.2883973,12.7804386 39.2324708,12.8084181 39.2324708,12.8084181 C37.5267112,14.2073958 35.8209516,15.9421282 34.6185309,17.7607992 C33.9753756,17.7887788 33.3322204,17.8447379 32.6890651,17.9286766 C32.9127713,17.3131264 33.2483306,16.6695966 33.5838898,16.082026 C32.5212855,16.893433 31.4866444,17.8167583 30.2842237,18.2644312 C29.9486644,18.404329 29.2495826,18.4602881 28.8301336,17.5929219 C27.6556761,18.4323085 26.3134391,19.4955316 24.8034224,18.907961 C24.4119366,18.6001859 24.2721202,18.152513 24.2441569,17.7048401 C24.2441569,17.2571673 24.3280467,16.8374739 24.4958264,16.4737397 L24.5237896,16.4737397 L22.6502504,16.6695966 C18.7353923,21.0344071 13.7858932,24.4199331 8.27712855,25.6510335 C6.73914858,25.9588086 4.92153589,26.182645 3.35559265,25.7909313 C2.79632721,25.6510335 2.23706177,25.1753811 2.15317195,24.5878104 C2.12520868,23.1888327 3.43948247,22.0976301 4.53005008,21.3142026 C7.0187813,19.6913885 9.75918197,18.656145 12.5555092,17.7887788 L13.0029215,17.0333308 L18.4837229,7.01665042 L18.5116861,7.01665042 C11.8005008,6.28918201 5.84432387,8.75138278 0.475375626,11.8011542 L0,12.0529702 L3.04799666,6.56897755 Z" id="Shape"></path>
        </g>
    </g>
</svg>