<svg width="96" height="96" xmlns="http://www.w3.org/2000/svg" xmlns:xlink="http://www.w3.org/1999/xlink"><defs><circle id="a" cx="48" cy="48" r="48"/></defs><g fill="none" fill-rule="evenodd"><mask id="b" fill="#fff"><use xlink:href="#a"/></mask><use fill="#D8D8D8" xlink:href="#a"/><path fill="#522986" mask="url(#b)" d="M-.96-.96h97.92v97.92H-.96z"/><g mask="url(#b)" fill="#FFF" fill-rule="nonzero"><path d="M20.352 47.962a3.442 3.442 0 0 1-3.456 3.456 3.442 3.442 0 0 1-3.456-3.456 3.442 3.442 0 0 1 3.456-3.456h3.456v3.456zm3.84-14.208h-3.84v6.988h-3.456a7.21 7.21 0 0 0-7.22 7.22 7.21 7.21 0 0 0 7.22 7.219 7.21 7.21 0 0 0 7.22-7.22v-7.219l.076-6.988zM62.362 51.418a3.442 3.442 0 0 0 3.456-3.456 3.442 3.442 0 0 0-3.456-3.456 3.442 3.442 0 0 0-3.456 3.456c.076 1.92 1.612 3.456 3.456 3.456m-7.143-3.456a7.21 7.21 0 0 1 7.22-7.22 7.21 7.21 0 0 1 7.219 7.22 7.21 7.21 0 0 1-7.22 7.219 7.21 7.21 0 0 1-7.219-7.22M81.715 47.962c0-1.844-1.536-3.38-3.379-3.38s-3.38 1.536-3.38 3.38v6.912h-3.762v-6.912a7.21 7.21 0 0 1 7.219-7.22 7.21 7.21 0 0 1 7.219 7.22v6.912h-3.763c-.154 0-.154-5.99-.154-6.912M46.387 45.504c-.537-.384-.384-.998.538-1.229 1.152-.307 3.149-.077 4.838.691l1.767-2.457c-.768-.615-2.458-1.46-4.916-1.613 0 0-4.147-.538-5.836 2.611 0 0-1.46 2.919 1.459 4.762 1.766 1.075 4.838 1.536 5.837 1.997.768.46.537 1.305-.615 1.536-1.997.46-4.608-.692-5.453-1.306l-1.843 2.534c1.229.922 2.765 1.767 5.223 2.15 0 0 3.916.692 6.067-1.996.384-.46 2.15-3.763-1.383-5.683-1.843-.999-4.761-1.46-5.683-1.997M28.723 57.638c.154.077 1.92 1.306 3.61 1.306 4.147.077 4.377-4.224 4.377-5.222-.768.844-2.38 1.382-3.379 1.382-3.993 0-7.142-3.072-7.142-7.066V41.05h3.763v6.988c0 1.844 1.536 3.38 3.38 3.38 1.842 0 3.378-1.536 3.378-3.38V41.05h3.764v6.988c0 6.221.307 12.596-5.76 14.055-4.532 1.075-7.757-1.767-7.988-1.92l1.997-2.535z"/></g></g></svg>