<?xml version="1.0" encoding="UTF-8"?>
<svg width="96px" height="96px" viewBox="0 0 96 96" version="1.1" xmlns="http://www.w3.org/2000/svg" xmlns:xlink="http://www.w3.org/1999/xlink">
    <title>apps / eufy</title>
    <defs>
        <circle id="path-1" cx="48" cy="48" r="48"></circle>
    </defs>
    <g id="apps-/-eufy" stroke="none" stroke-width="1" fill="none" fill-rule="evenodd">
        <g id="Group">
            <mask id="mask-2" fill="white">
                <use xlink:href="#path-1"></use>
            </mask>
            <use id="Mask" fill="#D8D8D8" xlink:href="#path-1"></use>
            <rect id="Rectangle" fill="#286185" mask="url(#mask-2)" x="-0.96" y="-0.96" width="97.92" height="97.92"></rect>
        </g>
        <g id="icon-5" transform="translate(25.000000, 20.000000)" fill="#FFFFFF" fill-rule="nonzero">
            <path d="M22.4712644,0 L45.7356322,4.7920231 C45.8237548,10.027752 45.9118774,15.263481 46,20.4992099 C46,40.0597158 43.6183103,44.950774 31.7241379,52.4460306 C29.4347126,53.8886958 26.2808046,56.4947577 23.2643678,56.9718302 C20.5149425,57.4068394 14.6322299,52.6792424 12.6896552,51.3811366 C1.57986207,43.9574941 0,38.5757859 0,19.9667629 L0.264367816,4.7920231 L22.4712644,0 Z M22.7356322,15.4409633 C20.2402644,15.5647572 18.1705287,15.7545746 15.0689655,18.3694219 C9.05724138,23.4380512 10.3103448,33.2835289 15.5977011,37.0050673 C24.6655172,43.3885745 36.2926782,36.2306231 34.6321839,26.356127 C33.5178736,25.8425819 32.7892759,25.9551944 31.9885057,26.6223506 C32.2343678,37.1283287 19.723954,39.600214 15.3333333,31.9468207 C10.2574713,23.1010122 21.2475057,14.2725084 28.816092,20.7654334 C23.3846552,26.3425496 22.3314138,26.8885741 23.5287356,28.2196916 C23.926944,28.6668869 24.5299289,28.8692927 25.1149425,28.7521386 C28.2321034,25.9125987 30.2262299,23.6049733 32.7816092,21.0316569 L32.7816092,20.2329864 C29.5605517,17.7461927 28.6008966,15.494208 22.7356322,15.4409633 Z" id="Color_Fill_1"></path>
        </g>
    </g>
</svg>