<svg width="96" height="96" xmlns="http://www.w3.org/2000/svg" xmlns:xlink="http://www.w3.org/1999/xlink"><defs><circle id="a" cx="48" cy="48" r="48"/></defs><g fill="none" fill-rule="evenodd"><mask id="b" fill="#fff"><use xlink:href="#a"/></mask><use fill="#D8D8D8" xlink:href="#a"/><path fill="#000" mask="url(#b)" d="M0 0h96v96H0z"/><g mask="url(#b)" fill="#FFF" fill-rule="nonzero"><path d="M11.52 40.581v14.501h3.023v-5.829h6.83v-2.638h-6.83v-3.328h8.2v-2.706H11.52zm12.61 0h3.023v14.501H24.13v-14.5zm15.048 6.968a3.788 3.788 0 0 1 1.866 3.328c0 2.42-1.562 4.205-4.977 4.205h-7.502v-14.5h7.322c3.191 0 4.771 1.766 4.771 3.838 0 1.3-.566 2.643-1.48 3.11m-3.658-1.244c1.362 0 2.034-.548 2.034-1.624s-.69-1.605-2.053-1.605h-3.906v3.272l3.925-.043zm.106 6.177c1.517 0 2.332-.572 2.332-1.792 0-1.219-.771-1.866-2.295-1.866h-4.068v3.64l4.03.018zm27.85-11.882c3.229 0 5.095 1.667 5.095 4.51a4.112 4.112 0 0 1-2.152 3.882l2.177 6.109h-3.048l-1.947-5.43h-4.442v5.461h-3.023V40.581h7.34zm-4.317 6.457h3.894c1.785 0 2.432-.69 2.432-1.903 0-1.362-.727-1.866-2.737-1.866h-3.59v3.77zm24.46.797c0 4.261-2.488 7.514-7.067 7.514-4.578 0-7.067-3.253-7.067-7.514 0-4.262 2.458-7.515 7.067-7.515 4.61 0 7.067 3.247 7.067 7.515m-3.11 0c0-2.681-1.244-4.815-3.963-4.815-2.718 0-3.956 2.134-3.956 4.815 0 2.68 1.244 4.808 3.956 4.808 2.712 0 3.963-2.127 3.963-4.808m-29.45 3.328h-5.785l-1.176 3.919h-2.986l4.622-14.5h4.977l4.628 14.5h-3.104l-1.176-3.92zm-5.007-2.638h4.192l-1.517-5.039H47.6l-1.55 5.04z"/></g></g></svg>