<svg width="96" height="96" xmlns="http://www.w3.org/2000/svg" xmlns:xlink="http://www.w3.org/1999/xlink"><defs><circle id="a" cx="48" cy="48" r="48"/></defs><g fill="none" fill-rule="evenodd"><mask id="b" fill="#fff"><use xlink:href="#a"/></mask><use fill="#D8D8D8" xlink:href="#a"/><path fill="#EC0928" mask="url(#b)" d="M-.96-.96h97.92v97.92H-.96z"/><g fill="#FFF" fill-rule="nonzero" mask="url(#b)"><path d="M16.77 44.471c-1.256.219-2.293 1.037-2.892 2.304l-.357.749-.035 2.615-.046 2.626h1.751V49.31h7.085l.426-.668.426-.656-3.963-.035-3.974-.023v-.276c0-.323.588-1.14 1.071-1.498.3-.23.53-.242 3.168-.311 1.567-.046 2.938-.08 3.042-.092.172-.012 1.129-1.14 1.129-1.337 0-.092-6.21-.046-6.832.058zM26.458 44.517c-.957.254-1.682.933-2.212 2.028-.334.702-.357.83-.357 2.073 0 1.233.023 1.371.322 1.97.415.818 1.14 1.567 1.809 1.878.484.219.76.242 3.686.276 1.74.023 3.433.012 3.756-.034 1.21-.15 2.292-1.083 2.822-2.442.357-.945.369-2.477 0-3.41-.38-.98-1.025-1.728-1.82-2.108l-.668-.335-3.399-.023c-2.488-.023-3.536.012-3.94.127zm6.658 1.394c.61.184 1.313.772 1.624 1.37.484.934.254 2.466-.495 3.227-.772.794-.864.817-3.675.852-2.96.046-3.49-.035-4.193-.634-1.152-.979-1.348-2.615-.46-3.824.368-.519.713-.772 1.347-1.002.634-.23 5.08-.22 5.852.011z"/><path d="M29.637 46.671c-.484.139-1.152.887-1.244 1.406-.115.645.104 1.267.61 1.728.6.541 1.28.656 1.993.334.75-.334 1.072-.841 1.072-1.694 0-.84-.311-1.359-1.025-1.681-.519-.23-.853-.254-1.406-.093zM40.074 44.436c-.852.081-1.693.3-2.166.576-.944.542-1.22 1.521-.645 2.212.427.519 1.924 1.187 3.825 1.728 1.89.542 3.249 1.072 3.537 1.406.172.184.184.265.08.518-.276.588-.725.668-4.032.737l-3.041.058-.415.565-.414.564 3.686-.07c3.963-.068 4.77-.172 5.587-.713.519-.334.841-.98.749-1.486-.173-.934-1.613-1.855-3.813-2.431-3.088-.818-3.975-1.187-3.975-1.67 0-.461.37-.519 3.606-.554l3.076-.034.346-.68c.195-.38.345-.714.345-.749 0-.057-5.645-.046-6.336.023zM50.097 44.575c-2.42.772-3.456 3.099-2.523 5.598.31.83 1.244 1.832 2.12 2.258.564.277.622.277 3.732.277h3.156l.392-.726.403-.714-2.12-.012c-1.151 0-2.695-.046-3.41-.092-1.174-.092-1.359-.127-1.785-.426-.311-.219-.599-.565-.806-.968-.288-.553-.323-.726-.277-1.405.058-.98.461-1.694 1.164-2.108.507-.3.553-.3 3.513-.369l2.996-.07.288-.679c.16-.38.299-.703.299-.737 0-.023-1.463-.046-3.249-.035-2.787 0-3.352.035-3.893.208zM63.402 44.471c-.126.046-.345.207-.472.357-.265.288-5.345 7.8-5.345 7.891 0 .035.449.035 1.002.023l1.002-.034 1.947-3.053c1.544-2.43 1.993-3.053 2.177-3.053.196 0 .45.323 1.14 1.498.496.83.9 1.532.91 1.578 0 .058-.506.092-1.117.092-.622 0-1.555.035-2.073.07l-.945.08.461.668.46.68h4.229l.437.749.438.748h1.014c.553 0 1.014-.034 1.014-.069 0-.23-4.078-6.497-4.885-7.5-.415-.53-.852-.852-1.083-.829-.046 0-.184.046-.31.104zM71.224 44.517c-.196.08-.46.3-.599.472-.253.311-.253.404-.253 4.055v3.733l.84-.035.83-.034-.046-3.007c-.023-1.659 0-3.076.046-3.145.046-.08.576.588 1.325 1.694.691 1.013 1.475 2.027 1.751 2.258 1.371 1.175 2.465.61 4.412-2.293.553-.83 1.083-1.578 1.164-1.67.138-.139.161.322.161 3.03v3.19h1.59l.057-.668c.023-.357.035-2.039.035-3.732-.012-2.926-.023-3.088-.253-3.399-.3-.403-.98-.645-1.533-.541-.564.115-1.394.99-2.891 3.087-.784 1.083-1.279 1.682-1.417 1.682-.127 0-.472-.38-.922-1.002-1.163-1.624-2.453-3.214-2.81-3.468-.45-.322-1.049-.403-1.487-.207z"/></g></g></svg>