<?xml version="1.0" encoding="UTF-8"?>
<svg width="96px" height="96px" viewBox="0 0 96 96" version="1.1" xmlns="http://www.w3.org/2000/svg" xmlns:xlink="http://www.w3.org/1999/xlink">
    <title>apps / frient</title>
    <defs>
        <circle id="path-1" cx="48" cy="48" r="48"></circle>
    </defs>
    <g id="apps-/-frient" stroke="none" stroke-width="1" fill="none" fill-rule="evenodd">
        <g id="Group">
            <mask id="mask-2" fill="white">
                <use xlink:href="#path-1"></use>
            </mask>
            <use id="Mask" fill="#D8D8D8" xlink:href="#path-1"></use>
            <rect id="Rectangle" fill="#0B6858" mask="url(#mask-2)" x="-0.96" y="-0.96" width="97.92" height="97.92"></rect>
        </g>
        <g id="Asset-3" transform="translate(10.000000, 36.000000)" fill="#FFFFFF" fill-rule="nonzero">
            <path d="M36.3813588,17.5403392 L36.3813588,14.9260914 L41.2937359,14.9260914 C41.2399144,14.5281578 41.220645,14.1647422 41.1395804,13.8156548 C40.6080098,11.5361662 38.4524909,9.9796011 36.0444759,10.1196268 C33.7188544,10.2544423 31.7128397,12.0969204 31.5374214,14.3985526 C31.4370874,15.7200047 31.4045287,17.0746722 31.5832693,18.3811448 C31.8922448,20.6059257 33.7660313,22.1670497 36.0624164,22.3435473 C36.1494611,22.3500601 36.2358413,22.3630858 36.3454778,22.3754601 L36.3454778,24.9884053 C35.6690541,25.0379028 35.0218669,24.9232771 34.385311,24.7519898 C31.2297749,23.9020662 28.9885402,21.2708851 28.8117929,18.0756933 C28.7320573,16.6428719 28.7167747,15.1859531 28.892193,13.7668086 C29.2981801,10.4810886 32.1872665,7.83427668 35.5514441,7.50472776 C39.5468619,7.11395829 43.0731686,9.64744705 43.8359725,13.5023879 C43.9768387,14.2187986 43.9569048,14.9658196 43.9841478,15.6998149 C44.0067396,16.3035538 43.988799,16.9085952 43.988799,17.5403392 L36.3813588,17.5403392 Z" id="Path"></path>
            <path d="M50.0493688,7.47476877 L50.0493688,9.17461598 C50.1550184,9.10362619 50.226116,9.06064155 50.2918979,9.01179537 C54.8826748,5.56651117 61.5618598,8.18075895 62.4515762,13.774624 C62.5082534,14.1491247 62.5357973,14.5273073 62.5339696,14.9059016 C62.5412787,17.2876416 62.5379564,19.6687302 62.5379564,22.0504702 L62.5379564,22.3259627 L59.8216304,22.3259627 L59.8216304,21.9482188 C59.8216304,19.6101148 59.8289395,17.2720108 59.8216304,14.9339068 C59.812328,12.5860335 58.2216028,10.6901503 55.8800342,10.2088525 C52.9736717,9.61227779 50.0992035,11.8220792 50.0573423,14.7281015 C50.0221258,17.120262 50.0480398,19.5124224 50.0473754,21.9052342 L50.0473754,22.317496 L47.3496544,22.317496 L47.3496544,7.47476877 L50.0493688,7.47476877 Z" id="Path"></path>
            <path d="M2.72429951,22.3311729 L0,22.3311729 L0,21.967106 C0,17.1701936 0,12.3737154 0,7.5776714 C0.00664463295,3.85168446 2.5362564,0.846667195 6.26389548,0.141328293 C6.69313877,0.0599179861 7.13500686,0.046892337 7.59747331,0 L7.59747331,2.66309397 C5.93033491,2.73017606 4.58479673,3.38666878 3.60936462,4.71984397 C3.0213146,5.52417781 2.73758877,6.42815786 2.72429951,7.4474149 L5.85392163,7.4474149 L5.85392163,10.1052986 L2.72429951,10.1052986 L2.72429951,22.3311729 Z" id="Path"></path>
            <path d="M72.8484333,19.7130174 L72.8484333,22.3604806 C72.4231768,22.3233575 72.0085517,22.3122857 71.6032291,22.24846 C68.0184496,21.6818443 65.2795319,18.5928116 65.2635848,15.0472299 C65.2416575,10.1333038 65.2576047,5.21937762 65.2576047,0.305451473 C65.2576047,0.221436036 65.2689005,0.138071881 65.2755452,0.038425665 L67.9626347,0.038425665 L67.9626347,7.48974826 L71.1022238,7.48974826 L71.1022238,10.1489345 L67.9745951,10.1489345 L67.9745951,10.5318886 C67.9745951,11.9386587 67.9745951,13.3456459 67.9745951,14.7528502 C67.9745951,17.4693494 69.8530328,19.4642275 72.6118844,19.6856636 C72.6776663,19.6895713 72.7427837,19.6999918 72.8484333,19.7130174 Z" id="Path"></path>
            <path d="M10.3051612,7.47086107 L12.9949087,7.47086107 L12.9949087,9.22150832 C14.0281491,8.41066166 15.1211912,7.87661004 16.3504483,7.62456373 C17.5839397,7.36880023 18.8631184,7.41962406 20.0714427,7.77240485 C19.6993433,8.59627716 19.3365463,9.400611 18.9624535,10.2264372 C18.2121424,10.0671734 17.434121,10.0832373 16.691318,10.2733295 C14.4573924,10.8458068 13.0168359,12.732572 13.0088624,15.1195223 C13.0008888,17.3820775 13.0088624,19.6446328 13.0088624,21.9065367 L13.0088624,22.3207524 L10.3051612,22.3207524 L10.3051612,7.47086107 Z" id="Path"></path>
            <polygon id="Path" points="22.8017224 22.3272652 22.8017224 7.47802518 25.4761872 7.47802518 25.4761872 22.3272652"></polygon>
            <path d="M72.8789805,2.08410386 C72.8771599,0.978235475 73.7893272,0.0797913985 74.917572,0.07616854 C76.0570606,0.0700422448 76.9875877,0.967268397 77,2.08410386 C76.9952754,3.20114405 76.0731612,4.10583829 74.9335192,4.11154616 C74.3866385,4.11016756 73.8627649,3.89568274 73.4773715,3.51536879 C73.0919781,3.13505483 72.8767035,2.62013324 72.8789805,2.08410386 L72.8789805,2.08410386 Z M76.6172691,2.08410386 C76.6163921,1.64532488 76.4373529,1.22493613 76.1196894,0.915773681 C75.8020259,0.606611228 75.3718707,0.434108252 74.9242167,0.43633749 C73.9941507,0.447029235 73.2449993,1.18740995 73.2417956,2.09908336 C73.2552324,3.01093991 74.0130781,3.74331072 74.9434861,3.74357157 C75.3901513,3.74167916 75.8176849,3.56563072 76.1317151,3.25428636 C76.4457453,2.94294199 76.6204512,2.52190167 76.6172691,2.08410386 Z" id="Shape"></path>
            <path d="M74.4896577,2.34461685 L74.4896577,3.20430969 L74.4092576,3.2746482 C74.3275286,3.20951995 74.1766955,3.14113529 74.1747021,3.07209935 C74.157426,2.35112967 74.1640707,1.62950871 74.1640707,0.902677486 C74.547466,0.902677486 74.8996315,0.873369776 75.244488,0.911795441 C75.5255559,0.942405716 75.7189148,1.12736993 75.7674206,1.42305217 C75.8159264,1.71873441 75.7229015,1.95580122 75.4750567,2.13034492 C75.4052881,2.17984239 75.3282104,2.21891933 75.2365144,2.27297578 C75.4717344,2.58689392 75.6969875,2.8884377 75.9215761,3.1893302 L75.8458273,3.28962769 C75.70629,3.20821739 75.5441609,3.15025325 75.43386,3.0408378 C75.2908243,2.89047032 75.1669884,2.72360102 75.0650829,2.54390928 C74.9328547,2.32442709 74.7607587,2.25083217 74.4896577,2.34461685 Z M74.5069337,2.04958589 C74.854448,2.06391411 75.2066136,2.13034492 75.3873476,1.78907291 C75.4537939,1.66272411 75.4484782,1.42500602 75.3680781,1.31363672 C75.1620945,1.03032885 74.8311918,1.09220068 74.5042759,1.11108787 L74.5069337,2.04958589 Z" id="Shape"></path>
        </g>
    </g>
</svg>