<svg width="96" height="96" xmlns="http://www.w3.org/2000/svg" xmlns:xlink="http://www.w3.org/1999/xlink"><defs><circle id="a" cx="48" cy="48" r="48"/></defs><g fill="none" fill-rule="evenodd"><mask id="b" fill="#fff"><use xlink:href="#a"/></mask><use fill="#D8D8D8" xlink:href="#a"/><path fill="#EC520D" mask="url(#b)" d="M-.96-.96h97.92v97.92H-.96z"/><path d="M70.037 63.579V43.793c2.852 2.162 4.627 5.405 4.68 10.055.054 3.838-1.452 6.811-3.55 8.973-.43.487-.806.704-1.13.758zm0-22.49c.915.596 1.83 1.352 2.799 2.272 1.075 1.027 2.044.865 2.044-1.028 0-3.027-.969-6.216-3.66-8.92a20.973 20.973 0 0 0-1.183-1.08v8.756zm0-8.757v8.757c-1.399-.864-2.69-1.404-3.927-1.675v-9.351c1.345.43 2.636 1.188 3.927 2.27zm0 11.461V63.58c-.645.107-1.022-.487-1.075-1.46-.108-3.947-1.239-6.812-2.852-8.542v-1.946c.27-1.243.377-2.54.377-3.891 0-1.19-.161-2.325-.377-3.46v-2.54c1.452.54 2.798 1.242 3.927 2.053zm-3.927 22.65c1.184-2.864 1.022-5.784 0-8.65v8.65zM59.762 37.63c2.42 2.756 3.926 6.378 3.926 10.324 0 3.947-1.506 7.569-3.926 10.325V37.63zm6.348-7.568c-2.098-.758-4.196-.812-6.348-.325v3.892c.43.38.86.756 1.29 1.19 1.346 1.351 2.422 2.865 3.283 4.432.538 0 1.183.054 1.775.162v-9.351zm0 11.676v2.54a12.86 12.86 0 0 0-.808-2.81c.27.107.54.162.808.27zm0 9.892v1.946l-.377-.378c.162-.487.27-1.028.377-1.568zm0 6.162a25.64 25.64 0 0 0-1.13-2.486c-.807 1.946-1.99 3.73-3.497 5.352a16.192 16.192 0 0 1-1.72 1.621v11.192a13.306 13.306 0 0 0 3.495-2.65c1.345-1.46 2.26-2.864 2.852-4.38v-8.649zm-6.348-30.542v-4.758c1.237.596 2.366 1.46 3.281 2.379 1.346 1.298.754 2.163-.752 2.163-.915.054-1.723.108-2.529.216zm-6.08 6.162c2.367.92 4.465 2.38 6.08 4.218V58.28c-1.615 1.892-3.713 3.352-6.08 4.271V33.413zm6.08-10.92v4.758c-2.69.433-4.735 1.352-6.08 2.648v-8.703c.162 0 .323-.054.484-.054 2.153 0 3.981.54 5.596 1.35zm0 7.245c-1.292.27-2.584.756-3.874 1.406a19.671 19.671 0 0 1 3.874 2.486v-3.892zm0 32.542a15.425 15.425 0 0 1-2.528 1.785c.16 2.433-.915 5.351-3.553 8.38v2.324c.27.053.485.053.808.053a12.522 12.522 0 0 0 5.273-1.35V62.28zm-6.08 5.299v-1.946c.323-.054.592-.162.86-.271-.214.757-.537 1.513-.86 2.217zm-5.703-35.247c2.044 0 3.928.38 5.702 1.081v29.138a15.305 15.305 0 0 1-5.702 1.081c-1.937 0-3.82-.378-5.541-1.027v-29.3c1.72-.648 3.604-.973 5.541-.973zm5.702-11.136V29.9c-.107.11-.16.217-.268.271a19.996 19.996 0 0 0-5.434-.757c-1.937 0-3.765.27-5.541.811v-1.621c1.99-4.38 5.487-7.299 11.243-7.407zm0 44.437v1.946c-1.935 4.324-5.432 7.136-11.243 7.297v-8.595c.16-.108.323-.27.43-.433 1.721.487 3.551.758 5.434.704 1.882-.054 3.712-.325 5.38-.92zm0 6.812c-.053.108-.16.215-.268.323-.807.92-.807 1.785.268 2v-2.323zm-11.243-49.14.16-.162c.755-.866.808-1.677-.16-1.947v2.108zm0 39.3a14.968 14.968 0 0 1-6.08-4.162V37.468c1.614-1.837 3.712-3.243 6.08-4.163v29.3zm0-41.409c-.216-.054-.538-.108-.915-.054-1.721.054-3.497.433-5.165 1.243v11.136a14.866 14.866 0 0 1 2.422-1.675c-.163-2.433.968-5.405 3.658-8.542v-2.108zm0 7.407v1.621c-.216.108-.485.162-.7.27.215-.649.431-1.297.7-1.891zm0 37.678v8.595h-.161a12.132 12.132 0 0 1-5.919-1.35v-4.597c2.69-.43 4.734-1.35 6.08-2.648zm-6.08.162c1.346-.27 2.69-.81 4.035-1.512-1.452-.65-2.798-1.46-4.035-2.541v4.053zm0-8a15.466 15.466 0 0 1-4.088-10.488c0-4 1.56-7.676 4.088-10.487v20.975zm0-36.058c-1.291.65-2.475 1.514-3.604 2.704-1.292 1.404-2.207 2.81-2.798 4.27v8.92c.27.756.645 1.514 1.022 2.324.861-1.945 1.99-3.73 3.497-5.351a28.72 28.72 0 0 1 1.883-1.731V22.385zm0 40.005c-.43-.325-.86-.65-1.238-1.029-1.344-1.35-2.475-2.81-3.335-4.378-.591 0-1.184 0-1.83-.161v9.297c2.099.756 4.252.812 6.403.324V62.39zm0 6.54v4.596a13.89 13.89 0 0 1-3.012-2.164c-1.346-1.296-.808-2.162.698-2.215.808 0 1.56-.108 2.314-.218zm-6.402-14.38v-2.486c.16.973.484 1.892.807 2.758-.27-.054-.538-.164-.807-.271zm0-10.649v-.973l.16.162-.16.811zm0-14.542v8.92c-1.13-2.973-1.292-6 0-8.92zm0 13.569c-1.776-1.675-3.013-4.541-3.281-8.65 0-.81-.27-1.297-.7-1.46V52.55c1.182.812 2.474 1.514 3.98 2v-2.486a18.965 18.965 0 0 1-.484-3.514 16.864 16.864 0 0 1 .485-4.649v-.973zm0 13.894v9.297c-1.346-.432-2.69-1.242-3.982-2.325V55.2c1.4.865 2.69 1.406 3.982 1.623zm-3.982-24.003V52.55c-2.905-2.108-4.733-5.243-4.842-9.945-.161-3.785 1.345-6.813 3.39-9.029.591-.65 1.075-.865 1.452-.757zm0 22.38a19.119 19.119 0 0 1-2.743-2.162c-1.13-1.027-2.1-.812-2.044 1.027.054 3.027 1.076 6.216 3.819 8.866.323.324.645.595.968.864V55.2z" fill="#FFF"/></g></svg>