<svg width="96" height="96" xmlns="http://www.w3.org/2000/svg"><g fill="none" fill-rule="evenodd"><circle fill="#CC3332" cx="48" cy="48" r="48"/><g fill="#FFF" fill-rule="nonzero"><path d="M20.942 41.213c0-.403-.214-.588-.59-.588h-1.098V38.4h2.573c1.205 0 1.715.51 1.715 1.664v5.284c0 .644-.056 1.126-.056 1.126h.056c.588-1.312 2.331-3.031 5.042-3.031 3.19 0 4.64 1.742 4.64 5.2v5.872c0 .404.213.59.589.59h1.098v2.224h-2.55c-1.204 0-1.714-.51-1.714-1.715v-6.382c0-1.905-.403-3.407-2.572-3.407-2.063 0-3.727 1.395-4.292 3.351-.19.538-.241 1.154-.241 1.798v6.355h-2.6V41.213zM43.226 43.443c3.81 0 5.845 2.84 5.845 6.354 0 .348-.08 1.07-.08 1.07h-9.895c.163 2.898 2.253 4.534 4.668 4.534 2.331 0 3.967-1.58 3.967-1.58l1.126 1.849s-2.011 1.983-5.228 1.983c-4.292 0-7.212-3.082-7.212-7.105-.004-4.32 2.944-7.105 6.81-7.105zm3.161 5.52c-.079-2.253-1.502-3.458-3.189-3.458-1.983 0-3.592 1.205-3.995 3.458h7.184zM59.42 48.884h.589v-.134c0-2.387-.885-3.245-3.003-3.245-.645 0-2.225.162-2.225 1.048v.778h-2.438v-1.34c0-2.224 3.379-2.548 4.69-2.548 4.399 0 5.576 2.308 5.576 5.311v5.766c0 .403.213.589.589.589h1.098v2.224h-2.438c-1.205 0-1.687-.588-1.687-1.557 0-.454.056-.806.056-.806h-.056s-1.07 2.683-4.315 2.683c-2.331 0-4.612-1.423-4.612-4.13-.004-4.37 5.896-4.639 8.176-4.639zm-3.003 6.679c2.197 0 3.62-2.308 3.62-4.315v-.454h-.672c-1.956 0-5.497.106-5.497 2.6 0 1.094.834 2.169 2.549 2.169zM67.22 45.853h-1.77v-2.09h1.822v-3.727h2.549v3.727h3.244v2.09h-3.244v6.22c0 2.707 1.877 3.059 2.869 3.059.375 0 .616-.056.616-.056v2.308s-.347.056-.913.056c-1.715 0-5.177-.538-5.177-5.066v-6.521h.005zM76.259 46.14c0-.306-.162-.445-.445-.445h-.83v-1.682h1.924c.913 0 1.298.385 1.298 1.298v6.827c0 .306.162.445.444.445h.83v1.682h-1.923c-.913 0-1.298-.384-1.298-1.298V46.14zm.037-6.178h1.761v2.044h-1.761v-2.044zM86.229 53.31c.083-.26.12-.49.125-.676 0-.033-.028-.06-.06-.056-.084.01-.205.023-.353.023-.75 0-2.169-.264-2.169-2.308v-4.7h2.452v-1.58h-2.452v-2.818h-1.923v2.813h-1.377v1.58h1.335v4.923c0 3.221 2.313 3.768 3.666 3.824.162.004.5-.223.756-1.025zM16.993 40.708c-.019.751-.278 1.39-.83 1.9-.273.25-.454.533-.496.909-.056.477.079.88.413 1.224.097.097.204.19.296.292.39.454.584.987.607 1.59.028.81-.25 1.506-.857 2.039a1.436 1.436 0 0 0-.348 1.65c.074.162.186.324.32.445.56.51.858 1.135.885 1.89a2.567 2.567 0 0 1-.62 1.794c-.126.149-.274.27-.404.413-.454.51-.399 1.427.093 1.877.05.046.097.097.139.153.185.255.167.538-.042.76-.218.232-.505.264-.774.079a1.876 1.876 0 0 1-.593-.7c-.482-.96-.45-1.905.153-2.809.12-.185.292-.338.454-.491.482-.459.51-1.321.144-1.812a2.497 2.497 0 0 0-.283-.302c-.533-.51-.779-1.126-.788-1.863-.01-.788.264-1.455.857-1.97.51-.44.603-1.279.255-1.817a1.805 1.805 0 0 0-.3-.347c-.404-.376-.678-.825-.766-1.367-.153-.95.042-1.808.798-2.457.579-.5.667-1.539.046-2.127-.269-.255-.301-.538-.111-.807.208-.292.607-.333.894-.079.422.371.677.84.788 1.382.042.185.051.37.07.551z"/><path d="M14.592 40.708c-.019.751-.278 1.39-.83 1.9-.273.25-.454.533-.496.909-.055.477.079.88.413 1.224.097.097.204.19.296.292.39.454.584.987.607 1.59.028.81-.25 1.506-.857 2.039a1.436 1.436 0 0 0-.348 1.65c.075.162.186.324.32.445.561.51.858 1.135.885 1.89a2.567 2.567 0 0 1-.62 1.794c-.126.149-.274.27-.404.413-.454.51-.398 1.427.093 1.877.05.046.097.097.139.153.185.255.167.538-.042.76-.218.232-.505.264-.774.079a1.876 1.876 0 0 1-.593-.7c-.482-.96-.45-1.905.153-2.809.12-.185.292-.338.454-.491.482-.459.51-1.321.144-1.812a2.497 2.497 0 0 0-.283-.302c-.533-.51-.779-1.126-.788-1.863-.01-.788.264-1.455.858-1.97.51-.44.602-1.279.254-1.817a1.805 1.805 0 0 0-.3-.347c-.404-.376-.677-.825-.766-1.367-.152-.95.042-1.808.798-2.457.579-.5.667-1.539.046-2.127-.269-.255-.301-.538-.111-.807.208-.292.607-.333.894-.079.422.371.677.84.788 1.382.037.185.047.37.07.551z"/><path d="M12.186 40.708c-.018.751-.278 1.39-.83 1.9-.273.25-.454.533-.495.909-.056.477.078.88.412 1.224.098.097.204.19.297.292.39.454.584.987.607 1.59.028.81-.25 1.506-.857 2.039a1.436 1.436 0 0 0-.348 1.65c.074.162.185.324.32.445.56.51.857 1.135.885 1.89a2.567 2.567 0 0 1-.621 1.794c-.125.149-.274.27-.403.413-.455.51-.399 1.427.092 1.877.051.046.098.097.14.153.185.255.166.538-.042.76-.218.232-.505.264-.774.079a1.876 1.876 0 0 1-.594-.7c-.482-.96-.45-1.905.153-2.809.12-.185.292-.338.455-.491.482-.459.51-1.321.143-1.812a2.497 2.497 0 0 0-.282-.302c-.533-.51-.78-1.126-.788-1.863-.01-.788.264-1.455.857-1.97.51-.44.603-1.279.255-1.817a1.805 1.805 0 0 0-.301-.347c-.404-.37-.672-.82-.76-1.367-.153-.95.041-1.808.797-2.457.58-.5.663-1.534.042-2.123-.265-.255-.297-.542-.112-.806.209-.292.607-.334.895-.079.422.37.677.839.788 1.381.041.181.05.366.07.547z"/></g></g></svg>