<svg width="96" height="96" xmlns="http://www.w3.org/2000/svg"><g fill="none" fill-rule="evenodd"><circle fill="#EE3124" cx="48" cy="48" r="48"/><g fill="#FFF" fill-rule="nonzero"><path d="M15.86 46.012h-2.724v-4.699H9.633v11.292h3.47v-5.15h2.758v5.21h3.469V41.28h-3.47zM26.907 44.384c-.91-.36-2.034-.293-2.034-.293-.047 0-.392-.013-.91.08-.586.1-1.848.346-2.852 1.675-1.003 1.33-.85 3.01-.611 3.954.246.944.777 1.635 1.575 2.267.797.631 1.98.837 2.904.837.924 0 1.868-.166 2.466-.492.598-.325 1.502-.957 1.947-2.233.446-1.283.372-2.858-.259-3.948-.638-1.09-1.323-1.488-2.226-1.847zm-.685 5.696c-.046.531-.233 1.296-.678 1.674-.452.38-.997.22-1.336-.292-.339-.512-.458-.997-.432-2.446.027-1.449-.053-2.459.22-3.05.272-.592.551-.845.81-.891.545-.106.964.26 1.223.924.1.252.2.73.206 1.369.014 1.116.014 2.432-.013 2.712zM37.94 44.397c-1.164-.492-2.307-.2-2.965.113-.658.312-1.09.97-1.09.964v-1.11h-3.263v8.248h3.25v-5.929c-.067-.066.392-.551.837-.79.445-.24.97-.107 1.157.12.259.311.259.67.259.863v5.742h3.21l-.013-6.287c-.027-.399-.22-1.442-1.383-1.934zM49.297 50.246l-1.395.006c-.033 0 .013 1.256-1.748 1.529-1.589.252-2.12-.432-2.253-.612-.133-.179-.193-.518-.193-.518V48.97l5.862.013c.013 0 .1-1.529-.518-2.698-.718-1.363-1.888-2.107-3.915-2.207-2.034-.106-3.682.937-4.327 2.24-.644 1.302-.565 2.838-.285 3.629.226.638.571 1.329 1.335 1.967 1.31 1.09 2.938 1.057 4.081.944 1.15-.12 2.173-.685 2.752-1.237.591-.545.604-1.375.604-1.375zm-5.516-3.942c.093-.518.379-.937.632-1.123.305-.219.923-.252 1.262.093.34.346.412.632.459.785.046.152.14.631.133 1.096-.007.465-.007.725 0 .745h-2.559c0-.007-.02-1.084.073-1.596zM74.712 44.091c-2.033-.106-3.682.937-4.326 2.24-.645 1.303-.565 2.838-.286 3.629.226.638.572 1.33 1.336 1.967 1.31 1.09 2.937 1.057 4.08.944 1.15-.12 2.174-.685 2.752-1.236.578-.552.598-1.383.598-1.383h-1.395c-.034 0 .013 1.263-1.748 1.542-1.589.253-2.12-.432-2.253-.611-.133-.18-.193-.519-.193-.519v-1.681l5.848.013c.014 0 .107-1.528-.505-2.698-.71-1.363-1.88-2.107-3.908-2.207zm1.124 3.802h-2.56s-.02-1.077.074-1.589c.093-.518.379-.937.631-1.123.306-.219.924-.252 1.263.093.339.346.412.632.459.785.046.152.14.631.133 1.096-.007.459-.007.718 0 .738z"/><path d="m68.605 44.37-1.25 4.56-1.396-4.56h-2.844l-1.263 4.633-1.436-4.62-4.46-.013-1.614 3.922-1.515-3.922h-3.543l3.29 8.434s0 .08-.066.32c-.067.239-.3.837-.698 1.262-.399.426-.838.313-.838.313s.173-.147.273-.393c.106-.239.066-.664-.113-1.043-.186-.379-.691-.678-1.469-.525-.778.146-1.123.857-1.043 1.535.08.678.518 1.25 1.615 1.442 1.103.193 1.767-.206 2.372-.744s1.097-1.914 1.097-1.914l3.43-8.4 2.445 7.961h2.738l1.316-4.811 1.489 4.811h2.672l2.266-8.254h-1.455v.006zM80.11 41.287h3.123v11.338H80.11zM84.203 41.3h3.124v11.338h-3.124z"/></g></g></svg>