<svg width="96" height="96" xmlns="http://www.w3.org/2000/svg" xmlns:xlink="http://www.w3.org/1999/xlink"><defs><circle id="a" cx="48" cy="48" r="48"/><path d="M51.639 12.818c1.8.092 3.497.782 4.594 2.059.82.954 1.264 2.303 1.312 3.665.06 1.738-.436 3.078-1.337 4.042-.97 1.037-2.407 1.639-4.122 1.83-.77.078-1.546.008-2.318.037h-4.17v-5.71a6.386 6.386 0 0 1 1.471-4.101c1.023-1.224 2.56-1.923 4.57-1.822zM21.716 24.117h2.202V10.592h-2.202v13.525zm8.23 13.926c2.346 0 4.703-.998 6.263-2.813.006 0 .012-.004.02-.014l.03-.035.041-.05c.245.852.705 1.672 1.428 2.205.7.527 1.599.727 2.463.708.003-.724-.003-1.448.003-2.172-.355-.023-.73-.035-1.046-.22-.191-.103-.328-.276-.46-.442-.288-.544-.44-1.15-.52-1.758-.139-.944-.142-1.896-.142-2.848.008-.159.013-.319.013-.482l-.011-3.2h-2.243l.003 2.744c.006 4.547-3.053 6.167-6.047 6.167-3.85 0-5.83-2.773-5.855-6.006l-.023-2.902h-2.202l.024 2.374c0 5.817 3.67 8.744 8.261 8.744zm5.839-13.926h2.243V10.592h-2.243v13.525zM0 38.043h2.202V26.916H0v11.127zm8.254-27.45c5.027 0 8.092 3.642 8.092 8.443l-.008.489h.008v4.596h-2.201v-4.988c0-4.16-2.633-6.34-5.954-6.33-2.978.007-5.99 2.114-5.99 5.795v5.523H0V0h2.202v12.995c1.933-1.955 4.648-2.403 6.052-2.403zm5.89 27.45h2.202V26.916h-2.201v11.127zm31.46-11.396-.014.845c.013.84.003 1.447.003 2.287.01.842.215 1.792.522 2.578.39 1.002.942 1.79 1.668 2.365.936.74 2.114 1.091 3.317 1.13 2.346.075 3.872-.694 5.415-2.367.583.437 1.192.838 1.769 1.282-1.63 2.222-4.408 3.307-7.06 3.274-1.774-.022-3.539-.554-4.912-1.693-.983-.815-1.719-1.893-2.192-3.068a10.268 10.268 0 0 1-.656-2.613c-.088-.675-.059-1.356-.063-2.035l-.004-1.985H40.19V24.45h3.206v-4.873c0-2.553.35-4.375 1.985-6.339 1.42-1.707 3.48-2.643 5.921-2.638 2.749.006 5.263 1.072 6.816 3.07 1.006 1.294 1.57 3.121 1.627 4.924.069 2.21-.68 4.098-1.966 5.488-1.419 1.534-3.493 2.46-5.844 2.535-.47.051-.946.018-1.419.028h-4.912z" id="c"/></defs><g fill="none" fill-rule="evenodd"><mask id="b" fill="#fff"><use xlink:href="#a"/></mask><use fill="#D8D8D8" xlink:href="#a"/><path fill="#F3AF2E" mask="url(#b)" d="M.192.192h96v96h-96z"/><g transform="translate(18.288 26.243)"><mask id="d" fill="#fff"><use xlink:href="#c"/></mask><path fill="#FFF" mask="url(#d)" d="M-1.776-1.187h63.072v39.744H-1.776z"/></g></g></svg>