<svg width="96" height="96" xmlns="http://www.w3.org/2000/svg" xmlns:xlink="http://www.w3.org/1999/xlink"><defs><circle id="a" cx="48" cy="48" r="48"/></defs><g fill="none" fill-rule="evenodd"><mask id="b" fill="#fff"><use xlink:href="#a"/></mask><use fill="#D8D8D8" xlink:href="#a"/><path fill="#0158A3" mask="url(#b)" d="M-.96-.96h97.92v97.92H-.96z"/><g fill="#FFF" fill-rule="nonzero"><path d="M34.092 54.828s.174-.146.203-.262c.058-.319-.058-.61-.058-.61l-2.748-4.355v-.029 4.588l.087.377.145.204h-8.707l.145-.204.087-.377V42.197l-.087-.348-.145-.175h8.736l-.145.204-.087.377v4.297l3.153-4.152s.058-.174.058-.406c0-.145-.145-.378-.145-.378h8.678l-3.79 5.401 4.542 7.317.347.261.376.175H34.064c.028-.03.028.058.028.058zM18.045 54.218l.086.406.144.233-8.675-.03.115-.26.029-.407V42.197l-.03-.348-.114-.175h8.675l-.144.175-.086.377zM59.662 46.502l.404-.058.231-.145v3.684l-.26-.145-.375-.087h-4.819v1.218h6.29l.434-.087.23-.174.03 4.178-15.266-.03.145-.26.057-.406V42.208l-.057-.406-.145-.26 15.208.028v4.004l-.26-.117-.404-.029h-6.262v1.074zM74.373 47.191l-1.012 2.323h2.053l-1.04-2.323zm-5.232-4.965s.057-.232.029-.406c-.03-.175-.145-.262-.145-.262h11.824s-.115.058-.144.262c-.03.174.029.406.029.406l5.175 12.137.173.261.231.204-9.338.029s.145-.29.116-.436c-.029-.145-.058-.32-.058-.32l-.607-1.712H72.35l-.665 1.713s-.058.029-.058.145c0 .261.144.465.144.465h-7.516s.26-.117.405-.407c.115-.261.086-.232.086-.232l4.395-11.847z"/></g></g></svg>