<svg width="96" height="96" xmlns="http://www.w3.org/2000/svg"><g fill="none" fill-rule="evenodd"><circle fill="#F9004B" cx="48" cy="48" r="48"/><g fill="#FFF" fill-rule="nonzero"><path d="M53.711 44.517c.374-.47.633-.844.925-1.2 1.525-1.85 3.57-2.288 5.841-2.142 1.493.097 2.856.503 4.073 1.395 1.2.876 1.752 2.093 2.06 3.488.179.828.163 1.672.163 2.515.016 2.434 0 4.852.016 7.285 0 1.493.811 2.5 2.207 2.824 1.427.34 2.985-.78 3.131-2.24.033-.291.033-.584.033-.876v-13.32c0-.455.097-.633.6-.617 1.363.032 2.726.032 4.072 0 .39 0 .503.13.487.503-.032.73 0 1.476 0 2.336.682-.892 1.25-1.736 2.11-2.287a5.878 5.878 0 0 1 2.677-.974c.34-.032.454.016.438.373a130.889 130.889 0 0 0 0 3.57c0 .34-.081.438-.438.405-1.023-.097-2.012 0-2.888.633a3.498 3.498 0 0 0-1.428 2.24 16.92 16.92 0 0 0-.325 3.39c.016 1.46.016 2.92 0 4.381-.032 3.164-1.914 5.387-4.77 6.296a10.475 10.475 0 0 1-6.539 0c-2.855-.925-4.754-3.132-4.77-6.296-.016-2.369 0-4.754 0-7.123 0-.568-.081-1.12-.26-1.67-.324-.99-1.038-1.607-2.012-1.786-2.644-.486-4.64.714-4.997 3.44-.308 2.418-.211 4.851-.243 7.269-.017 1.558-.487 2.937-1.51 4.105-1.151 1.314-2.644 2.044-4.332 2.369-1.833.357-3.65.276-5.451-.292-2.92-.909-4.77-3.326-4.787-6.393-.016-2.32 0-4.64 0-6.977 0-.665-.048-1.33-.324-1.963-.309-.682-.812-1.2-1.542-1.428-1.752-.552-3.959-.21-4.948 1.72-.487.957-.536 2.028-.568 3.067-.065 1.752-.033 3.504-.065 5.257-.016 1.265-.195 2.498-.844 3.618-.86 1.493-2.158 2.466-3.748 3.018-2.32.811-4.657.811-6.977 0-2.515-.876-4.462-2.97-4.494-5.841-.049-4.868-.033-9.736-.033-14.603v-.049c-.016-.243.081-.324.325-.324 1.476.016 2.953 0 4.446 0 .243 0 .34.08.324.324-.016.357 0 .73 0 1.087 0 4.3.049 8.6-.016 12.9-.033 1.817 1.59 3.423 3.537 2.969 1.103-.26 2.11-1.347 2.158-2.515.032-.795.016-1.59.016-2.37 0-3.958 0-7.917-.016-11.876 0-.406.097-.536.52-.52 1.378.033 2.757.017 4.137 0 .357 0 .486.082.47.455-.032.568-.016 1.136 0 1.704 0 .162-.097.389.114.454.162.049.227-.162.308-.292.957-1.363 2.174-2.353 3.845-2.629 2.71-.422 5.29-.146 7.334 1.964.86.892 1.185 2.06 1.363 3.26.195 1.315.13 2.646.13 3.976 0 1.915.016 3.813 0 5.728-.016 1.395.925 2.304 1.882 2.596 1.233.357 2.45-.13 3.115-1.233.292-.487.374-1.023.374-1.59V42.278c0-.665 0-.665.649-.665 1.298 0 2.58.032 3.877-.017.503-.016.6.163.585.617-.05.73-.017 1.444-.017 2.304zM16.75 39.098a3.141 3.141 0 0 1-3.196-3.148c-.017-1.769 1.427-3.245 3.164-3.245 1.752 0 3.212 1.444 3.228 3.196 0 1.801-1.379 3.197-3.196 3.197z"/></g></g></svg>