<svg width="96" height="96" xmlns="http://www.w3.org/2000/svg"><g fill="none" fill-rule="evenodd"><circle fill="#4EDF20" cx="48" cy="48" r="48"/><g fill="#FFF" fill-rule="nonzero"><path d="M69.55 65.56c.045.385.056.618.017.657-.226.227-2.455.34-2.946.147-.57-.22-.914-.651-1.021-1.274-.045-.266-.057-1.501-.045-4.09l.017-3.71.818-.181c.451-.097.92-.176 1.044-.17l.226.011.028 1.416.028 1.416.813.017c.496.006.846.04.891.08.057.045.074.226.062.747l-.017.686-.891.017-.892.017.017 1.608c.023 2.04-.034 1.92.897 1.938.943.022.87-.029.954.668M63.529 63.146c.006 2.23-.006 3.109-.05 3.16-.084.108-1.946.113-2.046.011-.05-.051-.067-.828-.067-3.137 0-1.69.017-3.092.039-3.115.022-.017.502-.028 1.07-.022l1.037.017.017 3.086zM63.53 58.02v1.155l-1.07-.011-1.075-.017-.017-1.068c-.006-.583 0-1.097.012-1.138.022-.057.28-.075 1.092-.075h1.058v1.155zM59.057 60.608v3.652l-.21.441c-.502 1.042-1.516 1.67-2.98 1.846-2.256.271-4.01-.39-4.689-1.778-.342-.69-.359-.911-.342-4.36l.017-3.113.912-.181c.501-.097 1.025-.176 1.168-.17l.256.011.029 3.539.028 3.538.131.238c.268.498.712.662 1.755.634.65-.023.769-.04 1.014-.164.558-.278.518.022.535-3.924.006-1.902.035-3.481.057-3.499.069-.067 1.949-.396 2.142-.379l.177.017v3.652zM48.595 64.625c.617.943 1.027 1.634 1.01 1.68-.023.074-.236.085-1.234.085h-1.2l-.719-1.285-.718-1.291-.23.017-.224.017-.028 1.257-.028 1.257-.976.017c-.668.011-.999-.006-1.05-.051-.111-.092-.117-8.976-.005-9.067.034-.029.41-.137.825-.229.415-.097.858-.17.981-.165l.225.011.028 2.742.028 2.743.23.017.23.017.746-1.24c.41-.68.79-1.28.836-1.337.084-.091.162-.091 1.122-.034.718.046 1.043.086 1.054.131.017.04-.42.737-.959 1.554-.544.817-.987 1.497-.987 1.514 0 .023.471.754 1.043 1.64M41.09 63.157c.006 2.259-.005 3.105-.051 3.167-.052.062-.275.074-1.076.062l-1.007-.017-.017-3.167-.012-3.16 1.07.01 1.076.018.017 3.087zM41.092 58.02v1.155h-1.049c-.9 0-1.054-.011-1.082-.092-.046-.121-.046-2.13.005-2.176.017-.023.507-.04 1.083-.04h1.043v1.154zM37.4 65.004c.086.165.258 1.077.224 1.167-.098.26-1.775.397-2.373.193a1.634 1.634 0 0 1-.925-.822l-.16-.322v-7.93l.804-.176c.442-.102.919-.175 1.062-.175l.259.01.029 3.796c.023 2.928.046 3.823.103 3.92.104.186.253.243.61.243.246 0 .327.023.367.096M33.083 66.232v.158h-2.641l-1.363-1.926-1.363-1.926h-.595l-.012 1.909-.017 1.915h-2.215l-.017-4.533c-.006-2.493 0-4.566.017-4.606.017-.057.278-.068 1.119-.057l1.096.017.017 1.825.011 1.83h.613l1.278-1.83 1.272-1.825 1.284-.017 1.289-.01v.192c0 .158-.227.498-1.51 2.22-.836 1.123-1.523 2.063-1.54 2.103-.011.034.716 1.042 1.624 2.238 1.221 1.603 1.647 2.21 1.653 2.323M53.293 37.065c-.041.069-.802 2.842-.802 2.922 0 .051.281.068 1.083.068.784 0 1.082-.017 1.082-.068 0-.08-.76-2.853-.796-2.916-.04-.057-.532-.063-.567-.006M62.483 41.777c-.471.056-.881.242-.987.445-.044.09-.066.293-.055.547.022.44.094.57.404.739.222.112.981.112 1.264-.012l.205-.084v-1.697l-.205.006c-.117.005-.4.028-.626.056"/><path d="M73.253 44.66H71.16l-.017-2.476c-.017-2.785.006-2.672-.44-2.842-.283-.107-1.007-.09-1.278.04l-.158.067V42c0 1.4-.023 2.582-.046 2.621-.04.051-.288.068-1.062.057l-1.012-.017-.017-2.832-.011-2.836.226-.198c.379-.35.995-.605 1.77-.746.587-.108 1.87-.102 2.401.005.77.159 1.323.526 1.606 1.057.13.238.13.249.13 2.894v2.656zm-7.836-.753c-.165.306-1.09.737-1.973.919-.427.09-2.012.096-2.4.005-.787-.175-1.3-.499-1.608-1.02-.142-.244-.154-.323-.177-.964-.022-.856.046-1.077.445-1.445.525-.488.861-.607 2.412-.85l1.157-.188.017-.204a.624.624 0 0 0-.37-.64c-.33-.159-1.277-.13-2.235.057-.422.085-.781.13-.804.107-.063-.068-.194-1.02-.148-1.128.142-.374 2.622-.714 3.877-.538.786.113 1.414.544 1.704 1.179.12.255.126.345.143 2.432.011 1.41-.006 2.205-.04 2.278zm-7.1.688c-.023.074-.222.085-1.166.085-.847 0-1.148-.017-1.183-.074-.022-.034-.227-.73-.449-1.541l-.403-1.474h-3.048l-.404 1.474c-.222.81-.427 1.507-.45 1.541-.033.057-.335.074-1.182.074-.944 0-1.143-.011-1.166-.085-.045-.108 2.741-9.045 2.832-9.108.097-.056 3.69-.056 3.787 0 .097.063 2.877 9 2.832 9.108zm-11.136.085h-1.223l-.637-1.123c-.853-1.49-.813-1.44-1.07-1.417l-.204.017-.028 1.247-.029 1.248-1 .017c-.797.011-1.02 0-1.07-.063-.046-.062-.057-1.253-.051-4.552l.017-4.468.824-.182c.455-.102.928-.181 1.053-.175l.227.011.017 2.733.012 2.738h.489l.79-1.275c.433-.703.814-1.299.848-1.321.045-.034 2.104.056 2.184.096.057.028-.108.3-.967 1.553-.54.789-.978 1.48-.978 1.543 0 .062.466.81 1.04 1.66.587.885 1.025 1.588 1.007 1.634-.022.062-.255.079-1.25.079zm-7.334-8.333v1.118l-1.07-.011-1.075-.017-.017-1.034c-.006-.565 0-1.063.011-1.102.023-.056.28-.073 1.093-.073h1.058v1.119zm-.084 5.145-.017 3.168-.99.017c-.679.011-1.015-.006-1.066-.052-.068-.05-.08-.595-.08-3.144 0-1.691.017-3.093.04-3.11.017-.023.507-.04 1.082-.04h1.043l-.012 3.161zm-3.467 3.013c-.237.238-1.775.334-2.316.153a1.693 1.693 0 0 1-.924-.844l-.135-.3V35.58l.789-.182c.433-.096.901-.17 1.042-.17l.254.012.028 3.796c.022 2.93.045 3.825.101 3.922.102.187.248.243.603.243.366 0 .35-.022.507.754.062.306.085.516.05.55zm-4.458.175h-2.643l-1.356-1.926-1.361-1.921-.295-.006h-.3l-.012 1.91-.017 1.915h-2.212l-.017-4.607-.012-4.6 1.118.011 1.123.017.017 1.83.011 1.83.312-.017.312-.017 1.265-1.813 1.265-1.813 1.288-.017 1.287-.011v.187c0 .158-.243.515-1.508 2.22-.829 1.117-1.52 2.063-1.538 2.103-.011.04.715 1.053 1.623 2.255 1.162 1.535 1.65 2.22 1.65 2.323v.147zM13.44 52.04h69.12V28.806H13.44v23.232z"/></g></g></svg>