<svg width="96" height="96" xmlns="http://www.w3.org/2000/svg" xmlns:xlink="http://www.w3.org/1999/xlink"><defs><circle id="a" cx="48" cy="48" r="48"/></defs><g fill="none" fill-rule="evenodd"><mask id="b" fill="#fff"><use xlink:href="#a"/></mask><use fill="#D8D8D8" xlink:href="#a"/><g mask="url(#b)"><path fill="#450195" d="M-.96-.96h97.92v97.92H-.96z"/><g fill="#FFF"><path d="M24.96 42.351c0 5.144.484 8.215 2.887 12.537 1.2 2.159 4.094 5.856 5.976 7.118.544-.365 1.168-1.166 2.657-2.2 6.22-4.32 13.677-4.85 20.619-1.878 3.245 1.389 4.826 3.394 5.846 4.078 4.242-2.845 8.863-10.894 8.863-16.907 0-6.51-.584-9.676-4.176-15.05-3.472-5.194-10.991-9.889-17.56-9.889-4.956 0-7.542.056-12.03 2.324-2.655 1.342-4.276 2.491-6.382 4.597-2.118 2.119-3.099 3.642-4.52 6.464-1.169 2.32-2.18 5.44-2.18 8.806zm5.487 1.902c0-5.462 1.344-9.493 5.117-13.262 1.537-1.534 2.659-2.473 4.728-3.507 6.209-3.102 12.958-2.288 18.689 1.507 1.1.729 3.351 3.018 4.092 4.144.66 1.003 1.037 1.586 1.564 2.661 4.955 10.115-2.026 18.693-2.114 19.024-.682-.182-2.12-1.124-2.782-1.44-7.999-3.817-17.933-3.49-25.285 1.44-.29-.433-.42-.484-.758-.931-1.75-2.317-3.251-6.526-3.251-9.636z"/><path d="m37.622 65.81 3.213 3.334c1.925-1.229 3.564-3.123 7.549-3.123 1.996 0 4.585.886 6.066 1.957.576.417 1.023.873 1.531 1.214l3.213-3.334c-1.442-2.109-6.378-4.486-9.544-4.486-3.368 0-4.909-.05-8.024 1.474-1.184.58-3.33 1.956-4.004 2.964M44.586 72.784l3.747 3.856 3.9-3.804c-.72-1.053-2.173-1.742-3.849-1.742-1.676 0-3.129.689-3.798 1.69"/></g></g></g></svg>