<?xml version="1.0" encoding="UTF-8"?>
<svg width="96px" height="96px" viewBox="0 0 96 96" version="1.1" xmlns="http://www.w3.org/2000/svg" xmlns:xlink="http://www.w3.org/1999/xlink">
    <title>apps / loqed</title>
    <defs>
        <circle id="path-1" cx="48" cy="48" r="48"></circle>
    </defs>
    <g id="apps-/-loqed" stroke="none" stroke-width="1" fill="none" fill-rule="evenodd">
        <g id="Group">
            <mask id="mask-2" fill="white">
                <use xlink:href="#path-1"></use>
            </mask>
            <use id="Mask" fill="#D8D8D8" xlink:href="#path-1"></use>
            <rect id="Rectangle" fill="#00284C" mask="url(#mask-2)" x="-0.96" y="-0.96" width="97.92" height="97.92"></rect>
        </g>
        <g id="Asset-1" transform="translate(11.000000, 42.000000)" fill="#FFFFFF" fill-rule="nonzero">
            <path d="M41.6704777,10.1977891 C42.2231498,9.64791029 42.5694803,8.93456467 42.6541289,8.1717383 C42.7693254,7.07825563 42.7693254,5.97626515 42.6541289,4.88278247 C42.3743632,2.92111332 40.6533744,1.45327564 38.6079042,1.43174258 C37.4206402,1.36421118 36.2303048,1.36421118 35.0430408,1.43174258 C32.8844107,1.6029007 31.2171673,3.33993814 31.1991274,5.4365697 C31.1991274,6.14568748 31.1991274,6.85480527 31.1991274,7.57067656 C31.242904,9.73390394 33.0000165,11.4996574 35.2313995,11.6227782 C35.7825232,11.6227782 36.3336469,11.6227782 36.8847706,11.6227782 C37.2700583,11.6227782 37.5823956,11.9251428 37.5823956,12.2981285 C37.5823956,12.6711141 37.2700583,12.9734787 36.8847706,12.9734787 C35.9312301,13.0358001 34.9734174,12.9881917 34.0314846,12.8316552 C31.5638989,12.2070904 29.8291782,10.0664941 29.789925,7.59769057 C29.7421278,6.67907814 29.7607767,5.75835395 29.845735,4.84226146 C30.1977252,2.13760361 32.5759072,0.110466699 35.3918533,0.114802582 C36.5150294,0.114802582 37.6382056,0.114802582 38.7613817,0.114802582 C41.3734858,0.22054563 43.5597027,2.06749449 44.0214737,4.55861434 C44.28435,6.02820489 44.2464252,7.53347543 43.9098537,8.98891213 C43.6449398,9.97687083 43.0813775,10.8657706 42.2913639,11.5417362 C42.1617719,11.7284229 41.9446775,11.8404008 41.7123352,11.8404008 C41.4799929,11.8404008 41.2628985,11.7284229 41.1333065,11.5417362 L36.5708394,7.12494538 C36.3869597,7.01346227 36.2671272,6.82550421 36.2466215,6.61640739 C36.2261158,6.40731058 36.3072715,6.20088061 36.4661957,6.05789195 C36.6204032,5.92265002 36.8263329,5.85656093 37.0334564,5.87584075 C37.2405798,5.89512057 37.4297281,5.997985 37.5544906,6.15919449 L41.426309,9.9073885 C41.5142477,9.99885085 41.5958167,10.0958644 41.6704777,10.1977891 L41.6704777,10.1977891 Z" id="Path"></path>
            <path d="M61.5597646,6.54414414 L61.5597646,0.864448349 C61.5597646,0.310661126 61.7969571,0.0607815246 62.3550571,0.0607815246 C64.4479319,0.0607815246 66.5408067,0.0607815246 68.5778715,0.0607815246 C71.1455834,0.164335388 73.3015043,1.96605396 73.7821535,4.41003728 C74.1211998,6.00529352 74.0638135,7.65571057 73.6147235,9.22528473 C72.8518025,11.4623429 70.6904824,12.9716399 68.256964,12.9667372 L62.4248195,12.9667372 C61.8039334,12.9667372 61.5597646,12.7303526 61.5597646,12.1360444 L61.5597646,6.54414414 Z M62.9898957,1.41148207 L62.9898957,11.6092712 L63.108492,11.6092712 C64.8874356,11.6092712 66.6733554,11.6092712 68.452299,11.6092712 C70.3471652,11.5459553 71.9614333,10.2575378 72.3869036,8.46889242 C72.6075003,7.35539679 72.6334404,6.21395114 72.4636424,5.09214106 C72.250342,2.94202365 70.3323514,1.33184963 68.1034865,1.43174258 L62.9898957,1.43174258 L62.9898957,1.41148207 Z" id="Shape"></path>
            <path d="M19.241836,0 C20.1478823,0.0118659527 21.0521224,0.0818051763 21.9486208,0.209358585 C24.5011264,0.723196142 26.3460696,2.87933637 26.3924916,5.40280218 C26.4498035,6.45804731 26.4054288,7.5161667 26.2599429,8.56344146 C25.7625034,11.1215546 23.4515504,12.9726107 20.7626584,12.9667252 C19.520886,12.9667252 18.2721373,13.0004928 17.0373412,12.9126972 C14.4013173,12.6314306 12.3337856,10.5932146 12.0911804,8.03666825 C11.9922444,6.91198459 12.0132842,5.78042513 12.1539667,4.65991688 C12.5702062,1.97796177 14.9758015,0.0103395454 17.7768236,0.0607815246 L19.2348598,0.0607815246 L19.241836,0 Z M19.241836,11.6835597 L19.241836,11.6295317 C19.799936,11.6295317 20.3650122,11.6295317 20.9231121,11.6295317 C22.9485486,11.5688691 24.6382184,10.1123672 24.9344555,8.1717383 C25.0253377,7.27412122 25.0509804,6.37143294 25.0111942,5.47033721 C24.9616685,3.39589554 23.3212377,1.68323244 21.1882096,1.4790171 C20.0007508,1.41824879 18.810805,1.41824879 17.6233462,1.4790171 C15.4950876,1.50648277 13.7269909,3.07573062 13.5143353,5.12590857 C13.4491914,5.92795116 13.4328879,6.7330109 13.4655015,7.53690905 C13.4712049,9.432112 14.8331217,11.0703336 16.7443387,11.4809546 C17.561425,11.6059509 18.3867689,11.673662 19.213931,11.6835597 L19.241836,11.6835597 Z" id="Shape"></path>
            <path d="M48.9188008,5.84853336 L55.274164,5.84853336 C55.3717115,5.8419068 55.4696189,5.8419068 55.5671664,5.84853336 C55.8758822,5.88361852 56.1233781,6.11219624 56.1741001,6.40907409 C56.2237546,6.72776256 56.0338758,7.03600807 55.7206439,7.14520589 C55.5639615,7.1868056 55.4016409,7.20502448 55.2392827,7.19923391 L48.9606583,7.19923391 C48.8846098,7.96053722 49.0500926,8.72619442 49.4350432,9.3941223 C50.1574842,10.7760106 51.6304204,11.6383694 53.2301229,11.6160247 C54.8067552,11.6160247 56.3833876,11.6160247 57.96002,11.6160247 C58.278395,11.6028529 58.5655225,11.8002043 58.6576449,12.0955234 C58.7600204,12.3726945 58.6498192,12.6815125 58.3925474,12.8384087 C58.2561986,12.9193755 58.0990402,12.9615067 57.9390912,12.9600122 C56.2857201,12.9600122 54.632349,12.9600122 52.9789779,12.9600122 C50.173468,12.8779488 47.8601191,10.8056323 47.5584322,8.10420328 C47.402371,6.86588211 47.4352789,5.61207425 47.6560996,4.38302327 C48.2068676,1.86227725 50.5058396,0.0592858525 53.1673366,0.0607815246 C54.7300165,0.0607815246 56.2996726,0.0607815246 57.8693287,0.0607815246 C58.1306763,0.0283289921 58.3886137,0.14119084 58.5361298,0.35254379 C58.6836459,0.563896739 58.6955921,0.837676714 58.5669536,1.06029993 C58.4174534,1.31293198 58.125943,1.45403333 57.8274712,1.41823557 L53.2231466,1.41823557 C51.184926,1.41234287 49.4237573,2.7954862 49.009492,4.72745191 C48.9651347,4.92101462 48.9348302,5.11734618 48.9188008,5.31500665 C48.9048483,5.45683021 48.9188008,5.62566777 48.9188008,5.84853336 Z" id="Path"></path>
            <path d="M0.00134027048,5.23396462 L0.00134027048,0.783406317 C-0.0110464091,0.590118156 0.0628766003,0.4009828 0.204331273,0.264044673 C0.345785947,0.127106546 0.541159438,0.0555438455 0.740822703,0.0675350273 C1.09382647,0.0636830915 1.38522463,0.333773108 1.39659014,0.675350273 C1.39659014,0.911722868 1.39659014,1.15484897 1.39659014,1.39122156 L1.39659014,9.19151721 C1.33642929,9.85305915 1.5813755,10.5065176 2.06578049,10.9767585 C2.55018549,11.4469994 3.22451449,11.6859364 3.90803991,11.6295317 L10.0610918,11.6295317 C10.2507628,11.6048369 10.4425847,11.6566582 10.5916395,11.7728609 C10.7406943,11.8890635 10.8338917,12.0594423 10.849408,12.2441004 C10.8693991,12.4458586 10.794729,12.6456413 10.6460082,12.7883048 C10.4972873,12.9309683 10.290242,13.0014267 10.0820206,12.9802322 C8.42167325,12.9802322 6.75434965,12.9802322 5.0940023,12.9802322 C4.34105589,13.0121671 3.58667392,12.9759915 2.84067376,12.8721762 C1.17061626,12.5389293 -0.0203946392,11.1054912 0.00134027048,9.45490382 L0.00134027048,5.23396462 Z" id="Path"></path>
        </g>
    </g>
</svg>