<svg width="96" height="96" xmlns="http://www.w3.org/2000/svg" xmlns:xlink="http://www.w3.org/1999/xlink"><defs><circle id="a" cx="48" cy="48" r="48"/></defs><g fill="none" fill-rule="evenodd"><mask id="b" fill="#fff"><use xlink:href="#a"/></mask><use fill="#D8D8D8" xlink:href="#a"/><path fill="#3FAE49" mask="url(#b)" d="M-.96-.96h97.92v97.92H-.96z"/><g mask="url(#b)" fill="#FFF" fill-rule="nonzero"><path d="M55.375 50.053c1.478 2.327 4.33 3.28 6.336 2.116 2.006-1.164 2.429-4.126.95-6.559-1.478-2.433-4.33-3.28-6.336-2.116-2.006 1.164-2.429 4.232-.95 6.56m-13.2 8.145c1.478 2.327 4.33 3.28 6.336 2.01 2.006-1.27 2.429-4.126.95-6.56-1.478-2.432-4.33-3.279-6.336-2.01-2.006 1.27-2.429 4.127-.95 6.56m-.74-15.763c1.479 2.328 4.33 3.28 6.337 2.116 2.006-1.164 2.428-4.126.95-6.559s-4.33-3.28-6.336-2.116c-2.006 1.164-2.429 4.232-.95 6.56m25.027 32.159c-2.957 1.481-2.957-7.3-5.07-5.713-9.503 6.242-10.348 4.655-14.15 3.386-5.068-1.481-17.423-6.56-21.225-14.493-3.907-9.839-.74-24.86-.211-27.082 1.584-6.4 5.385-7.617 8.342-8.252 11.088-1.586 27.879 4.338 31.258 7.3 4.435 3.702 9.504 25.072 7.497 31.419-.633 2.01-7.286 3.808-8.025 5.29-1.267 1.798 4.752 6.875 1.584 8.145"/></g></g></svg>