<svg width="96" height="96" xmlns="http://www.w3.org/2000/svg" xmlns:xlink="http://www.w3.org/1999/xlink"><defs><circle id="a" cx="48" cy="48" r="48"/></defs><g fill="none" fill-rule="evenodd"><mask id="b" fill="#fff"><use xlink:href="#a"/></mask><use fill="#D8D8D8" xlink:href="#a"/><path fill="#FB9041" mask="url(#b)" d="M-.96-.96h97.92v97.92H-.96z"/><g mask="url(#b)" fill="#FFF" fill-rule="nonzero"><path d="M22.85 43.359h-1.105a.142.142 0 0 0-.142.143v6.574l-4.856-6.659a.141.141 0 0 0-.114-.058h-1.131a.142.142 0 0 0-.142.143v8.974a.142.142 0 0 0 .142.139h1.105a.142.142 0 0 0 .141-.143v-6.72l4.922 6.807c.027.036.07.058.114.058h1.065a.142.142 0 0 0 .142-.143v-8.972a.142.142 0 0 0-.142-.143zm8.873 0H25.91a.142.142 0 0 0-.141.143v8.974a.142.142 0 0 0 .141.139h5.817a.142.142 0 0 0 .142-.143v-.992a.142.142 0 0 0-.142-.143h-4.574V48.53h4.562a.142.142 0 0 0 .142-.143v-.995a.142.142 0 0 0-.142-.143h-4.562V44.64h4.57a.14.14 0 0 0 .102-.04.144.144 0 0 0 .043-.102v-.997a.144.144 0 0 0-.042-.102.141.141 0 0 0-.103-.041zm9.281 0h-6.735a.142.142 0 0 0-.142.143v.997c0 .079.064.143.142.143h2.667v7.835c0 .08.063.143.142.143h1.104a.142.142 0 0 0 .142-.143v-7.836H41a.14.14 0 0 0 .102-.04.144.144 0 0 0 .043-.102v-.997a.142.142 0 0 0-.142-.143zm5.853.092a.14.14 0 0 0-.132-.087h-1.37a.14.14 0 0 0-.131.087l-3.568 8.972a.144.144 0 0 0 .015.133c.026.039.07.062.116.062h1.264a.14.14 0 0 0 .132-.087l.75-1.9h4.231l.747 1.897a.14.14 0 0 0 .131.087h1.264c.047 0 .091-.024.118-.063a.144.144 0 0 0 .014-.133l-3.581-8.968zm.863 5.898h-3.355l1.682-4.3 1.673 4.3zm10.113-5.99h-6.735a.142.142 0 0 0-.141.143v.997c0 .079.063.143.141.143h2.668v7.835c0 .08.063.143.141.143h1.103a.142.142 0 0 0 .141-.143v-7.836h2.677a.14.14 0 0 0 .103-.04.144.144 0 0 0 .044-.102v-.997a.142.142 0 0 0-.142-.143zm11.231 0H67.48a.14.14 0 0 0-.13.087l-2.638 6.436-2.622-6.435a.142.142 0 0 0-.13-.087h-1.588a.142.142 0 0 0-.141.143v8.973a.142.142 0 0 0 .141.139h1.105a.142.142 0 0 0 .142-.143v-6.66l2.736 6.72a.142.142 0 0 0 .13.088h.455a.142.142 0 0 0 .131-.087l2.75-6.72v6.666a.142.142 0 0 0 .141.136h1.105a.142.142 0 0 0 .141-.143v-8.97a.144.144 0 0 0-.042-.102.14.14 0 0 0-.102-.041zm6.946-.159c-2.682 0-4.555 1.97-4.555 4.793 0 2.822 1.874 4.792 4.556 4.792 2.64 0 4.558-2.017 4.558-4.795 0-2.78-1.92-4.79-4.559-4.79zm3.125 4.79c0 2.065-1.285 3.508-3.124 3.508-1.84 0-3.127-1.44-3.127-3.508 0-2.095 1.256-3.509 3.124-3.509 1.842.002 3.127 1.445 3.127 3.509z"/></g></g></svg>