<svg width="96" height="96" xmlns="http://www.w3.org/2000/svg"><g fill="none" fill-rule="evenodd"><circle fill="#91DF21" cx="48" cy="48" r="48"/><g fill="#FFF" fill-rule="nonzero"><path d="m23.092 51.082-9.105-13.598h-4.37v20.36h4.171V44.567l8.967 13.277h4.509v-20.36h-4.172zM33.397 48.872h9.686v-3.426h-9.686v-4.514h10.41v-3.448h-14.3v20.36h14.664v-3.43H33.397zM77.455 37.484h-4.752l-8.089 19.001-6.619-9.116 6.918-9.885h-5.2l-4.558 6.271-4.276-6.27h-5.25l6.89 9.735-7.602 10.624h5.387l5-6.967 4.879 6.967h8.619l1.835-4.624h8.89l1.945 4.624h4.884l-8.901-20.36zM49.934 57.121h-3.592l13.736-18.907h3.426L49.934 57.12zm22.084-7.332 3.006-7.553 3.066 7.553h-6.072z"/></g></g></svg>