<svg width="96" height="96" xmlns="http://www.w3.org/2000/svg" xmlns:xlink="http://www.w3.org/1999/xlink"><defs><circle id="a" cx="48" cy="48" r="48"/><path id="c" d="M0 0h35.795v17.62H0z"/></defs><g fill="none" fill-rule="evenodd"><mask id="b" fill="#fff"><use xlink:href="#a"/></mask><use fill="#D8D8D8" xlink:href="#a"/><path fill="#000" mask="url(#b)" d="M-.96-.96h97.92v97.92H-.96z"/><g mask="url(#b)"><g transform="translate(14.4 40.122)"><mask id="d" fill="#fff"><use xlink:href="#c"/></mask><path d="M0 .44C0 .197.22 0 .465 0h.612l9.77 9.402h.024V.71c0-.245.196-.465.465-.465h2.938c.245 0 .465.22.465.465v16.477c0 .245-.22.441-.465.441h-.392a.72.72 0 0 1-.318-.122l-9.671-9.72h-.025v9.132a.465.465 0 0 1-.465.465H.49a.481.481 0 0 1-.465-.465L0 .441M21.84.71c0-.245.22-.465.465-.465h3.011c.27 0 .465.22.465.465v9.916c0 1.714 1.273 3.085 3.012 3.085 1.763 0 3.06-1.371 3.06-3.085V.71c0-.245.196-.465.465-.465h3.012c.245 0 .465.22.465.465v10.112c0 3.721-3.134 6.806-7.002 6.806-3.844 0-6.954-3.085-6.954-6.806V.71" fill="#FFF" mask="url(#d)"/></g><path d="M57.344 40.955a.58.58 0 0 1 .588-.588h2.864c.319 0 .588.27.588.588v6.439l5.435-6.782c.098-.122.319-.245.465-.245h3.085c.466 0 .71.539.441.906l-5.73 7.174 6.244 8.128c.27.368 0 .906-.465.906H67.48c-.17 0-.391-.098-.44-.171l-5.656-7.688v7.296c0 .318-.27.588-.588.588h-2.864a.58.58 0 0 1-.588-.588V40.955M77.029 40.832c0-.244.22-.465.465-.465h2.938c.245 0 .465.22.465.465v16.209c0 .244-.22.465-.465.465h-2.938a.481.481 0 0 1-.465-.465V40.832M76.452 30.424c0-1.428 1.082-2.554 2.468-2.554a2.532 2.532 0 0 1 2.554 2.554c0 1.386-1.126 2.511-2.554 2.511-1.386 0-2.468-1.125-2.468-2.51" fill="#FFF"/></g></g></svg>