<svg width="96" height="96" xmlns="http://www.w3.org/2000/svg" xmlns:xlink="http://www.w3.org/1999/xlink"><defs><circle id="a" cx="48" cy="48" r="48"/></defs><g fill="none" fill-rule="evenodd"><mask id="b" fill="#fff"><use xlink:href="#a"/></mask><use fill="#D8D8D8" xlink:href="#a"/><path fill="#DF21CB" mask="url(#b)" d="M-.96-.96h97.92v97.92H-.96z"/><g mask="url(#b)" fill="#FFF"><path d="M32.192 50.157c-.13 1.444 1.349 2.236 2.674 2.213.982-.024 2.188-.19 2.342-1.48.308-2.579-8.057-.721-8.116-6.093-.024-2.851 2.84-4.496 5.62-4.413 3.952.119 5.549 2.331 5.549 4.84h-3.23s.296-1.917-2.378-2c-1.006-.024-2.083.378-2.213 1.301-.331 2.426 7.915.627 7.975 6.117.023 2.721-2.497 4.567-5.632 4.52-6.224-.083-5.857-4.626-5.88-5.005h3.289M78.157 46.868v7.773h3.384l-.012-13.89h-3.407l-3.479 5.703-3.265-5.703h-3.585V54.63h3.49v-7.536l3.407 5.501 3.467-5.726M62.16 40.751l5.053 13.878h-3.467l-.816-2.425h-5.466l-.84 2.425h-3.49l5.063-13.878h3.964zm-1.951 3.502-1.775 5.04h3.514l-1.74-5.075v.035M47.194 50.193h-2.106v4.436h-3.242V40.763h7.1c2.555 0 4.542 2.189 4.389 4.874-.107 2.012-.982 3.503-2.828 4.343l2.319 4.65h-3.561l-2.07-4.437zm-2.153-6.496h3.3c.97 0 1.622.864 1.669 1.834.047.852-.615 1.893-1.574 1.893h-3.395v-3.727M21.283 55.28c4.153.024 6.922-3.289 6.827-7.383.19-4.39-2.816-7.406-6.827-7.394-3.904 0-6.839 3.064-6.815 7.394-.047 4.271 2.721 7.525 6.815 7.383zm0-11.855c2.45-.036 3.479 2.2 3.467 4.46-.142 2.071-1.089 4.354-3.479 4.378-2.354 0-3.443-2.212-3.478-4.366.035-2.165 1.041-4.508 3.49-4.472"/></g></g></svg>