<svg width="96" height="96" xmlns="http://www.w3.org/2000/svg" xmlns:xlink="http://www.w3.org/1999/xlink"><defs><circle id="a" cx="48" cy="48" r="48"/></defs><g fill="none" fill-rule="evenodd"><mask id="b" fill="#fff"><use xlink:href="#a"/></mask><use fill="#D8D8D8" xlink:href="#a"/><path fill="#46A1DD" mask="url(#b)" d="M-.96-.96h97.92v97.92H-.96z"/><path d="M32.312 76.8H27.84V39.298c.043-9.622 6.862-17.876 16.292-19.721 9.43-1.846 18.85 3.23 22.508 12.128 3.658 8.897.536 19.144-7.458 24.481a20.138 20.138 0 0 1-25.435-2.52l-1.435-1.388V76.8zm0-37.502c-.002 7.508 5.294 13.97 12.647 15.435 7.353 1.464 14.715-2.478 17.581-9.416 2.867-6.937.44-14.936-5.797-19.103a15.695 15.695 0 0 0-19.84 1.973 15.146 15.146 0 0 0-4.591 11.111z" fill="#FFF" fill-rule="nonzero"/></g></svg>