<svg width="96" height="96" xmlns="http://www.w3.org/2000/svg" xmlns:xlink="http://www.w3.org/1999/xlink"><defs><circle id="a" cx="48" cy="48" r="48"/></defs><g fill="none" fill-rule="evenodd"><mask id="b" fill="#fff"><use xlink:href="#a"/></mask><use fill="#D8D8D8" xlink:href="#a"/><path fill="#786C63" mask="url(#b)" d="M-.96-.96h97.92v97.92H-.96z"/><g fill="#FFF" fill-rule="nonzero"><path d="M38.107 39.616h-1.562c-.457-.68-.927-1.382-1.404-2.087h-1.506v2.077H32.37v-2.074c-.284-.017-.508-.027-.774-.045v-1.116c.248-.02.487-.038.774-.062v-3.356c1.303 0 2.557-.062 3.801.02.961.066 1.649.85 1.815 1.822.159.93-.273 1.79-1.137 2.26-.107.059-.222.11-.398.197.54.767 1.068 1.524 1.656 2.364zm-4.459-3.231c.823-.045 1.583-.038 2.326-.145.501-.073.76-.47.768-1 .006-.549-.236-1.012-.75-1.064-.775-.083-1.563-.02-2.347-.02.003.722.003 1.424.003 2.229zM37.682 59.101l-.871.767c-.633-.594-1.359-.905-2.23-.729a1.549 1.549 0 0 0-.611.256c-.519.387-.432 1.009.186 1.189.578.166 1.186.22 1.78.328.204.038.412.07.609.128 1.427.411 1.814 2.011.74 3.055-.972.943-2.887 1.092-4.228.311-.307-.18-.584-.415-.94-.67l.944-.85c.68.65 1.465.991 2.402.836.235-.038.515-.08.67-.232.204-.193.422-.5.415-.75-.007-.204-.304-.504-.532-.573-.522-.166-1.082-.211-1.625-.318-.304-.06-.615-.114-.905-.218-1.258-.463-1.538-1.936-.55-2.844 1.172-1.082 3.698-.92 4.746.314zM52.166 52.59h-1.327c-.17-.39-.35-.805-.536-1.237h-2.844c-.17.397-.343.801-.522 1.227h-1.32l2.433-5.578h-1.493v-1.079h2.775c.93 2.188 1.873 4.41 2.834 6.667zm-3.273-4.776c-.353.867-.65 1.593-.964 2.36h1.914c-.314-.777-.608-1.51-.95-2.36zM32.263 45.896h1.223c0 .217-.004.418 0 .622.014 1.133-.017 2.267.052 3.397.065 1.033.815 1.673 1.787 1.642.919-.028 1.607-.726 1.641-1.742.038-1.096.014-2.195.017-3.294v-.605h1.22c0 1.5.108 2.993-.027 4.462-.142 1.548-1.597 2.485-3.315 2.343a2.8 2.8 0 0 1-2.595-2.792c-.017-1.327-.003-2.654-.003-4.033zM59.534 52.566v-6.65h1.21v5.492h2.633v-1.541h1.258v2.702c-1.683-.003-3.366-.003-5.101-.003zM61.42 34.083h-1.973v-1.13h5.14v1.113h-1.943v5.54h-1.223v-5.523zM49.377 39.62h-1.203v-6.664h1.203v6.664zM62.648 63.69a1.006 1.006 0 0 1 1.03-1.05c.594 0 1.064.463 1.057 1.04-.007.536-.48 1.02-1.026 1.04-.574.025-1.051-.438-1.061-1.03zM49.1 63.69c-.01-.6.429-1.05 1.023-1.05.584 0 1.061.47 1.054 1.04-.007.536-.48 1.016-1.02 1.04-.57.025-1.046-.442-1.057-1.03zM56.945 62.64c.591.01 1.02.47 1 1.075a1.036 1.036 0 0 1-1.034 1.009c-.557-.003-1.058-.515-1.047-1.068.01-.574.494-1.026 1.081-1.016z"/><path d="M71.913 70.62H24.988v-44.7h46.925v44.7zm-45.135-1.794H70.12V27.71H26.778v41.116z"/></g></g></svg>