<svg width="96" height="96" xmlns="http://www.w3.org/2000/svg" xmlns:xlink="http://www.w3.org/1999/xlink"><defs><circle id="a" cx="48" cy="48" r="48"/></defs><g fill="none" fill-rule="evenodd"><mask id="b" fill="#fff"><use xlink:href="#a"/></mask><use fill="#D8D8D8" xlink:href="#a"/><path fill="#216ADF" mask="url(#b)" d="M-.96-.96h97.92v97.92H-.96z"/><g mask="url(#b)" fill="#FFF" fill-rule="nonzero"><path d="M18.96 47.86s-.662-.412-1.075-.57c0 0-1.272-.59-1.527-.87 0 0-.494-.47-.206-1.007 0 0 .12-.355.643-.355 0 0 .682.038.682.6v.792h2.448l-.005-1.172s.187-1.91-2.88-1.992c0 0-.23-.014-.571 0 0 0-1.858.101-2.525 1.119-.005.005-.01.014-.014.019 0 0-.27.288-.27 1.3v.73s-.028.84.404 1.383c0 0 .245.355.84.749 0 0 1.214.652 1.944 1.027 0 0 .74.422.638 1.09 0 0-.062.686-.772.657 0 0-.653-.029-.653-.7v-.793h-2.597v1.157s-.072 2.198 3.278 2.198c0 0 3.202.068 3.35-2.256v-.936s.111-1.42-1.132-2.17zm40.104 2.718s.034.768-.682.768c0 0-.744.038-.744-.75l-.004-7.026h-2.66v6.97s-.273 2.64 3.447 2.64c0 0 3.235.038 3.235-2.516V43.57h-2.592v7.008zm8.3-3.36 2.572 5.683h2.894V43.56h-2.457l.173 5.683h-.101l-2.491-5.683h-2.976v9.34h2.424l-.15-5.682h.111zm11.313.518v1.368h.667v1.469c0 .72-.614.734-.614.734-.75 0-.716-.681-.716-.681v-5.088c0-.524.658-.552.658-.552.643 0 .643.624.643.624v.772h2.448c.087-1.512-.216-1.876-.216-1.876-.61-1.368-2.909-1.292-2.909-1.292-3.537 0-3.144 2.712-3.144 2.712v4.92c.072 2.544 3.562 2.285 3.62 2.285 1.55-.173 2.016-.662 2.016-.662.436-.322.542-.763.542-.763.125-.26.158-1.08.158-1.08v-2.89h-3.153zm-50.54-4.138H24.03l-1.613 9.293h2.602l.955-7.205h.216l.955 7.205h2.602l-1.608-9.293zm6.658 2.3h.192L36.27 52.9h2.544l1.267-6.999h.168l.058 7.004h2.433l-.264-9.341H38.43l-.821 5.131h-.192l-.782-5.088h-4.085l-.207 9.293h2.42l.033-7.003zm16.157 1.963s-.667-.413-1.075-.571c0 0-1.272-.59-1.527-.874 0 0-.494-.466-.206-1.008 0 0 .12-.355.648-.355 0 0 .682.038.682.6v.792h2.448l-.005-1.167s.187-1.91-2.88-1.992c0 0-2.415-.158-3.106 1.143 0 0-.273.288-.273 1.3v.73s-.03.845.403 1.387c0 0 .245.356.84.75 0 0 1.214.652 1.944 1.031 0 0 .734.423.638 1.09 0 0-.057.686-.773.657 0 0-.652-.028-.652-.7v-.792h-2.602v1.142s-.072 2.198 3.278 2.198c0 0 3.202.068 3.35-2.256v-.936c-.004 0 .111-1.42-1.132-2.17z"/></g></g></svg>