<?xml version="1.0" encoding="UTF-8"?>
<svg width="96px" height="96px" viewBox="0 0 96 96" version="1.1" xmlns="http://www.w3.org/2000/svg" xmlns:xlink="http://www.w3.org/1999/xlink">
    <title>apps / smartalarm</title>
    <defs>
        <circle id="path-1" cx="48" cy="48" r="48"></circle>
    </defs>
    <g id="apps-/-smartalarm" stroke="none" stroke-width="1" fill="none" fill-rule="evenodd">
        <g id="Group">
            <mask id="mask-2" fill="white">
                <use xlink:href="#path-1"></use>
            </mask>
            <use id="Mask" fill="#D8D8D8" xlink:href="#path-1"></use>
            <rect id="Rectangle" fill="#1478A9" mask="url(#mask-2)" x="-0.96" y="-0.96" width="97.92" height="97.92"></rect>
        </g>
        <g id="icon-4" transform="translate(25.000000, 19.000000)" stroke="#FFFFFF">
            <path d="M0.39200153,7.01012981 C0.391870079,8.07872994 0.209679822,9.15387684 0.135015994,10.2193319 C-0.0450053313,12.7859235 -0.0450053313,15.4190096 0.135015994,17.9856011 C0.910704815,29.0481702 4.98192094,39.8946316 12.5409763,48.2804693 C14.8074441,50.794815 17.2688529,53.043182 19.9781114,55.097264 C20.6528463,55.6088108 21.3650446,56.0837085 22.0813178,56.5380674 C22.3231208,56.6914672 22.7028153,57 23.0014706,57 C23.3105105,57 23.6742338,56.6958317 23.9216235,56.5381315 C24.6140384,56.0967379 25.2935713,55.6348053 25.9591047,55.1556073 C28.7676082,53.1331681 31.3182718,50.7308235 33.5917723,48.1521012 C40.6237772,40.1762712 44.7099787,30.1554091 45.7312169,19.7185703 C46.0039765,16.9313782 46.0624062,14.107858 45.9370025,11.3104607 C45.8728547,9.88082531 45.614949,8.44034283 45.6109398,7.01012981 C40.2291631,7.01012981 34.6022315,4.88172276 29.7054411,2.87511136 C28.0939907,2.21475384 26.5083045,1.50334432 24.9075015,0.821221991 C24.3764418,0.594941148 23.5832044,0 23.0014706,0 C22.4186196,0 21.6272881,0.594607391 21.0954398,0.821221991 C19.4947026,1.5032994 17.9087535,2.21484369 16.2975002,2.87511136 C13.1683233,4.15740584 9.92912253,5.26734049 6.63589562,6.07130981 C4.6031466,6.56758083 2.49514223,7.01012981 0.39200153,7.01012981 Z" id="Path" stroke-width="4.16"></path>
            <path d="M4.66413959,10.9253564 C4.24152655,13.1482424 4.27820121,15.5480195 4.33452771,17.793049 C4.5778424,27.48991 7.67717997,36.7356214 14.1124001,44.2368746 C15.9872772,46.4223413 18.1514766,48.4397099 20.503913,50.1319222 C21.0592252,50.5313395 21.6301801,50.916187 22.2127682,51.2766446 C22.4375484,51.4156673 22.7221385,51.653405 23.0014706,51.653405 C23.7362784,51.653405 24.8594564,50.575434 25.4333031,50.1690206 C27.8180763,48.4800175 30.0005473,46.4399919 31.8905412,44.2368746 C38.244525,36.830357 41.2417913,27.8562725 41.669991,18.3065213 C41.7779775,15.8985286 41.7915169,13.3065202 41.3388017,10.9253564 C39.9582439,11.1756742 38.3498167,10.7300444 37.0009384,10.4390981 C33.647573,9.71580813 30.4358453,8.48623442 27.2736087,7.20191173 C26.3252598,6.81680747 25.367315,6.41328239 24.4474251,5.96726748 C24.0421635,5.77080012 23.4633874,5.37221722 23.0014706,5.36846556 C22.49841,5.36438677 21.9358022,5.79794998 21.489791,5.9921067 C20.2874142,6.51539921 19.094699,7.06410859 17.874905,7.54908321 C13.8161109,9.16260587 9.12089974,11.1121962 4.66413959,10.9253564 Z" id="Path" stroke-width="1.04"></path>
            <path d="M9.92215566,18.2423373 L9.92215566,18.3065213 C10.3569936,18.731163 10.8020847,19.1479741 11.2245662,19.5844898 C11.3810579,19.7461694 11.5792194,20.0774233 11.8291724,20.0964217 C12.1343345,20.1196564 12.5627313,19.7126653 12.8140645,19.5645928 C13.6027669,19.0999645 14.4063232,18.6947064 15.2458969,18.3261617 C17.4731925,17.3483819 19.9151467,16.8725215 22.3442186,16.7686075 C25.3128288,16.6417156 28.3491359,17.3813725 31.0199452,18.6133852 C32.059192,19.0927759 33.0521684,20.0210697 34.1090296,20.3882024 C34.3838267,20.4836441 34.5932929,20.2071392 34.7662816,20.0394263 C35.2201798,19.5994447 35.8742113,19.1334044 36.1465108,18.5632575 C30.0017961,14.2527856 22.2969622,12.864228 15.1144465,15.4792143 C13.3060176,16.1376142 11.4010384,17.0114157 9.92215566,18.2423373 M13.4713165,21.7724597 C13.8685596,22.3231587 14.4381999,22.7631404 14.9147076,23.2486926 C15.0685703,23.4054943 15.2543755,23.7158241 15.5097836,23.6968898 C16.1162958,23.6520252 16.9688174,23.0320715 17.546279,22.8001104 C18.8335728,22.2829153 20.2332566,21.9128943 21.6212414,21.7833709 C23.6910595,21.5902412 25.8346869,21.8986455 27.7994103,22.5647475 C28.4932713,22.799982 29.1789166,23.0739837 29.8368915,23.3929784 C30.0811264,23.5113979 30.4735716,23.8047832 30.7570444,23.7625501 C31.0179077,23.7237187 31.2395331,23.4192938 31.4142964,23.2486926 L32.7288004,21.9650118 C32.4023433,21.5928727 31.8574157,21.3953142 31.4142964,21.1789498 C30.4763977,20.7209967 29.5179929,20.3208092 28.5223875,19.9966797 C23.577092,18.3869439 17.8670179,18.9414941 13.4713165,21.7724597 M16.9547522,25.238398 C17.3346438,25.765028 18.2396798,26.9095579 18.860783,27.155447 C19.0942389,27.247872 19.3689702,27.0775275 19.5837602,26.9986453 C20.0697323,26.8202779 20.5842292,26.6890215 21.0954398,26.6023089 C22.3981133,26.3813232 23.7513952,26.3936465 25.0389519,26.7078916 C25.5305107,26.8278516 26.6133991,27.4596151 27.0764331,27.3297066 C27.767665,27.1356783 28.4834782,26.0084139 29.0481891,25.5593182 C28.45147,24.8790957 27.2023626,24.5776232 26.3534559,24.3179346 C23.3412699,23.3964443 19.7001595,23.673591 16.9547522,25.238398 M20.7668138,42.1829853 C22.3593354,42.3924178 23.6416998,42.3840739 25.2361275,42.1829853 C25.235273,40.9227958 24.9959676,39.6527219 24.9016519,38.3961267 C24.8729957,38.0137824 24.7037533,37.4921587 24.7979376,37.118415 C24.9045438,36.6952496 25.7205222,36.3151517 26.0093845,35.9545657 C26.8291092,34.9312796 27.0161631,33.4962527 26.520858,32.2986427 C25.148713,28.9808411 19.7839592,29.3830825 19.2741288,33.0688512 C19.1341998,34.0801991 19.3374221,35.149056 20.0088708,35.9571331 C20.2974044,36.304433 21.0914963,36.7006411 21.2059239,37.118415 C21.3187741,37.5304124 21.1329032,38.1029982 21.1012894,38.5244948 C21.0101285,39.7382793 20.7771327,40.9663125 20.7668138,42.1829853 Z" id="Shape" stroke-width="0.65" fill="#FFFFFF" fill-rule="nonzero"></path>
        </g>
    </g>
</svg>