<svg width="96" height="96" xmlns="http://www.w3.org/2000/svg"><g fill="none" fill-rule="evenodd"><circle fill="#FAAB33" cx="48" cy="48" r="48"/><g fill="#FFF" fill-rule="nonzero"><path d="M68.693 38.484c-2.78.297-4.602 1.783-5.036 4.122-.206 1.127-.366 1.325-1.143 1.44-.67.091-.906.228-1.15.655-.168.282-.214.45-.214.823 0 .83.488 1.402 1.402 1.638.442.122.717.32.869.64.107.22.122.625.122 2.956 0 1.707.03 2.804.084 2.994.205.747.739 1.098 1.66 1.105.999 0 1.54-.427 1.684-1.34.046-.245.077-1.6.077-3.01 0-2.537 0-2.56.175-2.82.29-.434.571-.525 1.63-.525 1.235 0 1.638-.092 1.997-.45.617-.617.617-1.691 0-2.255-.397-.358-.694-.419-2.035-.419-1.531 0-1.615-.038-1.615-.792 0-.595.122-.976.442-1.341.427-.503.61-.549 2.377-.602 1.661-.053 1.821-.092 2.187-.48.746-.793.373-2.05-.701-2.34-.35-.09-1.913-.09-2.812 0zM30.362 40.808c-.975.13-1.455.22-1.981.388-2.088.663-3.94 2.194-4.975 4.137a8.53 8.53 0 0 0 .678 9.075c.457.624 1.486 1.615 2.072 1.996a9.512 9.512 0 0 0 3.33 1.356c.64.122 2.255.122 2.895 0 1.714-.335 3.177-1.082 4.404-2.248 1.394-1.333 2.24-2.91 2.56-4.762.777-4.525-2.294-8.944-6.804-9.79-.632-.122-1.813-.198-2.18-.152zm1.882 5.722c2.377 1.112 2.377 4.48 0 5.607-.473.229-.572.244-1.31.244-.74 0-.839-.015-1.311-.244a3.097 3.097 0 0 1-.907-4.967c.648-.663 1.334-.93 2.332-.9.586.016.762.054 1.196.26zM13.905 43.665c-1.608.236-2.85.983-3.368 2.042-.19.373-.213.518-.213 1.15 0 .625.03.785.198 1.15.236.496.663.953 1.234 1.319.221.137 1.273.61 2.34 1.044 1.12.449 2.034.876 2.163.99.19.168.229.267.26.648.022.38 0 .487-.153.716-.572.846-1.623.967-3.947.48-1.615-.343-2.187-.374-2.469-.107-.312.29-.388.64-.22.975.198.404.441.549 1.249.755 1.638.419 3.688.685 4.602.602 1.798-.16 2.94-.595 3.749-1.425 1.02-1.036 1.097-2.667.19-3.855-.465-.61-1.242-1.014-3.215-1.654-1.189-.388-1.943-.77-2.393-1.196-.365-.35-.373-.366-.335-.739.046-.488.313-.846.8-1.082.335-.168.457-.183 1.585-.183 1.051 0 1.303.023 1.813.175.777.237 1.15.237 1.387.016a.723.723 0 0 0 .198-.777c-.183-.496-.853-.816-2.118-1.021-.732-.115-2.59-.13-3.337-.023zM43.086 44a1.319 1.319 0 0 0-.793.853c-.053.19-.083 1.798-.083 4.564v4.267l.19.38c.305.61.907.892 1.531.725.328-.084.755-.458.892-.77.053-.122.107-1.211.137-2.971.038-2.492.061-2.842.206-3.368.426-1.577 1.242-2.339 2.514-2.362.64-.015.952.145 1.189.587.152.297.16.434.198 4.114.038 4.13.03 4.023.472 4.434.221.214.678.404.952.404.343 0 .854-.297 1.075-.632l.205-.305.046-2.712c.046-2.416.069-2.781.213-3.338.427-1.676 1.311-2.56 2.576-2.567.61 0 .86.114 1.104.54.237.397.29 1.22.29 4.618 0 3.672 0 3.657.472 4.053.656.549 1.593.374 2.02-.38l.175-.305v-4.115c0-3.977-.008-4.13-.16-4.457-.313-.693-.937-1.135-1.837-1.303-.708-.13-1.653 0-2.811.389-.86.29-.998.32-1.516.29a2.76 2.76 0 0 1-1.029-.252c-1.34-.61-2.499-.632-3.931-.061-.625.244-.8.282-1.372.29-.61 0-.693-.023-1.333-.32-.8-.381-1.173-.45-1.592-.29zM73.524 44.015a1.063 1.063 0 0 0-.381.35c-.114.206-.076.275 2.019 4.458l2.133 4.244v.571c0 .785-.183 1.272-.67 1.798-.724.8-1.425 1.09-2.758 1.15-.457.016-.937.07-1.052.115-.327.122-.51.411-.51.8 0 .731.61.96 2.133.8 2.324-.244 3.848-1.341 4.892-3.52.708-1.478 4.556-10.164 4.556-10.286 0-.419-.564-.678-1.189-.54-.716.16-.876.38-1.943 2.704-1.135 2.469-1.34 2.75-1.973 2.75-.373 0-.42-.022-.716-.35-.168-.19-.823-1.25-1.455-2.354-.625-1.105-1.22-2.103-1.319-2.225-.411-.488-1.28-.716-1.767-.465zM84.328 51.657c-.442.13-.74.389-.945.808-.175.358-.198.48-.16.884.183 2.003 3.124 1.828 3.124-.183 0-1.036-1.029-1.806-2.02-1.509zm1.15.45c.686.487.678 1.653-.015 2.171-.168.122-.328.16-.686.16-.792 0-1.219-.442-1.219-1.265 0-.548.229-.944.663-1.15.396-.183.93-.145 1.257.084z"/><path d="M84.267 53.181c0 .709.007.762.152.762.13 0 .152-.053.152-.305 0-.388.1-.388.32 0 .1.168.237.305.313.305.175 0 .167-.069-.069-.412l-.198-.29.16-.144c.198-.19.206-.495.015-.602a1.53 1.53 0 0 0-.495-.076h-.35v.762z"/></g></g></svg>