<svg width="96" height="96" xmlns="http://www.w3.org/2000/svg" xmlns:xlink="http://www.w3.org/1999/xlink"><defs><circle id="a" cx="48" cy="48" r="48"/></defs><g fill="none" fill-rule="evenodd"><mask id="b" fill="#fff"><use xlink:href="#a"/></mask><use fill="#D8D8D8" xlink:href="#a"/><path fill="#D79F55" mask="url(#b)" d="M-.96-.96h97.92v97.92H-.96z"/><g mask="url(#b)" fill="#FFF" fill-rule="nonzero"><path d="M44.415 45.89v7.853h-1.824V41.456l8.162 8.2v-7.894h1.825v12.331zM63.323 41.28c-3.571 0-6.475 2.912-6.475 6.494 0 3.58 2.904 6.492 6.475 6.492 3.57 0 6.475-2.911 6.475-6.492 0-3.582-2.905-6.494-6.475-6.494zm0 11.142c-2.531 0-4.592-2.085-4.592-4.648 0-2.563 2.06-4.648 4.592-4.648 2.532 0 4.59 2.085 4.59 4.648 0 2.563-2.058 4.648-4.59 4.648zM31.84 41.28c-3.57 0-6.475 2.912-6.475 6.494 0 3.58 2.904 6.492 6.475 6.492 3.572 0 6.475-2.911 6.475-6.492 0-3.582-2.903-6.494-6.475-6.494zm0 11.142c-2.532 0-4.59-2.085-4.59-4.648 0-2.563 2.058-4.648 4.59-4.648s4.592 2.085 4.592 4.648c0 2.563-2.06 4.648-4.592 4.648zM17.423 48.686l-.008-.003c-1.219-.388-2.035-.77-2.65-1.242-.878-.671-1.325-1.528-1.325-2.546 0-.953.442-1.882 1.212-2.553.787-.685 1.871-1.062 3.052-1.062 2.472 0 3.885 1.652 3.944 1.723l-1.5 1.016c-.347-.26-1.26-.845-2.444-.845-1.487 0-2.376.875-2.376 1.721 0 .59.323 1.24 2.658 1.985l.01.001c1.215.387 2.034.771 2.648 1.241.88.673 1.326 1.53 1.326 2.548 0 .953-.442 1.883-1.214 2.553-.785.684-1.869 1.06-3.051 1.06-2.471 0-3.884-1.65-3.943-1.721l1.501-1.016c.347.26 1.26.845 2.442.845 1.487 0 2.377-.874 2.377-1.721 0-.59-.322-1.24-2.66-1.984zM77.177 48.686l-.008-.003c-1.218-.388-2.035-.77-2.649-1.242-.878-.671-1.327-1.528-1.327-2.546 0-.953.444-1.882 1.214-2.554.785-.684 1.868-1.061 3.052-1.061 2.472 0 3.885 1.652 3.945 1.723l-1.502 1.016c-.346-.26-1.259-.845-2.443-.845-1.488 0-2.377.875-2.377 1.721 0 .59.323 1.24 2.66 1.985l.009.001c1.217.387 2.033.771 2.649 1.241.877.673 1.324 1.53 1.324 2.548 0 .953-.442 1.883-1.211 2.553-.787.684-1.87 1.06-3.054 1.06-2.471 0-3.883-1.65-3.942-1.721l1.5-1.016c.348.26 1.258.845 2.442.845 1.49 0 2.376-.874 2.376-1.721 0-.59-.322-1.24-2.658-1.984z"/></g></g></svg>