<svg width="96" height="96" xmlns="http://www.w3.org/2000/svg" xmlns:xlink="http://www.w3.org/1999/xlink"><defs><circle id="a" cx="48" cy="48" r="48"/></defs><g fill="none" fill-rule="evenodd"><mask id="b" fill="#fff"><use xlink:href="#a"/></mask><use fill="#D8D8D8" xlink:href="#a"/><path fill="#01D768" mask="url(#b)" d="M-.96-.96h97.92v97.92H-.96z"/><g mask="url(#b)"><path d="M66.172 44.515c-9.902-5.88-26.236-6.422-35.69-3.553a2.873 2.873 0 1 1-1.668-5.498c10.851-3.294 28.89-2.658 40.29 4.109a2.873 2.873 0 0 1-2.933 4.942h.001zm-.324 8.71a2.397 2.397 0 0 1-3.295.788c-8.255-5.074-20.844-6.545-30.611-3.58a2.399 2.399 0 0 1-2.99-1.595 2.398 2.398 0 0 1 1.598-2.988c11.157-3.385 25.028-1.745 34.509 4.082a2.395 2.395 0 0 1 .788 3.292zm-3.759 8.364a1.913 1.913 0 0 1-2.632.638c-7.214-4.41-16.294-5.405-26.987-2.963a1.914 1.914 0 1 1-.853-3.732c11.702-2.675 21.74-1.524 29.837 3.424a1.915 1.915 0 0 1 .635 2.633zM48 17.281c-16.966 0-30.72 13.753-30.72 30.718C17.28 64.967 31.034 78.72 48 78.72c16.967 0 30.72-13.753 30.72-30.72 0-16.966-13.753-30.72-30.72-30.72" fill="#FFF" fill-rule="nonzero"/></g></g></svg>