<svg width="96" height="96" xmlns="http://www.w3.org/2000/svg" xmlns:xlink="http://www.w3.org/1999/xlink"><defs><circle id="a" cx="48" cy="48" r="48"/></defs><g fill="none" fill-rule="evenodd"><mask id="b" fill="#fff"><use xlink:href="#a"/></mask><use fill="#D8D8D8" xlink:href="#a"/><path fill="#FFB121" mask="url(#b)" d="M-.96-.96h97.92v97.92H-.96z"/><g fill="#FFF" fill-rule="nonzero" mask="url(#b)"><path d="M54.48 40.878c0 2.013-.035 3.56-.078 3.585-.043.026-.285-.086-.544-.259-1.452-.993-3.214-1.4-5.296-1.227-3.854.32-6.411 2.86-7.18 7.111-.225 1.287-.208 3.594.043 4.77.648 3.075 2.151 5.149 4.519 6.237.916.424 1.546.588 2.592.683 4.389.406 7.646-2.056 8.778-6.618l.225-.925.025-8.45.035-8.441H54.48v3.534zm-3.948 4.804c.786.207 1.175.449 1.918 1.2 1.425 1.426 2.013 3.292 1.918 5.997-.078 2.212-.7 3.827-1.944 5.08-1.21 1.227-3.05 1.607-4.735.976-1.84-.69-3.145-3.032-3.292-5.91-.181-3.637 1.426-6.678 3.87-7.335.614-.164 1.651-.173 2.265-.008zM78.456 37.43c-1.763.39-3.007 1.633-3.378 3.353-.156.734-.147 1.218.008 1.9.519 2.204 2.627 3.647 4.847 3.327a4.343 4.343 0 0 0 3.681-4.908c-.311-2.116-1.953-3.62-4.078-3.715-.406-.017-.89 0-1.08.043zm1.78 1.003c.959.285 1.754.993 2.212 1.987.207.44.242.622.242 1.287 0 .691-.026.838-.277 1.357a4.049 4.049 0 0 1-.7 1.01c-1.382 1.383-3.421 1.374-4.812-.025-.622-.622-.925-1.28-.977-2.126-.13-2.315 2.117-4.138 4.312-3.49zM17.138 37.932l-1.452.483-.017 2.212-.026 2.203-1.097.026-1.106.026v2.661l1.106.026 1.097.026.043 6.221c.044 5.702.052 6.255.2 6.61.535 1.339 1.416 2.177 2.764 2.635.622.207.743.216 2.644.216h1.996v-2.592h-1.53c-1.304 0-1.59-.026-1.883-.164-.44-.2-.873-.692-.994-1.124-.06-.224-.078-2.272-.069-6.065l.026-5.737 4.692-.026 4.682-.017v-2.678l-4.682-.018-4.692-.026-.026-2.704c-.017-2.074-.043-2.696-.13-2.687-.051 0-.751.225-1.546.493zM29.51 44.213v1.339h6.022l.398.268c.648.432.752.743.752 2.341v1.348l-2.566.043c-2.955.044-3.266.095-4.683.804-.657.328-.95.536-1.521 1.106-.769.769-1.132 1.33-1.443 2.255-.173.518-.199.777-.199 1.857 0 1.003.035 1.348.165 1.728.7 2.048 2.125 3.344 4.415 4.018.639.19.959.233 1.814.242 1.538.009 2.61-.346 3.542-1.166.216-.19.424-.32.476-.286.043.026.086.303.086.614v.553h3.11V53.95c0-8.061.018-7.82-.535-8.847-.562-1.054-1.892-1.962-3.137-2.143-.328-.043-1.978-.086-3.646-.086h-3.05v1.339zm7.154 10.04c.018 1.96.009 2.116-.164 2.583-.363.968-1.4 1.788-2.566 2.03-.803.164-2.048.07-2.652-.216-.692-.32-1.037-.587-1.383-1.114-.622-.942-.726-2.299-.259-3.335.44-.977 1.547-1.797 2.661-1.988.25-.043 1.322-.069 2.393-.06l1.944.009.026 2.09zM66.403 42.969c-3.629.25-6.238 2.566-7.128 6.341-.32 1.357-.415 3.62-.216 4.968.501 3.31 2.108 5.729 4.545 6.835 2.203 1.002 5.21.95 7.335-.121 1.374-.692 2.42-1.746 3.223-3.258 1.633-3.058 1.581-7.905-.104-10.93-1.529-2.72-4.207-4.06-7.655-3.835zm1.771 2.713c.692.181 1.15.423 1.728.898 2.376 1.97 3.059 6.48 1.47 9.703-.614 1.235-1.375 2.03-2.455 2.557-.648.32-.665.32-1.736.32-1.27 0-1.728-.147-2.6-.795-3.06-2.298-3.37-8.458-.58-11.396.32-.328.787-.717 1.037-.855.976-.536 2.134-.692 3.136-.432z"/></g></g></svg>