<svg width="96" height="96" xmlns="http://www.w3.org/2000/svg"><g fill="none" fill-rule="evenodd"><circle fill="#26B7CC" cx="48" cy="48" r="48"/><g fill="#FFF" fill-rule="nonzero"><path d="M53.484 25.357c.085-.098.16-.124.215-.132a.395.395 0 0 1 .24.049.397.397 0 0 1 .172.174c.024.05.043.127.008.252L50.21 39.537a1.085 1.085 0 1 0 2.09.593l3.908-13.837c.74-2.62-2.586-4.418-4.365-2.36L30.475 48.644c-1.63 1.885-.293 4.816 2.196 4.816h19.342a1.087 1.087 0 0 0 0-2.176H32.671a.735.735 0 0 1-.555-1.215l21.368-24.712z"/><path d="M43.077 71.41c-.085.099-.16.125-.215.133a.395.395 0 0 1-.24-.049.397.397 0 0 1-.172-.174c-.024-.05-.043-.127-.008-.252l3.91-13.837a1.085 1.085 0 1 0-2.09-.593l-3.91 13.837c-.74 2.62 2.588 4.418 4.366 2.36l21.368-24.711c1.63-1.885.294-4.816-2.195-4.816H43.789a1.087 1.087 0 0 0 0 2.176h20.102c.628 0 .965.74.554 1.215L43.077 71.411z"/></g></g></svg>