<svg width="96" height="96" xmlns="http://www.w3.org/2000/svg" xmlns:xlink="http://www.w3.org/1999/xlink"><defs><circle id="a" cx="48" cy="48" r="48"/></defs><g fill="none" fill-rule="evenodd"><mask id="b" fill="#fff"><use xlink:href="#a"/></mask><use fill="#D8D8D8" xlink:href="#a"/><path fill="#C83D4E" mask="url(#b)" d="M-.96-.96h97.92v97.92H-.96z"/><g fill="#FFF" fill-rule="nonzero"><path d="M24.954 44.375h-.503c-.965 0-1.93-.007-2.894.001-.562.005-.983-.231-1.23-.722-.25-.498-.223-.995.105-1.47.235-.341.561-.503.957-.552.09-.01.183-.005.275-.005 3.186 0 6.371-.001 9.556.003.181 0 .372.007.54.064.562.19.898.694.9 1.301 0 .61-.331 1.115-.89 1.309a1.707 1.707 0 0 1-.54.067c-.949.007-1.898.004-2.848.004h-.49c-.007.2-.018.363-.018.526-.001 2.923-.003 5.845.002 8.768 0 .435-.119.814-.428 1.12-.45.445-.988.534-1.563.317-.564-.213-.871-.646-.928-1.248-.012-.121-.003-.244-.003-.367v-9.116zM75.454 44.26c0-.459.007-.919-.005-1.378a1.436 1.436 0 0 0-.09-.488c-.237-.59-.702-.851-1.37-.876-.78-.029-1.427.685-1.386 1.345.01.153 0 .306 0 .46 0 2.097 0 4.195-.004 6.293 0 .121.063.273-.08.366-.044-.02-.08-.025-.097-.045-.878-1.088-1.707-2.214-2.608-3.287-1.158-1.378-2.2-2.855-3.295-4.286a2.855 2.855 0 0 0-.37-.407c-.514-.456-1.121-.531-1.76-.367-.594.153-.97.751-.97 1.499-.001 3.522-.004 7.044.007 10.566 0 .25.074.512.169.748.39.976 1.82 1.112 2.45.217.218-.312.288-.66.287-1.037-.004-2.129-.002-4.257-.002-6.386v-.526l5.526 6.967.445.574c.393.51.845.902 1.529.978.673.075 1.469-.439 1.599-1.1.035-.178.024-.367.024-.55v-9.28M54.864 52.666a4.33 4.33 0 1 1 0-8.66 4.33 4.33 0 0 1 0 8.66m0-11.386a7.056 7.056 0 1 0 0 14.112 7.056 7.056 0 0 0 0-14.112"/><path d="M39.427 52.666a4.33 4.33 0 1 1 0-8.66 4.33 4.33 0 0 1 0 8.66m0-11.386a7.056 7.056 0 1 0 0 14.112 7.056 7.056 0 0 0 0-14.112"/></g></g></svg>