<svg width="96" height="96" xmlns="http://www.w3.org/2000/svg"><g fill="none" fill-rule="evenodd"><circle fill="#EE2D24" cx="48" cy="48" r="48"/><g fill="#FFF" fill-rule="nonzero"><path d="M70.258 58.26c-1.448-.126-2.774-.557-3.941-1.282-.294-.182-.444-.31-.52-.445a.88.88 0 0 1-.081-.64c.015-.053.219-.455.452-.892.365-.684.439-.811.526-.901a.811.811 0 0 1 .642-.244c.153.012.244.045.46.167 1.104.627 2.353.97 3.244.89.578-.053 1.028-.27 1.159-.558.094-.208-.072-.497-.387-.673-.253-.141-.603-.255-1.41-.459-.869-.219-1.36-.371-1.802-.558-1.581-.672-2.321-1.782-2.321-3.483 0-1 .258-1.823.783-2.496.684-.878 1.895-1.475 3.555-1.75a5.746 5.746 0 0 1 1.066-.095 9.798 9.798 0 0 1 3.863.706c.37.146.45.186.548.276a.844.844 0 0 1 .227.867c-.049.14-.824 1.573-.901 1.665-.152.18-.388.272-.674.259-.165-.008-.195-.016-.454-.118a5.54 5.54 0 0 0-1.273-.347 4.51 4.51 0 0 0-.979.008c-.42.078-.722.246-.833.464-.116.227-.055.563.132.723.228.195.58.299 1.698.502.689.125.917.174 1.214.262 1.403.414 2.263 1.23 2.566 2.432.102.404.119.568.118 1.132-.002.548-.027.798-.125 1.21-.285 1.209-1.028 2.117-2.205 2.696-.68.335-1.5.553-2.473.657-.317.034-1.576.05-1.874.025zM82.94 58.223c-2.155-.16-3.446-1.05-3.753-2.588-.072-.36-.074-.44-.074-3.459v-2.931h-.542c-.3 0-.577-.01-.62-.02a.846.846 0 0 1-.6-.559c-.037-.108-.038-.146-.044-1.299-.007-1.318 0-1.45.084-1.63a.86.86 0 0 1 .638-.471c.069-.01.353-.018.632-.018l.506-.001v-1.433c0-1.514.002-1.54.085-1.719a1.03 1.03 0 0 1 .34-.365c.201-.11.114-.105 2.095-.1l1.81.005.134.065c.231.111.38.277.45.501.032.104.034.187.034 1.586v1.476l.784.006c.772.005.786.006.887.046a.893.893 0 0 1 .484.469l.04.1v2.67l-.067.14a.821.821 0 0 1-.543.451c-.087.023-.244.028-.9.028h-.794l.006 2.352c.006 2.615-.004 2.408.128 2.676.119.24.356.45.642.563.172.07.307.1.588.135.348.042.518.115.686.295a.72.72 0 0 1 .182.327c.025.088.028.214.024 1.03l-.005.93-.058.121c-.102.215-.301.367-.58.441-.257.07-.838.145-1.388.181-.312.021-1.005.02-1.29-.001zM41.06 58.186a.856.856 0 0 1-.615-.42c-.11-.204-.103.221-.103-6.023 0-3.721.006-5.736.017-5.799a.865.865 0 0 1 .63-.66c.05-.011.712-.018 1.826-.018 1.44 0 1.764.004 1.842.025.373.1.63.436.632.825v.108l.041-.099c.058-.14.132-.241.285-.386.383-.364 1.085-.62 1.884-.687.35-.03.986-.026 1.111.007a.836.836 0 0 1 .621.673c.027.164.026 2.779 0 2.907a.841.841 0 0 1-.463.585l-.136.065-.654.011c-.575.01-.677.016-.838.05a2.31 2.31 0 0 0-1.786 1.705l-.056.206-.01 3.137c-.008 3.13-.008 3.137-.046 3.236a.835.835 0 0 1-.433.479c-.13.064-.146.068-.335.072-.527.011-3.313.012-3.414 0zM54.453 58.18a4.325 4.325 0 0 1-1.6-.533 4.028 4.028 0 0 1-.959-.75 3.95 3.95 0 0 1-.781-1.119 3.96 3.96 0 0 1-.301-.836c-.127-.512-.117-.145-.124-4.765-.005-3.128 0-4.192.015-4.266a.87.87 0 0 1 .405-.542c.198-.107.124-.104 2.21-.104 1.558 0 1.927.005 2.002.025.323.086.569.36.616.685.01.079.018 1.294.018 3.32 0 3.51-.006 3.31.108 3.603.142.366.447.702.797.878.16.08.384.145.57.166.75.085 1.49-.381 1.737-1.094.098-.283.092-.058.103-3.648l.01-3.316.067-.14c.11-.23.301-.388.543-.451.092-.024.355-.028 1.998-.028 1.542 0 1.909.005 1.983.025a.839.839 0 0 1 .609.636c.038.18.037 11.424 0 11.605a.866.866 0 0 1-.471.592l-.122.057H59.869l-.135-.066a.853.853 0 0 1-.463-.624 5.32 5.32 0 0 1-.02-.51v-.395l-.033.093c-.129.356-.413.658-.87.922-.475.275-1.085.465-1.811.564-.304.041-1.79.053-2.084.016zM10.165 58.156a.832.832 0 0 1-.44-.347c-.135-.208-.127-.018-.121-2.955l.005-2.627.069-.139a.836.836 0 0 1 .581-.457c.067-.014.844-.02 2.618-.02 2.77 0 2.66-.004 2.872.11.192.101.361.323.41.537.012.051.019.98.019 2.643 0 2.782.005 2.656-.096 2.854a.825.825 0 0 1-.473.397c-.11.037-.125.037-2.733.037-2.481 0-2.627-.003-2.711-.033zM23.379 58.17a.88.88 0 0 1-.607-.59c-.02-.066-.024-.557-.024-2.68v-2.6l-.041-.12a.877.877 0 0 0-.323-.421c-.225-.15.03-.138-2.943-.148l-2.644-.01-.096-.04a.84.84 0 0 1-.494-.54c-.026-.087-.029-.373-.029-2.636 0-1.588-.007-2.583-.018-2.66a.822.822 0 0 0-.692-.692c-.077-.011-1.07-.018-2.653-.018-2.433 0-2.535-.002-2.64-.035a.83.83 0 0 1-.55-.584c-.02-.073-.025-.575-.025-2.68 0-2.834-.005-2.691.104-2.893a.878.878 0 0 1 .378-.349l.136-.065H22.14l.14.069c.159.078.3.208.373.345.109.202.104.061.104 2.87 0 1.81.006 2.595.02 2.662a.835.835 0 0 0 .61.622c.05.012.973.019 2.625.019 1.63 0 2.583.007 2.644.018.227.043.467.22.577.426.108.202.102-.196.102 6.155 0 3.8-.006 5.852-.017 5.915a.897.897 0 0 1-.413.576c-.184.108-.052.103-2.876.102a112.639 112.639 0 0 1-2.65-.018z"/><path d="M33.001 58.151a.88.88 0 0 1-.513-.494l-.043-.104-.004-7.237-.005-7.238h-2.361c-1.421 0-2.415-.008-2.496-.018a.84.84 0 0 1-.688-.553c-.038-.1-.038-.114-.043-1.711-.004-1.057.001-1.646.013-1.712.056-.3.285-.56.576-.65.106-.033.296-.034 7.473-.034 7.163 0 7.367 0 7.473.034.15.047.246.107.357.224a.9.9 0 0 1 .218.421c.026.137.025 3.168-.001 3.31a.832.832 0 0 1-.716.67c-.08.011-1.074.019-2.495.019h-2.362l-.005 7.229-.004 7.228-.039.1a.832.832 0 0 1-.432.478l-.137.067-1.83.004c-1.807.004-1.83.004-1.936-.033z"/></g></g></svg>