<svg width="96" height="96" xmlns="http://www.w3.org/2000/svg" xmlns:xlink="http://www.w3.org/1999/xlink"><defs><circle id="a" cx="48" cy="48" r="48"/></defs><g fill="none" fill-rule="evenodd"><mask id="b" fill="#fff"><use xlink:href="#a"/></mask><use fill="#D8D8D8" xlink:href="#a"/><path fill="#1DA1F2" mask="url(#b)" d="M-.96-.96h97.92v97.92H-.96z"/><path d="M36.602 72.96c23.185 0 35.866-19.208 35.866-35.864 0-.545 0-1.088-.037-1.63a25.638 25.638 0 0 0 6.289-6.524 25.154 25.154 0 0 1-7.24 1.983 12.647 12.647 0 0 0 5.542-6.971 25.257 25.257 0 0 1-8.005 3.06c-4.774-5.077-12.759-5.322-17.835-.548a12.616 12.616 0 0 0-3.647 12.043 35.79 35.79 0 0 1-25.979-13.17C18.21 31.1 19.92 38.468 25.46 42.166c-2.006-.059-3.968-.6-5.721-1.577v.16A12.61 12.61 0 0 0 29.85 53.104a12.59 12.59 0 0 1-5.692.216 12.619 12.619 0 0 0 11.776 8.754 25.297 25.297 0 0 1-18.655 5.224 35.691 35.691 0 0 0 19.322 5.652" fill="#FFF" fill-rule="nonzero"/></g></svg>