<?xml version="1.0" encoding="UTF-8"?>
<svg width="96px" height="96px" viewBox="0 0 96 96" version="1.1" xmlns="http://www.w3.org/2000/svg" xmlns:xlink="http://www.w3.org/1999/xlink">
    <title>apps / woonveilig</title>
    <defs>
        <circle id="path-1" cx="48" cy="48" r="48"></circle>
    </defs>
    <g id="apps-/-woonveilig" stroke="none" stroke-width="1" fill="none" fill-rule="evenodd">
        <g id="Group">
            <mask id="mask-2" fill="white">
                <use xlink:href="#path-1"></use>
            </mask>
            <use id="Mask" fill="#D8D8D8" xlink:href="#path-1"></use>
            <rect id="Rectangle" fill="#FF6600" mask="url(#mask-2)" x="-0.96" y="-0.96" width="97.92" height="97.92"></rect>
        </g>
        <g id="icon-3" transform="translate(6.000000, 26.000000)" fill="#FFFFFF" fill-rule="nonzero">
            <g id="Group" transform="translate(30.943046, 0.000000)">
                <path d="M11.8847492,23.9835662 C11.0256159,23.9835662 10.5316142,24.6711246 10.5316142,25.8098932 L13.1519708,25.8098932 C13.1734492,24.6711246 12.6579692,23.9835662 11.8847492,23.9835662 Z" id="Path"></path>
                <path d="M52.8009732,7.03095425 C51.9633182,6.90203705 51.1471416,6.75163364 50.3094866,6.60123024 L15.6434574,0.4776632 C12.1639675,-0.145436605 12.4431858,-0.360298606 11.3907475,1.100763 C8.55560761,5.05422383 5.80638101,9.11511566 2.99271941,13.0900627 L0.587146139,16.5278547 C0.0501878193,17.2798717 -0.207552174,17.5591923 0.200536149,18.6764747 C0.544189474,19.6003813 0.866364466,20.5672603 1.21001779,21.5126531 L1.76845444,23.0596596 L3.29341607,22.8447976 L4.49620271,26.647855 C4.73246437,27.3783858 4.92576937,28.2163476 4.92576937,28.2163476 L4.9472477,28.2163476 C4.9472477,28.2163476 5.09759603,27.3783858 5.37681435,26.5833964 L6.53664433,22.8233114 L8.16899762,22.995201 L5.59159768,30.085647 L4.32437605,30.085647 L4.49620271,30.5798296 L4.47472438,30.515371 C5.09759603,32.2987256 7.15951598,37.9495963 7.39577764,38.5726961 C7.7609093,39.5825475 7.95421429,39.6040337 9.09256593,39.7974095 L31.3870754,43.7293841 C31.816642,43.8153289 32.1817737,43.8797875 32.6328187,43.9657323 C33.1912553,44.0516771 33.4704737,44.0087047 33.491952,43.4500635 C33.556387,42.2683225 33.491952,39.0453925 33.491952,37.6487895 C33.491952,36.9182587 33.5134303,37.0256897 33.8356053,36.5529933 L36.8425719,32.2557532 C38.4104902,29.9567298 40.0643218,27.722165 41.6537185,25.3801692 C45.5198184,19.6863261 49.7295716,13.9495107 53.6386282,8.25566765 C54.3688915,7.22433005 54.1755865,7.28878865 52.8009732,7.03095425 Z M14.7628458,26.9486618 L10.5530926,26.9486618 L10.5530926,27.0560928 C10.5530926,28.044458 10.9182242,29.0757956 12.2928375,29.0757956 C12.9586658,29.0757956 13.5171025,28.8394474 14.0540608,28.3882372 L14.6554541,29.3121438 C13.9251908,29.9352436 13.0660575,30.2575366 12.1210109,30.2575366 C10.1235259,30.2575366 8.85630427,28.8179612 8.85630427,26.5619102 C8.85630427,25.3157106 9.11404426,24.499235 9.73691591,23.7901904 C10.3168309,23.1241182 11.0041375,22.8447976 11.9062275,22.8447976 C12.5935342,22.8447976 13.2593625,23.0381734 13.8392775,23.5753284 C14.4621491,24.1339696 14.7628458,24.9934176 14.7628458,26.647855 L14.7628458,26.9486618 Z M17.9631174,30.085647 L16.4166774,30.085647 L16.4166774,23.1241182 L17.9631174,22.8447976 L17.9631174,30.085647 Z M17.1898974,21.9423772 C16.6314607,21.9423772 16.2018941,21.4911669 16.2018941,20.9325257 C16.2018941,20.3523983 16.6529391,19.8797019 17.2328541,19.8797019 C17.7698124,19.8797019 18.2423357,20.3309121 18.2423357,20.9325257 C18.2208574,21.4911669 17.7483341,21.9423772 17.1898974,21.9423772 Z M21.678869,30.2360504 C20.132429,30.2360504 20.132429,28.8394474 20.132429,28.2378338 L20.132429,22.2216978 C20.132429,21.2548187 20.0894723,20.7391499 20.003559,20.1375363 L21.5929556,19.7937571 C21.7003473,20.2234811 21.7218256,20.8250947 21.7218256,21.7490013 L21.7218256,27.722165 C21.7218256,28.6675578 21.7647823,28.8394474 21.8721739,28.9898508 C21.9580873,29.118768 22.1943489,29.1832266 22.3661756,29.0972818 L22.6239156,30.0426746 C22.3017406,30.1715918 22.0225223,30.2360504 21.678869,30.2360504 Z M25.4590555,30.085647 L23.9126156,30.085647 L23.9126156,23.1241182 L25.4590555,22.8447976 L25.4590555,30.085647 Z M24.6643572,21.9423772 C24.1059206,21.9423772 23.6763539,21.4911669 23.6763539,20.9325257 C23.6763539,20.3523983 24.1059206,19.8797019 24.6858355,19.8797019 C25.2442722,19.8797019 25.6953172,20.3309121 25.6953172,20.9325257 C25.6953172,21.4911669 25.2442722,21.9423772 24.6643572,21.9423772 Z M32.976472,24.1339696 C32.6757753,24.1339696 32.4824704,24.069511 32.4180354,24.069511 C32.460992,24.1124834 32.8905587,24.5636936 32.8905587,25.2942244 C32.8905587,26.5189378 31.8595987,27.4643306 30.2057671,27.4643306 C29.7117654,27.6577064 29.2607204,27.9155408 29.2607204,28.151889 C29.2607204,28.4097234 29.3681121,28.4526958 31.0219437,28.4526958 C32.1602954,28.4526958 33.363082,29.011337 33.363082,30.4723986 C33.363082,31.9764326 32.0958604,32.7929082 30.2272454,32.7929082 C28.4015871,32.7929082 27.0699305,32.1912946 27.0699305,30.8591502 C27.0699305,30.5368572 27.1988005,30.1071332 27.1988005,30.1071332 L28.6593271,30.1071332 C28.6593271,30.1071332 28.5519355,30.3864538 28.5519355,30.6013158 C28.5519355,31.267388 29.1103721,31.6111672 30.0983754,31.6111672 C31.1937704,31.6111672 31.7736854,31.1814432 31.7736854,30.515371 C31.7736854,29.7418678 31.1293354,29.5270058 29.8191571,29.5270058 C27.9075855,29.5270058 27.4994971,29.1617404 27.4994971,28.4526958 C27.4994971,27.7651374 28.0794121,27.4643306 28.8526321,27.2279824 C27.7787155,26.9271756 27.2417571,26.2396172 27.2417571,25.2297658 C27.2417571,23.7901904 28.3801088,22.8233114 30.0768971,22.8233114 C31.0863787,22.8233114 31.6448154,23.1885768 32.2247304,23.1885768 C32.6757753,23.1885768 33.1268203,23.0166872 33.5134303,22.6943942 L34.2222153,23.6612732 C33.8356053,24.0050524 33.4704737,24.1339696 32.976472,24.1339696 Z" id="Shape"></path>
                <path d="M30.0554187,23.9835662 C29.2607204,23.9835662 28.8311538,24.4132902 28.8311538,25.2082796 C28.8311538,26.003269 29.2821988,26.3900206 30.0554187,26.3900206 C30.8501171,26.3900206 31.2796837,25.9602966 31.2796837,25.1867934 C31.2582054,24.4132902 30.8715954,23.9835662 30.0554187,23.9835662 Z" id="Path"></path>
            </g>
            <path d="M1.89009329,30.1071332 L3.82314324,30.1071332 C3.90905657,29.3766024 4.14531823,28.4956682 4.29566656,27.7651374 C4.42453656,27.18501 4.57488489,25.7669208 4.72523322,25.3371968 C4.81114655,25.573545 4.87558155,26.2611034 4.91853821,26.5833964 C5.13332154,27.8725684 5.51993153,28.9683646 5.71323653,30.1286194 L7.56037315,30.1286194 L9.4934231,23.0166872 L7.71072148,23.0166872 C7.56037315,23.0596596 7.58185148,23.2530354 7.49593815,23.5538422 L7.08784983,25.358683 C6.98045816,25.8528656 6.76567483,27.5717616 6.63680484,27.8510822 C6.40054318,26.1751586 6.03541152,24.6496384 5.73471486,23.0166872 L3.90905657,23.0166872 C3.75870824,23.0596596 3.35061992,25.143821 3.28618492,25.4016554 C3.09287992,26.218131 2.92105326,27.1420376 2.85661826,28.0014856 C2.70626993,27.2064962 2.59887827,26.3040758 2.42705161,25.5090864 C2.25522494,24.714097 1.97600662,23.8116766 1.86861495,23.0166872 L0,23.0166872 L1.89009329,30.1071332 Z" id="Path"></path>
            <path d="M16.8604913,26.0892138 C16.7316213,23.9835662 15.292573,22.6943942 13.0588263,22.9307424 C10.9539497,23.1456044 9.88003309,24.6281522 10.0303814,26.970148 C10.1592514,29.0328232 11.6627347,30.3434814 13.8964813,30.1501056 C16.0013579,29.9567298 16.9893612,28.366751 16.8604913,26.0892138 Z M13.810568,28.8609336 C12.457433,29.1832266 12.0278664,28.151889 12.006388,26.9486618 C11.9634314,25.7669208 12.0493447,24.499235 13.0803047,24.2199144 C14.4119613,23.8331628 14.7985713,24.9934176 14.8630063,26.1321862 C14.8844846,27.2494686 14.7985713,28.6245854 13.810568,28.8609336 Z" id="Shape"></path>
            <path d="M24.7859961,26.0892138 C24.6356477,23.9835662 23.2395561,22.7158804 20.9843311,22.9307424 C18.8579762,23.1241182 17.8055379,24.6711246 17.9558862,26.9486618 C18.0847562,29.011337 19.5667612,30.3219952 21.7790295,30.1501056 C23.9053844,29.978216 24.9363444,28.3452648 24.7859961,26.0892138 Z M21.7360728,28.8609336 C20.3614595,29.2047128 19.9533712,28.1304028 19.9104145,26.9486618 C19.8674578,25.7669208 19.9748495,24.4777488 20.9843311,24.1984282 C22.3159878,23.8331628 22.7025978,24.9719314 22.7670328,26.1107 C22.8099894,27.2279824 22.7240761,28.6245854 21.7360728,28.8609336 Z" id="Shape"></path>
            <path d="M26.074696,30.0426746 L27.7285277,30.0426746 L27.5996577,25.3371968 L28.652096,27.722165 C28.8239226,28.0874304 29.5756643,29.870785 29.7260126,30.0426746 L31.5301926,30.0426746 L31.5301926,22.9737148 L29.8978393,22.995201 C29.8978393,24.4347764 29.9407959,25.7669208 30.0052309,27.18501 C29.9622743,27.1420376 29.9622743,27.1635238 29.9193176,27.077579 C29.8763609,26.9916342 29.8978393,27.0346066 29.8548826,26.9271756 C29.8119259,26.7982584 29.7904476,26.7123136 29.7474909,26.6263688 C29.5756643,26.1751586 28.1151376,23.0381734 27.9218326,22.9737148 L26.074696,22.9737148 L26.074696,30.0426746 Z" id="Path"></path>
        </g>
    </g>
</svg>