<svg width="96" height="96" xmlns="http://www.w3.org/2000/svg" xmlns:xlink="http://www.w3.org/1999/xlink"><defs><circle id="a" cx="48" cy="48" r="48"/></defs><g fill="none" fill-rule="evenodd"><mask id="b" fill="#fff"><use xlink:href="#a"/></mask><use fill="#D8D8D8" xlink:href="#a"/><path fill="#4E6690" mask="url(#b)" d="M-.96-.96h97.92v97.92H-.96z"/><g mask="url(#b)" fill="#FFF" fill-rule="nonzero"><path d="M66.674 67.76c-2.755 0-2.767.004-3.761-2.634-3.383-8.985-6.822-17.95-10.111-26.97-1.576-4.326-6.53-4.658-8.867-2.045-.637.713-.95 1.579-1.28 2.44a269.987 269.987 0 0 0-2.07 5.538c-.246.685-.607 1.2-1.215 1.638-2.771 1.99-3.91 5.19-3.097 8.526.124.51.094.964-.102 1.475a734.048 734.048 0 0 0-4.247 11.245c-.217.592-.519.803-1.108.794-1.215-.02-2.43 0-3.646-.008-1.131-.008-1.306-.26-.899-1.34 2.032-5.388 4.075-10.772 6.108-16.16 1.764-4.672 3.52-9.348 5.284-14.02 1.522-4.037 4.327-6.604 8.663-7.143 4.748-.592 8.469 1.215 10.792 5.431 1.256 2.28 1.934 4.833 2.851 7.271 3.086 8.183 6.167 16.37 9.247 24.555.522 1.387.503 1.408-1.008 1.408h-1.534z"/><path d="M44.028 57.487c-2.84-.01-5.261-2.45-5.23-5.275.03-2.845 2.49-5.264 5.304-5.216 2.877.05 5.252 2.457 5.22 5.291-.028 2.867-2.414 5.21-5.294 5.2z"/></g></g></svg>