<svg width="96" height="96" xmlns="http://www.w3.org/2000/svg"><g fill="none" fill-rule="evenodd"><circle fill="#FF6700" cx="48" cy="48" r="48"/><g fill="#FFF" fill-rule="nonzero"><path d="M78.707 28.528h-8.296a.637.637 0 0 0-.643.63v37.856c0 .345.288.627.643.627h8.296a.64.64 0 0 0 .644-.627V29.158a.64.64 0 0 0-.644-.63M50.38 28.528H18.78a.635.635 0 0 0-.641.63v37.856c0 .345.285.627.64.627h8.299a.64.64 0 0 0 .646-.627V37.303c0-.343.285-.628.64-.628H46.24c5.026 0 6.453 3.85 6.453 6.334v24.005c0 .345.289.627.644.627h8.293a.638.638 0 0 0 .643-.627V40.159c0-2.215-.266-5.4-3.124-8.204-2.99-2.927-5.718-3.427-8.768-3.427"/><path d="M44.568 43.606h-8.712a.64.64 0 0 0-.647.628v22.783a.64.64 0 0 0 .647.626h8.712c.352 0 .64-.282.64-.626V44.234a.637.637 0 0 0-.64-.628"/></g></g></svg>